<svg version="1.1" viewBox="0.0 0.0 786.2073490813648 287.93175853018374" fill="none" stroke="none" stroke-linecap="square" stroke-miterlimit="10" xmlns:xlink="http://www.w3.org/1999/xlink" xmlns="http://www.w3.org/2000/svg"><clipPath id="p.0"><path d="m0 0l786.20734 0l0 287.93176l-786.20734 0l0 -287.93176z" clip-rule="nonzero"/></clipPath><g clip-path="url(#p.0)"><path fill="#000000" fill-opacity="0.0" d="m0 0l786.20734 0l0 287.93176l-786.20734 0z" fill-rule="evenodd"/><path stroke="#ffffff" stroke-width="1.3333333333333333" stroke-linecap="butt" d="m109.59843 46.863518l0 32.666664" fill-rule="nonzero"/><path stroke="#ffffff" stroke-width="1.3333333333333333" stroke-linecap="butt" d="m171.99738 78.19685l0 32.666664" fill-rule="nonzero"/><path stroke="#ffffff" stroke-width="1.3333333333333333" stroke-linecap="butt" d="m234.39633 109.53018l0 32.66667" fill-rule="nonzero"/><path stroke="#ffffff" stroke-width="1.3333333333333333" stroke-linecap="butt" d="m296.7953 140.86351l0 32.66667" fill-rule="nonzero"/><path stroke="#ffffff" stroke-width="1.3333333333333333" stroke-linecap="butt" d="m108.931755 47.53018l125.46458 0" fill-rule="nonzero"/><path stroke="#ffffff" stroke-width="2.0" stroke-linecap="butt" stroke-dasharray="2.0,6.0" d="m234.39633 47.53018l499.85825 0" fill-rule="nonzero"/><path stroke="#ffffff" stroke-width="1.3333333333333333" stroke-linecap="butt" d="m108.931755 78.86352l187.86353 0" fill-rule="nonzero"/><path stroke="#ffffff" stroke-width="2.0" stroke-linecap="butt" stroke-dasharray="2.0,6.0" d="m296.7953 78.86352l437.4593 0" fill-rule="nonzero"/><path stroke="#ffffff" stroke-width="1.3333333333333333" stroke-linecap="butt" d="m171.3307 110.19685l187.86351 0" fill-rule="nonzero"/><path stroke="#ffffff" stroke-width="2.0" stroke-linecap="butt" stroke-dasharray="2.0,6.0" d="m359.1942 110.19685l374.39374 0" fill-rule="nonzero"/><path stroke="#ffffff" stroke-width="1.3333333333333333" stroke-linecap="butt" d="m233.72966 141.53018l187.86351 0" fill-rule="nonzero"/><path stroke="#ffffff" stroke-width="2.0" stroke-linecap="butt" stroke-dasharray="2.0,6.0" d="m421.59317 141.53018l311.99478 0" fill-rule="nonzero"/><path stroke="#ffffff" stroke-width="1.3333333333333333" stroke-linecap="butt" d="m296.1286 172.86351l187.86353 0" fill-rule="nonzero"/><path stroke="#ffffff" stroke-width="2.0" stroke-linecap="butt" stroke-dasharray="2.0,6.0" d="m483.99213 172.86351l249.59583 0" fill-rule="nonzero"/><path fill="#ffffff" d="m115.75468 67.61018l0 -1.90625l5.515625 -6.8125l-4.890625 0l0 -1.765625l7.671875 0l0 1.640625l-5.734375 7.078125l5.96875 0l0 1.765625l-8.53125 0zm11.358871 -5.28125l-1.828125 -0.328125q0.296875 -1.109375 1.046875 -1.625q0.765625 -0.53125 2.2343674 -0.53125q1.359375 0 2.015625 0.3125q0.65625 0.3125 0.921875 0.8125q0.265625 0.484375 0.265625 1.796875l-0.015625 2.34375q0 1.0 0.09375 1.484375q0.09375 0.46875 0.359375 1.015625l-1.984375 0q-0.078125 -0.203125 -0.203125 -0.59375q-0.046875 -0.171875 -0.0625 -0.234375q-0.515625 0.5 -1.109375 0.75q-0.578125 0.25 -1.2499924 0.25q-1.171875 0 -1.859375 -0.640625q-0.671875 -0.640625 -0.671875 -1.609375q0 -0.640625 0.3125 -1.140625q0.3125 -0.515625 0.859375 -0.78125q0.5625 -0.265625 1.609375 -0.46875q1.4062424 -0.265625 1.9531174 -0.484375l0 -0.203125q0 -0.578125 -0.296875 -0.828125q-0.28125 -0.25 -1.078125 -0.25q-0.5312424 0 -0.8437424 0.21875q-0.296875 0.203125 -0.46875 0.734375zm2.6874924 1.625q-0.390625 0.140625 -1.234375 0.328125q-0.8281174 0.171875 -1.0937424 0.34375q-0.390625 0.265625 -0.390625 0.703125q0 0.421875 0.3125 0.734375q0.3125 0.296875 0.8124924 0.296875q0.53125 0 1.03125 -0.359375q0.359375 -0.265625 0.484375 -0.65625q0.078125 -0.265625 0.078125 -0.984375l0 -0.40625zm10.572983 -1.703125l-1.96875 0.359375q-0.109375 -0.59375 -0.46875 -0.890625q-0.34375 -0.296875 -0.90625 -0.296875q-0.75 0 -1.203125 0.515625q-0.453125 0.515625 -0.453125 1.734375q0 1.359375 0.453125 1.921875q0.453125 0.546875 1.21875 0.546875q0.578125 0 0.9375 -0.328125q0.375 -0.328125 0.515625 -1.109375l1.984375 0.328125q-0.3125 1.359375 -1.1875 2.0625q-0.875 0.6875 -2.328125 0.6875q-1.671875 0 -2.671875 -1.046875q-0.984375 -1.0625 -0.984375 -2.921875q0 -1.875 0.984375 -2.921875q1.0 -1.046875 2.703125 -1.046875q1.390625 0 2.203125 0.59375q0.828125 0.59375 1.171875 1.8125zm3.5417328 -5.125l0 3.84375q0.96875 -1.125 2.3125 -1.125q0.703125 0 1.25 0.265625q0.5625 0.25 0.84375 0.65625q0.28125 0.390625 0.390625 0.875q0.109375 0.484375 0.109375 1.515625l0 4.453125l-2.015625 0l0 -4.015625q0 -1.1875 -0.125 -1.515625q-0.109375 -0.328125 -0.40625 -0.515625q-0.28125 -0.1875 -0.71875 -0.1875q-0.5 0 -0.890625 0.25q-0.390625 0.234375 -0.578125 0.734375q-0.171875 0.484375 -0.171875 1.4375l0 3.8125l-2.015625 0l0 -10.484375l2.015625 0zm6.4838715 6.578125q0 -1.0 0.484375 -1.9375q0.5 -0.9375 1.40625 -1.421875q0.90625 -0.5 2.015625 -0.5q1.71875 0 2.828125 1.125q1.109375 1.109375 1.109375 2.8125q0 1.734375 -1.125 2.875q-1.109375 1.125 -2.796875 1.125q-1.046875 0 -2.0 -0.46875q-0.9375 -0.46875 -1.4375 -1.375q-0.484375 -0.921875 -0.484375 -2.234375zm2.046875 0.109375q0 1.125 0.53125 1.734375q0.546875 0.59375 1.34375 0.59375q0.78125 0 1.3125 -0.59375q0.53125 -0.609375 0.53125 -1.75q0 -1.125 -0.53125 -1.71875q-0.53125 -0.609375 -1.3125 -0.609375q-0.796875 0 -1.34375 0.609375q-0.53125 0.59375 -0.53125 1.734375zm8.780746 3.796875l-2.40625 -7.59375l1.953125 0l1.421875 4.96875l1.3125 -4.96875l1.9375 0l1.265625 4.96875l1.453125 -4.96875l1.984375 0l-2.4375 7.59375l-1.9375 0l-1.3125 -4.890625l-1.28125 4.890625l-1.953125 0zm11.493851 -5.28125l-1.828125 -0.328125q0.296875 -1.109375 1.046875 -1.625q0.765625 -0.53125 2.234375 -0.53125q1.359375 0 2.015625 0.3125q0.65625 0.3125 0.921875 0.8125q0.265625 0.484375 0.265625 1.796875l-0.015625 2.34375q0 1.0 0.09375 1.484375q0.09375 0.46875 0.359375 1.015625l-1.984375 0q-0.078125 -0.203125 -0.203125 -0.59375q-0.046875 -0.171875 -0.0625 -0.234375q-0.515625 0.5 -1.109375 0.75q-0.578125 0.25 -1.25 0.25q-1.171875 0 -1.859375 -0.640625q-0.671875 -0.640625 -0.671875 -1.609375q0 -0.640625 0.3125 -1.140625q0.3125 -0.515625 0.859375 -0.78125q0.5625 -0.265625 1.609375 -0.46875q1.40625 -0.265625 1.953125 -0.484375l0 -0.203125q0 -0.578125 -0.296875 -0.828125q-0.28125 -0.25 -1.078125 -0.25q-0.53125 0 -0.84375 0.21875q-0.296875 0.203125 -0.46875 0.734375zm2.6875 1.625q-0.390625 0.140625 -1.234375 0.328125q-0.828125 0.171875 -1.09375 0.34375q-0.390625 0.265625 -0.390625 0.703125q0 0.421875 0.3125 0.734375q0.3125 0.296875 0.8125 0.296875q0.53125 0 1.03125 -0.359375q0.359375 -0.265625 0.484375 -0.65625q0.078125 -0.265625 0.078125 -0.984375l0 -0.40625zm10.869858 3.65625l-2.015625 0l0 -3.875q0 -1.234375 -0.125 -1.59375q-0.125 -0.359375 -0.421875 -0.5625q-0.296875 -0.203125 -0.703125 -0.203125q-0.515625 0 -0.9375 0.296875q-0.40625 0.28125 -0.5625 0.75q-0.15625 0.46875 -0.15625 1.75l0 3.4375l-2.015625 0l0 -7.59375l1.875 0l0 1.109375q1.0 -1.28125 2.5 -1.28125q0.671875 0 1.21875 0.234375q0.546875 0.234375 0.828125 0.609375q0.296875 0.375 0.40625 0.84375q0.109375 0.46875 0.109375 1.359375l0 4.71875zm2.0307465 -8.625l0 -1.859375l2.015625 0l0 1.859375l-2.015625 0zm0 8.625l0 -7.59375l2.015625 0l0 7.59375l-2.015625 0zm5.5876007 -5.28125l-1.828125 -0.328125q0.296875 -1.109375 1.046875 -1.625q0.765625 -0.53125 2.234375 -0.53125q1.359375 0 2.015625 0.3125q0.65625 0.3125 0.921875 0.8125q0.265625 0.484375 0.265625 1.796875l-0.015625 2.34375q0 1.0 0.09375 1.484375q0.09375 0.46875 0.359375 1.015625l-1.984375 0q-0.078125 -0.203125 -0.203125 -0.59375q-0.046875 -0.171875 -0.0625 -0.234375q-0.515625 0.5 -1.109375 0.75q-0.578125 0.25 -1.25 0.25q-1.171875 0 -1.859375 -0.640625q-0.671875 -0.640625 -0.671875 -1.609375q0 -0.640625 0.3125 -1.140625q0.3125 -0.515625 0.859375 -0.78125q0.5625 -0.265625 1.609375 -0.46875q1.40625 -0.265625 1.953125 -0.484375l0 -0.203125q0 -0.578125 -0.296875 -0.828125q-0.28125 -0.25 -1.078125 -0.25q-0.53125 0 -0.84375 0.21875q-0.296875 0.203125 -0.46875 0.734375zm2.6875 1.625q-0.390625 0.140625 -1.234375 0.328125q-0.828125 0.171875 -1.09375 0.34375q-0.390625 0.265625 -0.390625 0.703125q0 0.421875 0.3125 0.734375q0.3125 0.296875 0.8125 0.296875q0.53125 0 1.03125 -0.359375q0.359375 -0.265625 0.484375 -0.65625q0.078125 -0.265625 0.078125 -0.984375l0 -0.40625z" fill-rule="nonzero"/><path fill="#ffffff" d="m179.05988 98.94352l0 -10.484375l3.40625 0q1.921875 0 2.515625 0.15625q0.90625 0.234375 1.515625 1.03125q0.609375 0.78125 0.609375 2.03125q0 0.96875 -0.359375 1.625q-0.34375 0.65625 -0.890625 1.03125q-0.53125 0.375 -1.09375 0.5q-0.765625 0.15625 -2.203125 0.15625l-1.375 0l0 3.953125l-2.125 0zm2.125 -8.71875l0 2.984375l1.15625 0q1.25 0 1.671875 -0.15625q0.421875 -0.171875 0.65625 -0.515625q0.25 -0.359375 0.25 -0.828125q0 -0.578125 -0.34375 -0.9375q-0.328125 -0.375 -0.84375 -0.46875q-0.375 -0.078125 -1.53125 -0.078125l-1.015625 0zm7.1818542 4.8125q0 -1.0 0.484375 -1.9375q0.5 -0.9375 1.40625 -1.421875q0.90625 -0.5 2.015625 -0.5q1.71875 0 2.828125 1.125q1.109375 1.109375 1.109375 2.8125q0 1.734375 -1.125 2.875q-1.109375 1.125 -2.796875 1.125q-1.046875 0 -2.0 -0.46875q-0.9375 -0.46875 -1.4375 -1.375q-0.484375 -0.921875 -0.484375 -2.234375zm2.046875 0.109375q0 1.125 0.53125 1.734375q0.546875 0.59375 1.34375 0.59375q0.78125 0 1.3125 -0.59375q0.53125 -0.609375 0.53125 -1.75q0 -1.125 -0.53125 -1.71875q-0.53125 -0.609375 -1.3125 -0.609375q-0.796875 0 -1.34375 0.609375q-0.53125 0.59375 -0.53125 1.734375zm6.6557465 1.625l2.015625 -0.296875q0.125 0.578125 0.515625 0.890625q0.40625 0.296875 1.109375 0.296875q0.78125 0 1.171875 -0.28125q0.265625 -0.203125 0.265625 -0.546875q0 -0.21875 -0.140625 -0.375q-0.15625 -0.140625 -0.671875 -0.265625q-2.4375 -0.53125 -3.078125 -0.984375q-0.90625 -0.609375 -0.90625 -1.703125q0 -0.984375 0.78125 -1.65625q0.78125 -0.671875 2.421875 -0.671875q1.546875 0 2.3125 0.515625q0.765625 0.5 1.046875 1.484375l-1.90625 0.359375q-0.109375 -0.453125 -0.453125 -0.6875q-0.34375 -0.234375 -0.96875 -0.234375q-0.796875 0 -1.140625 0.21875q-0.234375 0.15625 -0.234375 0.40625q0 0.21875 0.203125 0.375q0.28125 0.203125 1.875 0.5625q1.609375 0.359375 2.25 0.890625q0.625 0.546875 0.625 1.5q0 1.046875 -0.875 1.796875q-0.859375 0.75 -2.578125 0.75q-1.546875 0 -2.453125 -0.625q-0.90625 -0.640625 -1.1875 -1.71875zm12.338608 -5.421875l0 1.59375l-1.375 0l0 3.0625q0 0.9375 0.03125 1.09375q0.046875 0.140625 0.1875 0.25q0.140625 0.09375 0.34375 0.09375q0.28125 0 0.8125 -0.1875l0.171875 1.5625q-0.703125 0.296875 -1.59375 0.296875q-0.546875 0 -0.984375 -0.171875q-0.421875 -0.1875 -0.640625 -0.46875q-0.203125 -0.296875 -0.28125 -0.796875q-0.0625 -0.359375 -0.0625 -1.421875l0 -3.3125l-0.921875 0l0 -1.59375l0.921875 0l0 -1.515625l2.015625 -1.171875l0 2.6875l1.375 0zm2.9118958 2.3125l-1.828125 -0.328125q0.296875 -1.109375 1.046875 -1.625q0.765625 -0.53125 2.234375 -0.53125q1.359375 0 2.015625 0.3125q0.65625 0.3125 0.921875 0.8125q0.265625 0.484375 0.265625 1.796875l-0.015625 2.34375q0 1.0 0.09375 1.484375q0.09375 0.46875 0.359375 1.015625l-1.984375 0q-0.078125 -0.203125 -0.203125 -0.59375q-0.046875 -0.171875 -0.0625 -0.234375q-0.515625 0.5 -1.109375 0.75q-0.578125 0.25 -1.25 0.25q-1.171875 0 -1.859375 -0.640625q-0.671875 -0.640625 -0.671875 -1.609375q0 -0.640625 0.3125 -1.140625q0.3125 -0.515625 0.859375 -0.78125q0.5625 -0.265625 1.609375 -0.46875q1.40625 -0.265625 1.953125 -0.484375l0 -0.203125q0 -0.578125 -0.296875 -0.828125q-0.28125 -0.25 -1.078125 -0.25q-0.53125 0 -0.84375 0.21875q-0.296875 0.203125 -0.46875 0.734375zm2.6875 1.625q-0.390625 0.140625 -1.234375 0.328125q-0.828125 0.171875 -1.09375 0.34375q-0.390625 0.265625 -0.390625 0.703125q0 0.421875 0.3125 0.734375q0.3125 0.296875 0.8125 0.296875q0.53125 0 1.03125 -0.359375q0.359375 -0.265625 0.484375 -0.65625q0.078125 -0.265625 0.078125 -0.984375l0 -0.40625zm5.369858 3.65625l-2.40625 -7.59375l1.953125 0l1.421875 4.96875l1.3125 -4.96875l1.9375 0l1.265625 4.96875l1.453125 -4.96875l1.984375 0l-2.4375 7.59375l-1.9375 0l-1.3125 -4.890625l-1.28125 4.890625l-1.953125 0zm9.025101 -7.59375l2.140625 0l1.828125 5.390625l1.765625 -5.390625l2.09375 0l-2.6875 7.3125l-0.484375 1.3125q-0.265625 0.671875 -0.515625 1.015625q-0.234375 0.359375 -0.546875 0.578125q-0.296875 0.21875 -0.765625 0.328125q-0.453125 0.125 -1.015625 0.125q-0.578125 0 -1.140625 -0.109375l-0.171875 -1.578125q0.46875 0.09375 0.84375 0.09375q0.703125 0 1.03125 -0.421875q0.34375 -0.40625 0.515625 -1.046875l-2.890625 -7.609375z" fill-rule="nonzero"/><path fill="#ffffff" d="m242.95883 130.27686l-2.515625 -10.484383l2.171875 0l1.578125 7.203125l1.921875 -7.203125l2.515625 0l1.84375 7.328125l1.609375 -7.328125l2.125 0l-2.546875 10.484383l-2.234375 0l-2.09375 -7.8437576l-2.078125 7.8437576l-2.296875 0zm13.289001 -5.2812576l-1.828125 -0.328125q0.296875 -1.109375 1.046875 -1.625q0.765625 -0.53125 2.234375 -0.53125q1.359375 0 2.015625 0.3125q0.65625 0.3125 0.921875 0.8125q0.265625 0.484375 0.265625 1.796875l-0.015625 2.34375q0 1.0000076 0.09375 1.4843826q0.09375 0.46875 0.359375 1.015625l-1.984375 0q-0.078125 -0.203125 -0.203125 -0.59375q-0.046875 -0.171875 -0.0625 -0.234375q-0.515625 0.5 -1.109375 0.75q-0.578125 0.25 -1.25 0.25q-1.171875 0 -1.859375 -0.640625q-0.671875 -0.640625 -0.671875 -1.609375q0 -0.6406326 0.3125 -1.1406326q0.3125 -0.515625 0.859375 -0.78125q0.5625 -0.265625 1.609375 -0.46875q1.40625 -0.265625 1.953125 -0.484375l0 -0.203125q0 -0.578125 -0.296875 -0.828125q-0.28125 -0.25 -1.078125 -0.25q-0.53125 0 -0.84375 0.21875q-0.296875 0.203125 -0.46875 0.734375zm2.6875 1.625q-0.390625 0.140625 -1.234375 0.328125q-0.828125 0.171875 -1.09375 0.34375q-0.390625 0.265625 -0.390625 0.703125q0 0.42188263 0.3125 0.7343826q0.3125 0.296875 0.8125 0.296875q0.53125 0 1.03125 -0.359375q0.359375 -0.265625 0.484375 -0.65625q0.078125 -0.26563263 0.078125 -0.9843826l0 -0.40625zm5.8854675 3.6562576l-2.015625 0l0 -7.5937576l1.859375 0l0 1.078125q0.484375 -0.765625 0.859375 -1.0q0.390625 -0.25 0.875 -0.25q0.6875 0 1.328125 0.375l-0.625 1.75q-0.5 -0.328125 -0.9375 -0.328125q-0.421875 0 -0.71875 0.234375q-0.296875 0.234375 -0.46875 0.84375q-0.15625 0.609375 -0.15625 2.546875l0 2.3437576zm7.250519 -7.5937576l0 1.59375l-1.375 0l0 3.0625q0 0.9375076 0.03125 1.0937576q0.046875 0.140625 0.1875 0.25q0.140625 0.09375 0.34375 0.09375q0.28125 0 0.8125 -0.1875l0.171875 1.5625q-0.703125 0.296875 -1.59375 0.296875q-0.546875 0 -0.984375 -0.171875q-0.421875 -0.1875 -0.640625 -0.46875q-0.203125 -0.296875 -0.28125 -0.796875q-0.0625 -0.359375 -0.0625 -1.4218826l0 -3.3125l-0.921875 0l0 -1.59375l0.921875 0l0 -1.515625l2.015625 -1.171875l0 2.6875l1.375 0zm0.94314575 3.6875q0 -1.0 0.484375 -1.9375q0.5 -0.9375 1.40625 -1.421875q0.90625 -0.5 2.015625 -0.5q1.71875 0 2.828125 1.125q1.109375 1.109375 1.109375 2.8125q0 1.7343826 -1.125 2.8750076q-1.109375 1.125 -2.796875 1.125q-1.046875 0 -2.0 -0.46875q-0.9375 -0.46875 -1.4375 -1.375q-0.484375 -0.9218826 -0.484375 -2.2343826zm2.046875 0.109375q0 1.125 0.53125 1.7343826q0.546875 0.59375 1.34375 0.59375q0.78125 0 1.3125 -0.59375q0.53125 -0.6093826 0.53125 -1.7500076q0 -1.125 -0.53125 -1.71875q-0.53125 -0.609375 -1.3125 -0.609375q-0.796875 0 -1.34375 0.609375q-0.53125 0.59375 -0.53125 1.734375zm6.655731 1.6250076l2.015625 -0.29688263q0.125 0.5781326 0.515625 0.8906326q0.40625 0.296875 1.109375 0.296875q0.78125 0 1.171875 -0.28125q0.265625 -0.203125 0.265625 -0.546875q0 -0.21875763 -0.140625 -0.37500763q-0.15625 -0.140625 -0.671875 -0.265625q-2.4375 -0.53125 -3.078125 -0.984375q-0.90625 -0.609375 -0.90625 -1.703125q0 -0.984375 0.78125 -1.65625q0.78125 -0.671875 2.421875 -0.671875q1.546875 0 2.3125 0.515625q0.765625 0.5 1.046875 1.484375l-1.90625 0.359375q-0.109375 -0.453125 -0.453125 -0.6875q-0.34375 -0.234375 -0.96875 -0.234375q-0.796875 0 -1.140625 0.21875q-0.234375 0.15625 -0.234375 0.40625q0 0.21875 0.203125 0.375q0.28125 0.203125 1.875 0.5625q1.609375 0.359375 2.25 0.890625q0.625 0.546875 0.625 1.5q0 1.0468826 -0.875 1.7968826q-0.859375 0.75 -2.578125 0.75q-1.546875 0 -2.453125 -0.625q-0.90625 -0.640625 -1.1875 -1.71875zm2.90625 -6.3593826l0.984375 -2.140625l2.25 0l-1.96875 2.140625l-1.265625 0zm12.572998 3.171875l-1.96875 0.359375q-0.109375 -0.59375 -0.46875 -0.890625q-0.34375 -0.296875 -0.90625 -0.296875q-0.75 0 -1.203125 0.515625q-0.453125 0.515625 -0.453125 1.734375q0 1.359375 0.453125 1.9218826q0.453125 0.546875 1.21875 0.546875q0.578125 0 0.9375 -0.328125q0.375 -0.328125 0.515625 -1.1093826l1.984375 0.328125q-0.3125 1.3593826 -1.1875 2.0625076q-0.875 0.6875 -2.328125 0.6875q-1.671875 0 -2.671875 -1.046875q-0.984375 -1.0625 -0.984375 -2.9218826q0 -1.875 0.984375 -2.921875q1.0 -1.046875 2.703125 -1.046875q1.390625 0 2.203125 0.59375q0.828125 0.59375 1.171875 1.8125zm1.5260925 -3.265625l0 -1.859375l2.015625 0l0 1.859375l-2.015625 0zm0 8.625008l0 -7.5937576l2.015625 0l0 7.5937576l-2.015625 0z" fill-rule="nonzero"/><path fill="#ffffff" d="m313.32654 161.61018l-2.3125 0l-0.90625 -2.390625l-4.203125 0l-0.859375 2.390625l-2.25 0l4.09375 -10.484375l2.234375 0l4.203125 10.484375zm-3.90625 -4.15625l-1.4375 -3.890625l-1.421875 3.890625l2.859375 0zm4.943634 4.15625l0 -10.484375l2.0 0l0 5.5625l2.359375 -2.671875l2.484375 0l-2.609375 2.765625l2.796875 4.828125l-2.171875 0l-1.921875 -3.40625l-0.9375 0.96875l0 2.4375l-2.0 0zm7.510498 -2.171875l2.015625 -0.296875q0.125 0.578125 0.515625 0.890625q0.40625 0.296875 1.109375 0.296875q0.78125 0 1.171875 -0.28125q0.265625 -0.203125 0.265625 -0.546875q0 -0.21875 -0.140625 -0.375q-0.15625 -0.140625 -0.671875 -0.265625q-2.4375 -0.53125 -3.078125 -0.984375q-0.90625 -0.609375 -0.90625 -1.703125q0 -0.984375 0.78125 -1.65625q0.78125 -0.671875 2.421875 -0.671875q1.546875 0 2.3125 0.515625q0.765625 0.5 1.046875 1.484375l-1.90625 0.359375q-0.109375 -0.453125 -0.453125 -0.6875q-0.34375 -0.234375 -0.96875 -0.234375q-0.796875 0 -1.140625 0.21875q-0.234375 0.15625 -0.234375 0.40625q0 0.21875 0.203125 0.375q0.28125 0.203125 1.875 0.5625q1.609375 0.359375 2.25 0.890625q0.625 0.546875 0.625 1.5q0 1.046875 -0.875 1.796875q-0.859375 0.75 -2.578125 0.75q-1.546875 0 -2.453125 -0.625q-0.90625 -0.640625 -1.1875 -1.71875zm8.822968 -6.453125l0 -1.859375l2.0 0l0 1.859375l-2.0 0zm2.0 1.03125l0 7.359375q0 1.453125 -0.1875 2.046875q-0.1875 0.59375 -0.734375 0.921875q-0.53125 0.34375 -1.375 0.34375q-0.296875 0 -0.640625 -0.046875q-0.34375 -0.046875 -0.75 -0.15625l0.34375 -1.71875q0.15625 0.03125 0.28125 0.046875q0.125 0.015625 0.21875 0.015625q0.3125 0 0.5 -0.140625q0.203125 -0.125 0.265625 -0.3125q0.078125 -0.1875 0.078125 -1.109375l0 -7.25l2.0 0zm1.650116 3.6875q0 -1.0 0.484375 -1.9375q0.5 -0.9375 1.40625 -1.421875q0.90625 -0.5 2.015625 -0.5q1.71875 0 2.828125 1.125q1.109375 1.109375 1.109375 2.8125q0 1.734375 -1.125 2.875q-1.109375 1.125 -2.796875 1.125q-1.046875 0 -2.0 -0.46875q-0.9375 -0.46875 -1.4375 -1.375q-0.484375 -0.921875 -0.484375 -2.234375zm2.046875 0.109375q0 1.125 0.53125 1.734375q0.546875 0.59375 1.34375 0.59375q0.78125 0 1.3125 -0.59375q0.53125 -0.609375 0.53125 -1.75q0 -1.125 -0.53125 -1.71875q-0.53125 -0.609375 -1.3125 -0.609375q-0.796875 0 -1.34375 0.609375q-0.53125 0.59375 -0.53125 1.734375zm7.218231 -3.796875l1.84375 0l0 1.03125q1.0 -1.203125 2.375 -1.203125q0.734375 0 1.265625 0.296875q0.53125 0.296875 0.875 0.90625q0.5 -0.609375 1.078125 -0.90625q0.59375 -0.296875 1.25 -0.296875q0.828125 0 1.40625 0.34375q0.59375 0.328125 0.875 0.984375q0.203125 0.484375 0.203125 1.578125l0 4.859375l-2.015625 0l0 -4.34375q0 -1.125 -0.203125 -1.453125q-0.28125 -0.4375 -0.859375 -0.4375q-0.421875 0 -0.796875 0.265625q-0.359375 0.25 -0.53125 0.75q-0.171875 0.5 -0.171875 1.5625l0 3.65625l-2.0 0l0 -4.171875q0 -1.109375 -0.109375 -1.421875q-0.109375 -0.328125 -0.34375 -0.484375q-0.21875 -0.15625 -0.609375 -0.15625q-0.453125 0 -0.828125 0.25q-0.375 0.25 -0.546875 0.734375q-0.15625 0.46875 -0.15625 1.5625l0 3.6875l-2.0 0l0 -7.59375zm14.688019 2.3125l-1.828125 -0.328125q0.296875 -1.109375 1.046875 -1.625q0.765625 -0.53125 2.234375 -0.53125q1.359375 0 2.015625 0.3125q0.65625 0.3125 0.921875 0.8125q0.265625 0.484375 0.265625 1.796875l-0.015625 2.34375q0 1.0 0.09375 1.484375q0.09375 0.46875 0.359375 1.015625l-1.984375 0q-0.078125 -0.203125 -0.203125 -0.59375q-0.046875 -0.171875 -0.0625 -0.234375q-0.515625 0.5 -1.109375 0.75q-0.578125 0.25 -1.25 0.25q-1.171875 0 -1.859375 -0.640625q-0.671875 -0.640625 -0.671875 -1.609375q0 -0.640625 0.3125 -1.140625q0.3125 -0.515625 0.859375 -0.78125q0.5625 -0.265625 1.609375 -0.46875q1.40625 -0.265625 1.953125 -0.484375l0 -0.203125q0 -0.578125 -0.296875 -0.828125q-0.28125 -0.25 -1.078125 -0.25q-0.53125 0 -0.84375 0.21875q-0.296875 0.203125 -0.46875 0.734375zm2.6875 1.625q-0.390625 0.140625 -1.234375 0.328125q-0.828125 0.171875 -1.09375 0.34375q-0.390625 0.265625 -0.390625 0.703125q0 0.421875 0.3125 0.734375q0.3125 0.296875 0.8125 0.296875q0.53125 0 1.03125 -0.359375q0.359375 -0.265625 0.484375 -0.65625q0.078125 -0.265625 0.078125 -0.984375l0 -0.40625zm7.4323425 -3.9375l0 1.59375l-1.375 0l0 3.0625q0 0.9375 0.03125 1.09375q0.046875 0.140625 0.1875 0.25q0.140625 0.09375 0.34375 0.09375q0.28125 0 0.8125 -0.1875l0.171875 1.5625q-0.703125 0.296875 -1.59375 0.296875q-0.546875 0 -0.984375 -0.171875q-0.421875 -0.1875 -0.640625 -0.46875q-0.203125 -0.296875 -0.28125 -0.796875q-0.0625 -0.359375 -0.0625 -1.421875l0 -3.3125l-0.921875 0l0 -1.59375l0.921875 0l0 -1.515625l2.015625 -1.171875l0 2.6875l1.375 0zm0.44314575 0l2.140625 0l1.828125 5.390625l1.765625 -5.390625l2.09375 0l-2.6875 7.3125l-0.484375 1.3125q-0.265625 0.671875 -0.515625 1.015625q-0.234375 0.359375 -0.546875 0.578125q-0.296875 0.21875 -0.765625 0.328125q-0.453125 0.125 -1.015625 0.125q-0.578125 0 -1.140625 -0.109375l-0.171875 -1.578125q0.46875 0.09375 0.84375 0.09375q0.703125 0 1.03125 -0.421875q0.34375 -0.40625 0.515625 -1.046875l-2.890625 -7.609375z" fill-rule="nonzero"/><path fill="#000000" fill-opacity="0.0" d="m36.0 253.79527l0 -253.79527" fill-rule="evenodd"/><path stroke="#ffffff" stroke-width="1.0" stroke-linejoin="round" stroke-linecap="butt" d="m36.0 253.79527l0 -250.36818" fill-rule="evenodd"/><path fill="#ffffff" stroke="#ffffff" stroke-width="1.0" stroke-linecap="butt" d="m36.0 3.4270866l1.1245842 1.1245835l-1.1245842 -3.089768l-1.1245842 3.089768z" fill-rule="evenodd"/><path fill="#000000" fill-opacity="0.0" d="m36.0 253.79527l749.7008 0" fill-rule="evenodd"/><path stroke="#ffffff" stroke-width="1.0" stroke-linejoin="round" stroke-linecap="butt" d="m36.0 253.79527l746.2737 0" fill-rule="evenodd"/><path fill="#ffffff" stroke="#ffffff" stroke-width="1.0" stroke-linecap="butt" d="m782.2737 253.79527l-1.1245728 1.124588l3.0897827 -1.124588l-3.0897827 -1.124588z" fill-rule="evenodd"/><path fill="#000000" fill-opacity="0.0" d="m0 235.49606l0 -217.19685l36.0 0l0 217.19685z" fill-rule="evenodd"/><path fill="#d9d9d9" d="m23.08 225.37106l-10.484375 0l0 -3.96875q0 -1.046875 0.09375 -1.59375q0.125 -0.765625 0.484375 -1.28125q0.359375 -0.53125 1.015625 -0.84375q0.65625 -0.328125 1.4375 -0.328125q1.328125 0 2.265625 0.859375q0.921875 0.84375 0.921875 3.078125l0 2.6875l4.265625 0l0 1.390625zm-5.5 -1.390625l0 -2.71875q0 -1.34375 -0.5 -1.90625q-0.5 -0.5625 -1.40625 -0.5625q-0.671875 0 -1.140625 0.328125q-0.46875 0.328125 -0.609375 0.875q-0.09375 0.359375 -0.09375 1.296875l0 2.6875l3.75 0zm1.703125 -7.7443542q-2.109375 0 -3.125 -1.171875q-0.84375 -0.984375 -0.84375 -2.390625q0 -1.578125 1.03125 -2.5625q1.015625 -1.0 2.828125 -1.0q1.46875 0 2.3125 0.4375q0.828125 0.4375 1.296875 1.28125q0.46875 0.84375 0.46875 1.84375q0 1.59375 -1.015625 2.578125q-1.03125 0.984375 -2.953125 0.984375zm0 -1.328125q1.453125 0 2.1875 -0.625q0.71875 -0.640625 0.71875 -1.609375q0 -0.96875 -0.71875 -1.59375q-0.734375 -0.640625 -2.234375 -0.640625q-1.40625 0 -2.125 0.640625q-0.734375 0.640625 -0.734375 1.59375q0 0.96875 0.71875 1.609375q0.71875 0.625 2.1875 0.625zm3.796875 -6.619858l-1.046875 0l-5.546875 -4.84375q0.03125 0.828125 0.03125 1.453125l0 3.09375l-1.03125 0l0 -6.203125l0.84375 0l4.828125 4.109375l0.875 0.796875q-0.0625 -0.859375 -0.0625 -1.625l0 -3.515625l1.109375 0l0 6.734375zm-9.015625 -8.015625l-1.46875 0l0 -1.296875l1.46875 0l0 1.296875zm9.015625 0l-7.59375 0l0 -1.296875l7.59375 0l0 1.296875zm-3.796875 -2.7717743q-2.109375 0 -3.125 -1.171875q-0.84375 -0.984375 -0.84375 -2.390625q0 -1.578125 1.03125 -2.5625q1.015625 -1.0 2.828125 -1.0q1.46875 0 2.3125 0.4375q0.828125 0.4375 1.296875 1.28125q0.46875 0.84375 0.46875 1.84375q0 1.59375 -1.015625 2.578125q-1.03125 0.984375 -2.953125 0.984375zm0 -1.328125q1.453125 0 2.1875 -0.625q0.71875 -0.640625 0.71875 -1.609375q0 -0.96875 -0.71875 -1.59375q-0.734375 -0.640625 -2.234375 -0.640625q-1.40625 0 -2.125 0.640625q-0.734375 0.640625 -0.734375 1.59375q0 0.96875 0.71875 1.609375q0.71875 0.625 2.1875 0.625zm3.796875 -7.307358l-7.59375 0l0 -1.15625l1.0625 0q-0.5625 -0.34375 -0.890625 -0.9375q-0.34375 -0.609375 -0.34375 -1.359375q0 -0.84375 0.34375 -1.375q0.34375 -0.546875 0.984375 -0.765625q-1.328125 -0.90625 -1.328125 -2.359375q0 -1.125 0.625 -1.734375q0.625 -0.609375 1.921875 -0.609375l5.21875 0l0 1.28125l-4.78125 0q-0.78125 0 -1.109375 0.125q-0.34375 0.125 -0.546875 0.453125q-0.21875 0.328125 -0.21875 0.78125q0 0.796875 0.53125 1.328125q0.53125 0.53125 1.703125 0.53125l4.421875 0l0 1.28125l-4.9375 0q-0.859375 0 -1.28125 0.3125q-0.4375 0.3125 -0.4375 1.03125q0 0.546875 0.296875 1.015625q0.28125 0.453125 0.828125 0.671875q0.546875 0.203125 1.59375 0.203125l3.9375 0l0 1.28125zm3.078125 -18.733871q-1.34375 1.0625 -3.140625 1.796875q-1.8125 0.734375 -3.734375 0.734375q-1.703125 0 -3.265625 -0.546875q-1.8125 -0.640625 -3.609375 -1.984375l0 -0.921875q1.484375 0.859375 2.125 1.140625q0.984375 0.4375 2.0625 0.6875q1.34375 0.296875 2.6875 0.296875q3.453125 0 6.875 -2.125l0 0.921875zm-3.078125 -3.8337708l-7.59375 2.328125l0 -1.328125l4.375 -1.203125l1.640625 -0.453125q-0.125 -0.03125 -1.578125 -0.390625l-4.4375 -1.21875l0 -1.328125l4.40625 -1.125l1.453125 -0.390625l-1.46875 -0.4375l-4.390625 -1.296875l0 -1.25l7.59375 2.375l0 1.34375l-4.546875 1.203125l-1.296875 0.296875l5.84375 1.53125l0 1.34375zm-0.9375 -14.131149q0.609375 0.71875 0.859375 1.375q0.25 0.65625 0.25 1.421875q0 1.25 -0.609375 1.921875q-0.609375 0.671875 -1.5625 0.671875q-0.5625 0 -1.015625 -0.25q-0.46875 -0.25 -0.75 -0.65625q-0.28125 -0.421875 -0.421875 -0.9375q-0.09375 -0.375 -0.1875 -1.140625q-0.1875 -1.5625 -0.453125 -2.296875q-0.265625 -0.015625 -0.328125 -0.015625q-0.796875 0 -1.109375 0.375q-0.4375 0.484375 -0.4375 1.453125q0 0.921875 0.328125 1.359375q0.3125 0.421875 1.109375 0.625l-0.171875 1.265625q-0.796875 -0.171875 -1.296875 -0.5625q-0.5 -0.390625 -0.765625 -1.140625q-0.265625 -0.75 -0.265625 -1.71875q0 -0.984375 0.234375 -1.59375q0.21875 -0.609375 0.5625 -0.890625q0.34375 -0.28125 0.875 -0.40625q0.328125 -0.0625 1.1875 -0.0625l1.71875 0q1.796875 0 2.28125 -0.078125q0.46875 -0.078125 0.90625 -0.328125l0 1.34375q-0.40625 0.203125 -0.9375 0.265625zm-2.875 0.109375q0.28125 0.703125 0.484375 2.09375q0.109375 0.796875 0.265625 1.125q0.140625 0.328125 0.421875 0.515625q0.265625 0.171875 0.59375 0.171875q0.515625 0 0.859375 -0.390625q0.34375 -0.390625 0.34375 -1.140625q0 -0.734375 -0.3125 -1.3125q-0.328125 -0.59375 -0.890625 -0.859375q-0.4375 -0.203125 -1.296875 -0.203125l-0.46875 0zm3.8125 -3.2917328l-7.59375 0l0 -1.15625l1.140625 0q-0.796875 -0.453125 -1.046875 -0.828125q-0.265625 -0.375 -0.265625 -0.8125q0 -0.65625 0.40625 -1.328125l1.203125 0.4375q-0.28125 0.46875 -0.28125 0.953125q0 0.421875 0.25 0.765625q0.25 0.328125 0.703125 0.46875q0.6875 0.21875 1.5 0.21875l3.984375 0l0 1.28125zm-2.265625 -4.3806458l-0.203125 -1.265625q0.765625 -0.109375 1.171875 -0.59375q0.40625 -0.5 0.40625 -1.375q0 -0.890625 -0.359375 -1.3125q-0.359375 -0.4375 -0.84375 -0.4375q-0.4375 0 -0.6875 0.375q-0.171875 0.265625 -0.4375 1.3125q-0.359375 1.421875 -0.609375 1.96875q-0.265625 0.546875 -0.734375 0.828125q-0.46875 0.28125 -1.015625 0.28125q-0.515625 0 -0.9375 -0.21875q-0.4375 -0.234375 -0.734375 -0.640625q-0.21875 -0.296875 -0.359375 -0.8125q-0.15625 -0.53125 -0.15625 -1.125q0 -0.890625 0.265625 -1.5625q0.25 -0.671875 0.6875 -1.0q0.4375 -0.328125 1.171875 -0.4375l0.171875 1.25q-0.578125 0.09375 -0.90625 0.5q-0.34375 0.40625 -0.34375 1.15625q0 0.890625 0.296875 1.28125q0.296875 0.375 0.6875 0.375q0.25 0 0.453125 -0.15625q0.203125 -0.15625 0.34375 -0.5q0.078125 -0.1875 0.328125 -1.140625q0.359375 -1.359375 0.59375 -1.890625q0.234375 -0.546875 0.6875 -0.859375q0.4375 -0.3125 1.09375 -0.3125q0.640625 0 1.21875 0.375q0.5625 0.375 0.875 1.09375q0.3125 0.703125 0.3125 1.59375q0 1.484375 -0.609375 2.265625q-0.625 0.765625 -1.828125 0.984375zm1.109375 -10.65625l1.140625 -0.1875q0.109375 0.546875 0.109375 0.984375q0 0.6875 -0.21875 1.078125q-0.21875 0.390625 -0.578125 0.546875q-0.359375 0.15625 -1.515625 0.15625l-4.375 0l0 0.953125l-1.0 0l0 -0.953125l-1.890625 0l-0.765625 -1.28125l2.65625 0l0 -1.296875l1.0 0l0 1.296875l4.4375 0q0.546875 0 0.71875 -0.0625q0.15625 -0.078125 0.25 -0.21875q0.078125 -0.15625 0.078125 -0.453125q0 -0.203125 -0.046875 -0.5625zm1.15625 -2.6657257l-7.59375 2.328125l0 -1.328125l4.375 -1.203125l1.640625 -0.453125q-0.125 -0.03125 -1.578125 -0.390625l-4.4375 -1.21875l0 -1.328125l4.40625 -1.125l1.453125 -0.390625l-1.46875 -0.4375l-4.390625 -1.296875l0 -1.25l7.59375 2.375l0 1.34375l-4.546875 1.203125l-1.296875 0.296875l5.84375 1.53125l0 1.34375zm-0.9375 -14.131149q0.609375 0.71875 0.859375 1.375q0.25 0.65625 0.25 1.421875q0 1.25 -0.609375 1.921875q-0.609375 0.671875 -1.5625 0.671875q-0.5625 0 -1.015625 -0.25q-0.46875 -0.25 -0.75 -0.65625q-0.28125 -0.421875 -0.421875 -0.9375q-0.09375 -0.375 -0.1875 -1.140625q-0.1875 -1.5625 -0.453125 -2.296875q-0.265625 -0.015625 -0.328125 -0.015625q-0.796875 0 -1.109375 0.375q-0.4375 0.484375 -0.4375 1.453125q0 0.921875 0.328125 1.359375q0.3125 0.421875 1.109375 0.625l-0.171875 1.265625q-0.796875 -0.171875 -1.296875 -0.5625q-0.5 -0.390625 -0.765625 -1.140625q-0.265625 -0.75 -0.265625 -1.71875q0 -0.984375 0.234375 -1.59375q0.21875 -0.609375 0.5625 -0.890625q0.34375 -0.28125 0.875 -0.40625q0.328125 -0.0625 1.1875 -0.0625l1.71875 0q1.796875 0 2.28125 -0.078125q0.46875 -0.078125 0.90625 -0.328125l0 1.34375q-0.40625 0.203125 -0.9375 0.265625zm-2.875 0.109375q0.28125 0.703125 0.484375 2.09375q0.109375 0.796875 0.265625 1.125q0.140625 0.328125 0.421875 0.515625q0.265625 0.171875 0.59375 0.171875q0.515625 0 0.859375 -0.390625q0.34375 -0.390625 0.34375 -1.140625q0 -0.734375 -0.3125 -1.3125q-0.328125 -0.59375 -0.890625 -0.859375q-0.4375 -0.203125 -1.296875 -0.203125l-0.46875 0zm6.890625 -4.151108l0 0.921875q-3.421875 -2.140625 -6.875 -2.140625q-1.34375 0 -2.671875 0.3125q-1.0625 0.25 -2.046875 0.671875q-0.65625 0.28125 -2.15625 1.15625l0 -0.921875q1.796875 -1.34375 3.609375 -1.984375q1.5625 -0.546875 3.265625 -0.546875q1.921875 0 3.734375 0.734375q1.796875 0.734375 3.140625 1.796875zm-3.078125 -13.030746l-0.953125 0q1.125 0.71875 1.125 2.125q0 0.90625 -0.5 1.671875q-0.5 0.75 -1.390625 1.171875q-0.90625 0.421875 -2.078125 0.421875q-1.140625 0 -2.0625 -0.375q-0.921875 -0.390625 -1.40625 -1.140625q-0.5 -0.765625 -0.5 -1.703125q0 -0.6875 0.296875 -1.21875q0.28125 -0.53125 0.734375 -0.875l-3.75 0l0 -1.28125l10.484375 0l0 1.203125zm-3.796875 4.0625q1.46875 0 2.1875 -0.609375q0.71875 -0.625 0.71875 -1.453125q0 -0.84375 -0.6875 -1.4375q-0.6875 -0.59375 -2.109375 -0.59375q-1.5625 0 -2.28125 0.609375q-0.734375 0.59375 -0.734375 1.484375q0 0.84375 0.703125 1.421875q0.703125 0.578125 2.203125 0.578125zm3.796875 -12.276108l-1.109375 0q1.28125 0.890625 1.28125 2.421875q0 0.671875 -0.25 1.25q-0.265625 0.578125 -0.65625 0.875q-0.390625 0.28125 -0.953125 0.390625q-0.375 0.078125 -1.203125 0.078125l-4.703125 0l0 -1.28125l4.203125 0q1.015625 0 1.359375 -0.078125q0.515625 -0.125 0.8125 -0.515625q0.28125 -0.40625 0.28125 -0.984375q0 -0.578125 -0.296875 -1.078125q-0.296875 -0.515625 -0.8125 -0.71875q-0.515625 -0.21875 -1.484375 -0.21875l-4.0625 0l0 -1.28125l7.59375 0l0 1.140625zm-2.78125 -8.119858l0.15625 -1.265625q1.3125 0.203125 2.0625 1.0625q0.734375 0.84375 0.734375 2.09375q0 1.5625 -1.015625 2.515625q-1.03125 0.9375 -2.921875 0.9375q-1.234375 0 -2.15625 -0.40625q-0.921875 -0.40625 -1.375 -1.234375q-0.46875 -0.84375 -0.46875 -1.8125q0 -1.25 0.625 -2.03125q0.625 -0.78125 1.765625 -1.015625l0.203125 1.265625q-0.765625 0.171875 -1.15625 0.625q-0.390625 0.453125 -0.390625 1.09375q0 0.984375 0.703125 1.59375q0.703125 0.609375 2.203125 0.609375q1.53125 0 2.234375 -0.578125q0.6875 -0.59375 0.6875 -1.546875q0 -0.75 -0.453125 -1.265625q-0.46875 -0.515625 -1.4375 -0.640625zm2.78125 -2.375l-10.484375 0l0 -1.28125l3.75 0q-1.03125 -0.90625 -1.03125 -2.28125q0 -0.84375 0.328125 -1.46875q0.328125 -0.625 0.921875 -0.890625q0.578125 -0.265625 1.703125 -0.265625l4.8125 0l0 1.28125l-4.8125 0q-0.96875 0 -1.40625 0.421875q-0.4375 0.421875 -0.4375 1.1875q0 0.578125 0.296875 1.078125q0.296875 0.5 0.8125 0.71875q0.5 0.21875 1.390625 0.21875l4.15625 0l0 1.28125zm-3.796875 -7.666733q-2.109375 0 -3.125 -1.171875q-0.84375 -0.984375 -0.84375 -2.390625q0 -1.578125 1.03125 -2.5625q1.015625 -1.0 2.828125 -1.0q1.46875 0 2.3125 0.4375q0.828125 0.4375 1.296875 1.28125q0.46875 0.84375 0.46875 1.84375q0 1.59375 -1.015625 2.578125q-1.03125 0.984375 -2.953125 0.984375zm0 -1.328125q1.453125 0 2.1875 -0.625q0.71875 -0.640625 0.71875 -1.609375q0 -0.96875 -0.71875 -1.59375q-0.734375 -0.640625 -2.234375 -0.640625q-1.40625 0 -2.125 0.640625q-0.734375 0.640625 -0.734375 1.59375q0 0.96875 0.71875 1.609375q0.71875 0.625 2.1875 0.625zm3.796875 -8.713608l-7.59375 2.328125l0 -1.328125l4.375 -1.203125l1.640625 -0.453125q-0.125 -0.03125 -1.578125 -0.390625l-4.4375 -1.21875l0 -1.328125l4.40625 -1.125l1.453125 -0.390625l-1.46875 -0.4375l-4.390625 -1.296875l0 -1.25l7.59375 2.375l0 1.34375l-4.546875 1.203125l-1.296875 0.296875l5.84375 1.53125l0 1.34375zm-3.796875 -8.693649q-2.109375 0 -3.125 -1.171875q-0.84375 -0.984375 -0.84375 -2.390625q0 -1.578125 1.03125 -2.5625q1.015625 -1.0 2.828125 -1.0q1.46875 0 2.3125 0.4375q0.828125 0.4375 1.296875 1.28125q0.46875 0.84375 0.46875 1.84375q0 1.59375 -1.015625 2.578125q-1.03125 0.984375 -2.953125 0.984375zm0 -1.328125q1.453125 0 2.1875 -0.625q0.71875 -0.640625 0.71875 -1.609375q0 -0.96875 -0.71875 -1.59375q-0.734375 -0.640625 -2.234375 -0.640625q-1.40625 0 -2.125 0.640625q-0.734375 0.640625 -0.734375 1.59375q0 0.96875 0.71875 1.609375q0.71875 0.625 2.1875 0.625zm1.53125 -6.791733l-0.203125 -1.265625q0.765625 -0.109375 1.171875 -0.59375q0.40625 -0.5 0.40625 -1.375q0 -0.890625 -0.359375 -1.3125q-0.359375 -0.4375 -0.84375 -0.4375q-0.4375 0 -0.6875 0.375q-0.171875 0.265625 -0.4375 1.3125q-0.359375 1.421875 -0.609375 1.96875q-0.265625 0.546875 -0.734375 0.828125q-0.46875 0.28125 -1.015625 0.28125q-0.515625 0 -0.9375 -0.21875q-0.4375 -0.234375 -0.734375 -0.640625q-0.21875 -0.296875 -0.359375 -0.8125q-0.15625 -0.53125 -0.15625 -1.125q0 -0.890625 0.265625 -1.5625q0.25 -0.671875 0.6875 -1.0q0.4375 -0.328125 1.171875 -0.4375l0.171875 1.25q-0.578125 0.09375 -0.90625 0.5q-0.34375 0.40625 -0.34375 1.15625q0 0.890625 0.296875 1.28125q0.296875 0.375 0.6875 0.375q0.25 0 0.453125 -0.15625q0.203125 -0.15625 0.34375 -0.5q0.078125 -0.1875 0.328125 -1.140625q0.359375 -1.359375 0.59375 -1.890625q0.234375 -0.546875 0.6875 -0.859375q0.4375 -0.3125 1.09375 -0.3125q0.640625 0 1.21875 0.375q0.5625 0.375 0.875 1.09375q0.3125 0.703125 0.3125 1.59375q0 1.484375 -0.609375 2.265625q-0.625 0.765625 -1.828125 0.984375zm-6.28125 -2.375l-2.0 -0.953125l0 -1.6875l2.0 1.578125l0 1.0625zm5.765625 -10.421875l0.15625 -1.265625q1.3125 0.203125 2.0625 1.0625q0.734375 0.84375 0.734375 2.09375q0 1.5625 -1.015625 2.515625q-1.03125 0.9375 -2.921875 0.9375q-1.234375 0 -2.15625 -0.40625q-0.921875 -0.40625 -1.375 -1.234375q-0.46875 -0.84375 -0.46875 -1.8125q0 -1.25 0.625 -2.03125q0.625 -0.78125 1.765625 -1.015625l0.203125 1.265625q-0.765625 0.171875 -1.15625 0.625q-0.390625 0.453125 -0.390625 1.09375q0 0.984375 0.703125 1.59375q0.703125 0.609375 2.203125 0.609375q1.53125 0 2.234375 -0.578125q0.6875 -0.59375 0.6875 -1.546875q0 -0.75 -0.453125 -1.265625q-0.46875 -0.515625 -1.4375 -0.640625zm-6.234375 -2.375l-1.46875 0l0 -1.296875l1.46875 0l0 1.296875zm9.015625 0l-7.59375 0l0 -1.296875l7.59375 0l0 1.296875z" fill-rule="nonzero"/><path fill="#000000" fill-opacity="0.0" d="m718.7139 253.79527l55.18109 0l0 32.755905l-55.18109 0z" fill-rule="evenodd"/><path fill="#d9d9d9" d="m736.3233 273.2034l1.390625 0.34375q-0.4375 1.703125 -1.578125 2.609375q-1.125 0.890625 -2.765625 0.890625q-1.6875 0 -2.75 -0.6875q-1.0625 -0.6875 -1.625 -2.0q-0.546875 -1.3125 -0.546875 -2.8125q0 -1.640625 0.625 -2.859375q0.625 -1.21875 1.78125 -1.84375q1.15625 -0.640625 2.546875 -0.640625q1.5625 0 2.640625 0.8125q1.078125 0.796875 1.5 2.25l-1.375 0.3125q-0.359375 -1.140625 -1.0625 -1.65625q-0.6875 -0.53125 -1.734375 -0.53125q-1.21875 0 -2.03125 0.578125q-0.8125 0.578125 -1.140625 1.5625q-0.328125 0.96875 -0.328125 2.015625q0 1.328125 0.390625 2.328125q0.390625 1.0 1.21875 1.5q0.828125 0.484375 1.78125 0.484375q1.171875 0 1.96875 -0.671875q0.8125 -0.671875 1.09375 -1.984375zm2.2561035 3.671875l0 -1.046875l4.84375 -5.546875q-0.828125 0.03125 -1.453125 0.03125l-3.09375 0l0 -1.03125l6.203125 0l0 0.84375l-4.109375 4.828125l-0.796875 0.875q0.859375 -0.0625 1.625 -0.0625l3.515625 0l0 1.109375l-6.734375 0zm12.96875 -0.9375q-0.71875 0.609375 -1.375 0.859375q-0.65625 0.25 -1.421875 0.25q-1.25 0 -1.921875 -0.609375q-0.671875 -0.609375 -0.671875 -1.5625q0 -0.5625 0.25 -1.015625q0.25 -0.46875 0.65625 -0.75q0.421875 -0.28125 0.9375 -0.421875q0.375 -0.09375 1.140625 -0.1875q1.5625 -0.1875 2.296875 -0.453125q0.015625 -0.265625 0.015625 -0.328125q0 -0.796875 -0.375 -1.109375q-0.484375 -0.4375 -1.453125 -0.4375q-0.921875 0 -1.359375 0.328125q-0.421875 0.3125 -0.625 1.109375l-1.265625 -0.171875q0.171875 -0.796875 0.5625 -1.296875q0.390625 -0.5 1.140625 -0.765625q0.75 -0.265625 1.71875 -0.265625q0.984375 0 1.59375 0.234375q0.609375 0.21875 0.890625 0.5625q0.28125 0.34375 0.40625 0.875q0.0625 0.328125 0.0625 1.1875l0 1.71875q0 1.796875 0.078125 2.28125q0.078125 0.46875 0.328125 0.90625l-1.34375 0q-0.203125 -0.40625 -0.265625 -0.9375zm-0.109375 -2.875q-0.703125 0.28125 -2.09375 0.484375q-0.796875 0.109375 -1.125 0.265625q-0.328125 0.140625 -0.515625 0.421875q-0.171875 0.265625 -0.171875 0.59375q0 0.515625 0.390625 0.859375q0.390625 0.34375 1.140625 0.34375q0.734375 0 1.3125 -0.3125q0.59375 -0.328125 0.859375 -0.890625q0.203125 -0.4375 0.203125 -1.296875l0 -0.46875zm2.791748 1.546875l1.265625 -0.203125q0.109375 0.765625 0.59375 1.171875q0.5 0.40625 1.375 0.40625q0.890625 0 1.3125 -0.359375q0.4375 -0.359375 0.4375 -0.84375q0 -0.4375 -0.375 -0.6875q-0.265625 -0.171875 -1.3125 -0.4375q-1.421875 -0.359375 -1.96875 -0.609375q-0.546875 -0.265625 -0.828125 -0.734375q-0.28125 -0.46875 -0.28125 -1.015625q0 -0.515625 0.21875 -0.9375q0.234375 -0.4375 0.640625 -0.734375q0.296875 -0.21875 0.8125 -0.359375q0.53125 -0.15625 1.125 -0.15625q0.890625 0 1.5625 0.265625q0.671875 0.25 1.0 0.6875q0.328125 0.4375 0.4375 1.171875l-1.25 0.171875q-0.09375 -0.578125 -0.5 -0.90625q-0.40625 -0.34375 -1.15625 -0.34375q-0.890625 0 -1.28125 0.296875q-0.375 0.296875 -0.375 0.6875q0 0.25 0.15625 0.453125q0.15625 0.203125 0.5 0.34375q0.1875 0.078125 1.140625 0.328125q1.359375 0.359375 1.890625 0.59375q0.546875 0.234375 0.859375 0.6875q0.3125 0.4375 0.3125 1.09375q0 0.640625 -0.375 1.21875q-0.375 0.5625 -1.09375 0.875q-0.703125 0.3125 -1.59375 0.3125q-1.484375 0 -2.265625 -0.609375q-0.765625 -0.625 -0.984375 -1.828125z" fill-rule="nonzero"/><path fill="#000000" fill-opacity="0.0" d="m101.40157 94.69292l187.37009 94.267715" fill-rule="evenodd"/><path stroke="#ffffff" stroke-width="1.0" stroke-linejoin="round" stroke-linecap="butt" d="m101.40157 94.69292l184.30862 92.72746" fill-rule="evenodd"/><path fill="#ffffff" stroke="#ffffff" stroke-width="1.0" stroke-linecap="butt" d="m285.7102 187.42038l-1.5100403 0.49917603l3.265564 0.38404846l-2.2547302 -2.3932648z" fill-rule="evenodd"/><path fill="#000000" fill-opacity="0.0" d="m124.28343 102.56693l121.51181 61.511803l-14.771652 29.228348l-121.51181 -61.51181z" fill-rule="evenodd"/><path fill="#ffffff" d="m123.59541 126.652725l4.306175 -8.520538l1.115242 0.56455994l-4.306175 8.520538l-1.115242 -0.56455994zm2.9692154 1.5030823l3.1151047 -6.1637955l0.9479675 0.47987366l-0.4440155 0.87854767q1.1836395 -0.67926025 2.4661713 -0.030021667q0.5576172 0.28227997 0.93292236 0.717453q0.37532043 0.43517303 0.42921448 0.8827667q0.07489014 0.44071198 -0.05305481 0.9363632q-0.09223938 0.32107544 -0.45872498 1.0462265l-1.9169769 3.7931137l-1.0455475 -0.5292816l1.8958435 -3.751274q0.3242035 -0.6414795 0.35379028 -1.0117874q0.036621094 -0.38425446 -0.17843628 -0.7207947q-0.20803833 -0.35048676 -0.6262512 -0.5621948q-0.6691437 -0.3387375 -1.3684998 -0.16737366q-0.6993561 0.1713562 -1.2984009 1.3567047l-1.7055664 3.3747559l-1.0455399 -0.5292816zm9.371834 3.5708466l-0.31181335 0.99801636q-0.49542236 -0.12820435 -0.8439331 -0.30462646q-0.5715637 -0.28933716 -0.8005829 -0.6329498q-0.21507263 -0.3365326 -0.1925354 -0.6929016q0.022537231 -0.35635376 0.5017853 -1.3046417l1.7901306 -3.5420837l-0.76672363 -0.38813782l0.4087677 -0.80882263l0.76672363 0.3881302l0.7752533 -1.5339737l1.3627014 -0.09825897l-1.0924072 2.1615067l1.0455475 0.5292816l-0.4087677 0.80882263l-1.0455475 -0.529274l-1.8253784 3.6118088q-0.2255249 0.44625854 -0.24713135 0.592926q-0.007659912 0.15374756 0.07551575 0.30093384q0.09022522 0.13323975 0.32720947 0.25320435q0.18122864 0.09173584 0.4811859 0.19104004zm5.770111 1.6074829l1.0099945 0.66889954q-0.73017883 0.8212433 -1.6950226 0.99832153q-0.94384766 0.17016602 -2.017273 -0.37321472q-1.3522339 -0.68452454 -1.7239838 -1.9234924q-0.37174988 -1.2389679 0.38235474 -2.7311096q0.7893524 -1.5618591 2.0138855 -2.0102768q1.2455139 -0.45529938 2.5280457 0.19394684q1.2407074 0.628067 1.5985107 1.8599854q0.35780334 1.2319031 -0.41744995 2.7658844q-0.049331665 0.09761047 -0.14094543 0.27890015l-4.6003876 -2.3288116q-0.45872498 1.0462341 -0.2177887 1.8511963q0.24798584 0.7910309 1.0147095 1.1791687q0.58551025 0.29640198 1.1377869 0.20820618q0.5593262 -0.102142334 1.1275635 -0.63760376zm-2.5695496 -3.4373474l3.4433136 1.7430878q0.31793213 -0.8022766 0.19462585 -1.3550568q-0.1917572 -0.86764526 -0.9863739 -1.2698975q-0.7248993 -0.36695862 -1.4594879 -0.12586975q-0.7275543 0.22714233 -1.1920776 1.0077362zm3.5022278 7.0443115l0.9471741 0.65460205q-0.16992188 0.50942993 0.010070801 0.88075256q0.24937439 0.47650146 0.9185333 0.8152313q0.7248993 0.36697388 1.2632446 0.27171326q0.54522705 -0.07424927 0.9524536 -0.53359985q0.2457428 -0.2783966 0.7462921 -1.3034668q-1.0918579 0.4630432 -2.1095276 -0.052124023q-1.2825317 -0.6492462 -1.5144043 -1.9224854q-0.23187256 -1.2732239 0.41651917 -2.5561981q0.44400024 -0.87854004 1.1381683 -1.4553375q0.70121765 -0.59072876 1.5050354 -0.6916809q0.81777954 -0.09391785 1.640274 0.32244873q1.0873566 0.55044556 1.3543243 1.7889099l0.3735199 -0.7391052l0.9618988 0.48693848l-2.6922302 5.3270874q-0.72592163 1.4363556 -1.3217316 1.8878021q-0.6028595 0.46539307 -1.4203186 0.4894104q-0.8035126 0.031066895 -1.7375336 -0.4417572q-1.1013031 -0.5575104 -1.5306702 -1.4053345q-0.4154358 -0.8407593 0.09890747 -1.8238068zm2.7529602 -3.2648468q-0.6131592 1.2132263 -0.4210968 2.0109863q0.20600891 0.8047943 0.93092346 1.1717682q0.710968 0.35990906 1.4808044 0.049087524q0.76982117 -0.31082153 1.3688812 -1.4961548q0.5708771 -1.1295776 0.3579712 -1.9553833q-0.21290588 -0.82580566 -0.9238739 -1.1857147q-0.6830902 -0.34577942 -1.4599609 -0.021026611q-0.7698364 0.31082153 -1.3336487 1.4264374zm4.302414 6.188446l3.1151123 -6.163803l0.9479523 0.47987366l-0.4721985 0.9343262q0.69369507 -0.4719391 1.0921631 -0.5329132q0.41241455 -0.05392456 0.7888031 0.13661194q0.5297394 0.26815796 0.9042816 0.878067l-0.8487549 0.77874756q-0.27757263 -0.4207306 -0.6539612 -0.6112671q-0.34851074 -0.17642212 -0.7330475 -0.10838318q-0.37057495 0.07510376 -0.66534424 0.38121033q-0.46313477 0.4660797 -0.7943878 1.1215057l-1.635086 3.2352905l-1.0455322 -0.52926636zm8.390289 3.2841187q-0.8392334 0.20562744 -1.4886322 0.1395874q-0.6284027 -0.07293701 -1.2417908 -0.3834381q-1.0176544 -0.51516724 -1.3146667 -1.2784729q-0.28996277 -0.7772522 0.10470581 -1.5581818q0.2255249 -0.4462433 0.61099243 -0.7239685q0.3993988 -0.27067566 0.84672546 -0.32443237q0.44734192 -0.053741455 0.9289856 0.032455444q0.3419342 0.08552551 1.0115509 0.3194275q1.3461151 0.4887848 2.0512695 0.5830536q0.10572815 -0.20918274 0.13391113 -0.2649536q0.3242035 -0.6414795 0.1653595 -1.0546417q-0.22808838 -0.5532837 -1.0227051 -0.9555359q-0.7248993 -0.36695862 -1.2212677 -0.28549194q-0.4753723 0.07460022 -0.9739075 0.64533997l-0.9471741 -0.6546173q0.4706421 -0.5848541 0.9956665 -0.8269501q0.52500916 -0.2421112 1.2301788 -0.14782715q0.712204 0.080322266 1.5068207 0.48257446q0.79460144 0.4022522 1.1909027 0.83052063q0.4102478 0.4353485 0.48529053 0.8411102q0.09603882 0.39888 -0.024856567 0.88056946q-0.09208679 0.2861328 -0.44448853 0.98339844l-0.70477295 1.3945312q-0.73295593 1.4503021 -0.8605957 1.8760529q-0.12763977 0.42575073 -0.10865784 0.8731842l-1.0873718 -0.55044556q-0.0051879883 -0.40542603 0.17852783 -0.8728485zm1.0933228 -2.3712006q-0.69137573 -0.052261353 -1.9120178 -0.47753906q-0.69059753 -0.227005 -1.0189056 -0.23558044q-0.32125854 -0.022521973 -0.58735657 0.12297058q-0.252182 0.15255737 -0.38607788 0.417511q-0.21144104 0.41836548 -0.045700073 0.8525238q0.17967224 0.4412079 0.7930603 0.75172424q0.5994415 0.30345154 1.2073364 0.27842712q0.60787964 -0.025024414 1.0635071 -0.3722992q0.34347534 -0.26394653 0.6958618 -0.96121216l0.19029236 -0.37652588zm6.27417 4.226883l0.9611206 0.6616821q-0.70292664 0.97514343 -1.7030029 1.2219391q-1.0000763 0.24679565 -2.017746 -0.26835632q-1.2546387 -0.63513184 -1.6195068 -1.8530884q-0.3438568 -1.2248535 0.43139648 -2.7588348q0.50743103 -1.0040588 1.2225952 -1.587738q0.7151489 -0.58366394 1.5675354 -0.6075134q0.87338257 -0.030731201 1.667984 0.371521q1.0037231 0.5081024 1.3842316 1.3487091q0.38754272 0.8266449 0.096572876 1.8527222l-1.0951843 -0.36177063q0.1638031 -0.7051544 -0.057556152 -1.2024994q-0.2003479 -0.5042114 -0.716156 -0.7653198q-0.79460144 -0.4022522 -1.5854187 -0.08454895q-0.776886 0.3247528 -1.3900452 1.5379944q-0.6342926 1.2550659 -0.44223022 2.0528107q0.20602417 0.8048096 0.9727478 1.1929474q0.61338806 0.3105011 1.2079468 0.13864136q0.60850525 -0.16481018 1.1147156 -0.8892975zm4.468109 -4.077835l0.6131592 -1.2132416l1.0455322 0.5292816l-0.6131439 1.2132416l-1.0455475 -0.5292816zm-6.229599 9.035477l0.646225 -0.7937012q0.27835083 0.24598694 0.44563293 0.33067322q0.32063293 0.16230774 0.5867462 0.016815186q0.27301025 -0.12449646 0.70292664 -0.9751587l3.2701569 -6.4705963l1.0455322 0.5292816l-3.284256 6.498474q-0.5779114 1.1435089 -1.0961914 1.4415741q-0.68634033 0.38809204 -1.5506592 -0.049438477q-0.43215942 -0.21876526 -0.7661133 -0.5279236zm9.594894 0.88168335q-0.83921814 0.2056427 -1.488617 0.13960266q-0.62841797 -0.07293701 -1.2417908 -0.38345337q-1.0176697 -0.515152 -1.314682 -1.2784576q-0.28996277 -0.7772522 0.10472107 -1.558197q0.2255249 -0.4462433 0.6109772 -0.7239685q0.3993988 -0.2706604 0.8467407 -0.3244171q0.44734192 -0.053756714 0.9289856 0.032440186q0.3419342 0.08554077 1.0115356 0.3194275q1.3461151 0.4887848 2.0512848 0.58306885q0.10571289 -0.20918274 0.13391113 -0.26496887q0.32418823 -0.6414795 0.16534424 -1.0546417q-0.22808838 -0.5532837 -1.0226898 -0.95552063q-0.72491455 -0.36697388 -1.2212677 -0.28549194q-0.47538757 0.07458496 -0.9739075 0.6453247l-0.94718933 -0.65460205q0.47065735 -0.5848694 0.9956665 -0.82696533q0.5250244 -0.24209595 1.2301788 -0.14782715q0.712204 0.080322266 1.5068207 0.48257446q0.7946167 0.4022522 1.190918 0.8305359q0.41023254 0.43533325 0.48527527 0.841095q0.09603882 0.39888 -0.024856567 0.8805847q-0.09208679 0.2861328 -0.44447327 0.98339844l-0.70477295 1.394516q-0.7329712 1.4503021 -0.86061096 1.8760529q-0.12762451 0.42575073 -0.10865784 0.8731842l-1.0873566 -0.55044556q-0.0051879883 -0.40542603 0.17851257 -0.8728485zm1.093338 -2.3711853q-0.69137573 -0.05227661 -1.9120331 -0.47755432q-0.69059753 -0.227005 -1.0188904 -0.23558044q-0.32125854 -0.022521973 -0.5873718 0.12298584q-0.25216675 0.15254211 -0.38607788 0.417511q-0.21142578 0.41835022 -0.045700073 0.85250854q0.1796875 0.44122314 0.79307556 0.75172424q0.5994415 0.30345154 1.2073212 0.27842712q0.6078949 -0.025009155 1.0635223 -0.3722992q0.34347534 -0.26394653 0.6958618 -0.96121216l0.19029236 -0.37651062z" fill-rule="nonzero"/><path fill="#ffffff" d="m180.0133 155.21265l1.1634369 -7.151779l1.5752716 0.7974396l-0.8867798 4.6298523l3.117279 -3.5007324l1.5613403 0.79039l-1.0122528 4.56633l3.2288055 -3.444275l1.6031647 0.81155396l-5.0946655 5.1617126l-1.5613556 -0.79039l0.92814636 -4.503845l-3.047104 3.4311829l-1.5752869 -0.7974396zm8.408829 2.0500946l1.757904 0.574646q-0.12809753 0.5305939 0.06567383 0.94392395q0.20082092 0.39938354 0.77238464 0.6887207q0.6273346 0.31756592 1.06073 0.25674438q0.3076172 -0.0544281 0.44152832 -0.3193817q0.09866333 -0.1952362 0.036636353 -0.38426208q-0.055145264 -0.16801453 -0.43797302 -0.48440552q-1.7471313 -1.4273376 -2.0936432 -2.058075q-0.48512268 -0.87605286 -0.034072876 -1.7685547q0.4017334 -0.7948761 1.3039093 -1.021164q0.9161377 -0.21925354 2.2404938 0.45117188q1.2685852 0.6421814 1.6705322 1.371048q0.42294312 0.7219696 0.2372284 1.6437073l-1.6744232 -0.49736023q0.08566284 -0.41197205 -0.10153198 -0.7344055q-0.18014526 -0.33636475 -0.6959381 -0.5974884q-0.64126587 -0.32461548 -1.0117035 -0.2844696q-0.24465942 0.0337677 -0.34332275 0.2290039q-0.09162903 0.18128967 0.012237549 0.3914795q0.13157654 0.25924683 1.272995 1.2223511q1.1624146 0.9562073 1.4736786 1.6566772q0.28338623 0.6863556 -0.11129761 1.4672852q-0.42991638 0.85066223 -1.4509735 1.1043396q-1.0000916 0.24679565 -2.3941498 -0.45890808q-1.2546539 -0.6351166 -1.7397766 -1.5111694q-0.47808838 -0.8899994 -0.25712585 -1.8814545zm12.241974 0.66304016l-0.6554413 1.2969055l-1.1152496 -0.56455994l-1.2545013 2.482254q-0.38056946 0.7530365 -0.41612244 0.8926544q-0.021606445 0.14668274 0.04762268 0.28681946q0.069244385 0.14012146 0.23652649 0.22480774q0.22305298 0.11291504 0.7327423 0.17828369l-0.5019531 1.3395844q-0.69137573 -0.05227661 -1.416275 -0.41923523q-0.43215942 -0.21876526 -0.72413635 -0.5417023q-0.2709961 -0.32981873 -0.3184662 -0.6515808q-0.047470093 -0.32174683 0.08720398 -0.7614441q0.09913635 -0.30007935 0.5361023 -1.1646881l1.3602142 -2.6914215l-0.75279236 -0.38108826l0.6554413 -1.2969055l0.75279236 0.38108826l0.62020874 -1.2271881l2.11734 -0.1365509l-1.1065063 2.1894073l1.1152496 0.56455994zm2.5773773 6.576111l1.4900818 1.1045837q-0.75775146 0.73724365 -1.6804657 0.8655853q-0.9156494 0.11439514 -1.9193726 -0.39370728q-1.6171112 -0.8186035 -1.8552551 -2.2526398q-0.18347168 -1.1611633 0.46492004 -2.4441376q0.7752533 -1.5339661 2.0068207 -1.9963226q1.2455139 -0.455307 2.47229 0.16571045q1.3801117 0.6986542 1.7166138 2.0073395q0.33651733 1.3086853 -0.65675354 3.1701202l-4.0845795 -2.0677032q-0.35255432 0.7322235 -0.18054199 1.3271637q0.17201233 0.59495544 0.74357605 0.8842926q0.37638855 0.1905365 0.74697876 0.115448q0.3705902 -0.07510376 0.73568726 -0.48573303zm0.9292145 -1.5961304q0.3454895 -0.7182617 0.18022156 -1.2572632q-0.15821838 -0.552948 -0.66007996 -0.80700684q-0.52975464 -0.26815796 -1.075592 -0.054122925q-0.54585266 0.2140503 -0.8841553 0.8834076l2.4396057 1.2349854zm-1.9647827 3.5412445q-0.1538086 0.02722168 -0.3007202 0.07543945q-0.1400299 0.06921387 -0.27316284 0.15943909q-0.1191864 0.09727478 -0.22444153 0.20161438q-0.091308594 0.11138916 -0.14768982 0.22296143q-0.09867859 0.19522095 -0.06451416 0.37013245q0.048095703 0.18196106 0.28507996 0.30192566q0.097579956 0.04940796 0.2441864 0.07107544q0.15350342 0.04269409 0.27912903 0.071258545l-0.4862976 0.96221924q-0.60772705 -0.009933472 -0.99806213 -0.20751953q-0.32063293 -0.162323 -0.5083008 -0.37989807q-0.19470215 -0.2036438 -0.28445435 -0.44172668q-0.08287048 -0.21708679 -0.060791016 -0.4685974q0.028961182 -0.23051453 0.14172363 -0.4536438q0.17619324 -0.3486328 0.55459595 -0.6124115q0.39234924 -0.25671387 0.8678894 -0.3662567l0.9758301 0.49398804zm6.1597137 -4.6225586l1.519516 0.7692108l-0.45809937 0.90644836q0.53237915 -0.325943 1.1751862 -0.35079956q0.6638031 -0.03173828 1.2771912 0.27876282q1.0734253 0.543396 1.3894043 1.7541351q0.32992554 1.2177887 -0.43122864 2.723877q-0.78230286 1.5479126 -1.9720459 2.0314484q-1.1827087 0.46957397 -2.256134 -0.07380676q-0.51579285 -0.2611084 -0.8353424 -0.6680603q-0.29856873 -0.41383362 -0.5048828 -1.1487427l-1.5716553 3.1098022l-1.6310425 -0.8256836l4.2991333 -8.506592zm0.11593628 3.7889557q-0.5285797 1.0458832 -0.3780365 1.7525635q0.17155457 0.6997986 0.75704956 0.99620056q0.5715637 0.28933716 1.1734924 0.033615112q0.6089783 -0.26965332 1.137558 -1.3155365q0.4862976 -0.96221924 0.3355713 -1.6339569q-0.15071106 -0.6717377 -0.7222748 -0.9610748q-0.5994415 -0.30345154 -1.2223511 -0.04084778q-0.62290955 0.2625885 -1.0810089 1.1690369zm9.692505 8.917023l-1.6310425 -0.8256836l1.5927887 -3.1516113q0.5003967 -0.9901123 0.5368805 -1.3394318q0.05041504 -0.34223938 -0.102005005 -0.6295471q-0.15242004 -0.287323 -0.48698425 -0.4566803q-0.41822815 -0.2117157 -0.8865509 -0.15107727q-0.45437622 0.06770325 -0.77719116 0.39465332q-0.31575012 0.3130188 -0.8372803 1.3449554l-1.4095459 2.7890625l-1.6310577 -0.8256836l3.1151123 -6.163788l1.519516 0.7692108l-0.45809937 0.90644836q1.337143 -0.6365967 2.5639038 -0.015579224q0.5436859 0.27522278 0.8911133 0.69628906q0.34742737 0.42105103 0.4154358 0.8407593q0.088974 0.41281128 -0.024719238 0.84562683q-0.09269714 0.42591858 -0.45213318 1.1371307l-1.9381409 3.8349457zm5.036072 -2.827118l-1.3506775 -1.0340118q0.7019806 -0.7654724 1.5267944 -0.87332153q0.83187866 -0.121795654 2.0307617 0.48510742q1.0873566 0.55044556 1.4832001 1.0835724q0.41682434 0.5262451 0.4215393 1.0365143q0.02571106 0.5033722 -0.5099182 1.5632172l-0.9794769 1.9034424q-0.4087677 0.80882263 -0.5364075 1.2345734q-0.10664368 0.41886902 -0.10913086 0.97802734l-1.617096 -0.8186188q0.014862061 -0.20262146 0.093322754 -0.56570435q0.028656006 -0.16062927 0.021911621 -0.21658325q-0.62260437 0.19270325 -1.2022858 0.16194153q-0.57266235 -0.044692993 -1.116333 -0.31991577q-0.9479675 -0.47988892 -1.244812 -1.2781372q-0.2829132 -0.79119873 0.11880493 -1.5860748q0.26075745 -0.51597595 0.7160797 -0.7933655q0.46235657 -0.2913208 1.0141754 -0.27468872q0.5727997 0.009765625 1.5077515 0.27290344q1.2488403 0.36949158 1.7796631 0.39302063l0.07752991 -0.1533966q0.23962402 -0.47413635 0.1013031 -0.78933716q-0.11732483 -0.32209778 -0.7585907 -0.64671326q-0.43215942 -0.21876526 -0.77471924 -0.164505q-0.32156372 0.04737854 -0.6933899 0.40205383zm1.505188 2.4256897q-0.35601807 -0.057647705 -1.1166382 -0.25003052q-0.7535553 -0.2063446 -1.0331421 -0.17274475q-0.4333954 0.060806274 -0.6095886 0.4094391q-0.17619324 0.3486328 -0.052124023 0.7266693q0.13800049 0.38510132 0.5283356 0.58270264q0.44610596 0.22581482 0.99838257 0.13761902q0.40551758 -0.074920654 0.66519165 -0.3462677q0.16148376 -0.18095398 0.457489 -0.76664734l0.16209412 -0.32073975z" fill-rule="nonzero"/><path fill="#000000" d="m220.76378 253.79527l10.462067 -2.243805l2.2465973 -10.449112l2.2465973 10.449112l10.462067 2.243805l-10.462067 2.2438202l-2.2465973 10.449097l-2.2465973 -10.449097z" fill-rule="evenodd"/><path stroke="#ffffff" stroke-width="1.0" stroke-linejoin="round" stroke-linecap="butt" d="m220.76378 253.79527l10.462067 -2.243805l2.2465973 -10.449112l2.2465973 10.449112l10.462067 2.243805l-10.462067 2.2438202l-2.2465973 10.449097l-2.2465973 -10.449097z" fill-rule="evenodd"/><path fill="#000000" d="m96.55643 253.79527l10.462067 -2.243805l2.2465973 -10.449112l2.2465973 10.449112l10.462067 2.243805l-10.462067 2.2438202l-2.2465973 10.449097l-2.2465973 -10.449097z" fill-rule="evenodd"/><path stroke="#ffffff" stroke-width="1.0" stroke-linejoin="round" stroke-linecap="butt" d="m96.55643 253.79527l10.462067 -2.243805l2.2465973 -10.449112l2.2465973 10.449112l10.462067 2.243805l-10.462067 2.2438202l-2.2465973 10.449097l-2.2465973 -10.449097z" fill-rule="evenodd"/><path fill="#000000" fill-opacity="0.0" d="m96.4651 216.8059l40.566925 0l0 32.692917l-40.566925 0z" fill-rule="evenodd"/><path fill="#ffffff" d="m105.9026 232.28027q0 -1.34375 0.28125 -2.171875q0.28125 -0.828125 0.828125 -1.265625q0.546875 -0.453125 1.375 -0.453125q0.625 0 1.078125 0.25q0.46875 0.234375 0.765625 0.703125q0.3125 0.46875 0.484375 1.140625q0.171875 0.671875 0.171875 1.796875q0 1.34375 -0.28125 2.171875q-0.28125 0.828125 -0.828125 1.28125q-0.546875 0.4375 -1.390625 0.4375q-1.09375 0 -1.71875 -0.78125q-0.765625 -0.953125 -0.765625 -3.109375zm0.96875 0q0 1.875 0.4375 2.5q0.4375 0.625 1.078125 0.625q0.65625 0 1.09375 -0.625q0.4375 -0.625 0.4375 -2.5q0 -1.875 -0.4375 -2.5q-0.4375 -0.625 -1.09375 -0.625q-0.640625 0 -1.03125 0.546875q-0.484375 0.703125 -0.484375 2.578125zm8.168396 3.765625l0 -7.625l0.9375 0l0 7.625l-0.9375 0zm5.9924774 -0.6875q-0.53125 0.453125 -1.015625 0.640625q-0.46875 0.171875 -1.015625 0.171875q-0.921875 0 -1.40625 -0.4375q-0.484375 -0.453125 -0.484375 -1.140625q0 -0.40625 0.171875 -0.734375q0.1875 -0.34375 0.484375 -0.546875q0.3125 -0.203125 0.6875 -0.3125q0.265625 -0.0625 0.828125 -0.140625q1.125 -0.125 1.671875 -0.3125q0 -0.203125 0 -0.25q0 -0.578125 -0.265625 -0.8125q-0.359375 -0.3125 -1.0625 -0.3125q-0.65625 0 -0.984375 0.234375q-0.3125 0.234375 -0.453125 0.8125l-0.921875 -0.125q0.125 -0.578125 0.40625 -0.9375q0.296875 -0.375 0.828125 -0.5625q0.546875 -0.203125 1.25 -0.203125q0.71875 0 1.15625 0.171875q0.4375 0.171875 0.640625 0.421875q0.21875 0.25 0.296875 0.640625q0.046875 0.234375 0.046875 0.859375l0 1.25q0 1.296875 0.0625 1.65625q0.0625 0.34375 0.234375 0.65625l-0.96875 0q-0.15625 -0.296875 -0.1875 -0.6875zm-0.078125 -2.078125q-0.515625 0.203125 -1.53125 0.34375q-0.578125 0.078125 -0.828125 0.1875q-0.234375 0.109375 -0.359375 0.3125q-0.125 0.1875 -0.125 0.4375q0 0.375 0.28125 0.625q0.28125 0.25 0.828125 0.25q0.53125 0 0.953125 -0.234375q0.421875 -0.234375 0.625 -0.65625q0.15625 -0.3125 0.15625 -0.9375l0 -0.328125zm4.4421234 1.921875l0.125 0.828125q-0.390625 0.09375 -0.703125 0.09375q-0.5 0 -0.78125 -0.15625q-0.28125 -0.171875 -0.40625 -0.4375q-0.109375 -0.265625 -0.109375 -1.109375l0 -3.171875l-0.6875 0l0 -0.734375l0.6875 0l0 -1.359375l0.9375 -0.5625l0 1.921875l0.9375 0l0 0.734375l-0.9375 0l0 3.234375q0 0.390625 0.046875 0.515625q0.046875 0.109375 0.15625 0.1875q0.109375 0.0625 0.328125 0.0625q0.15625 0 0.40625 -0.046875z" fill-rule="nonzero"/><path fill="#000000" fill-opacity="0.0" d="m211.37389 216.80577l55.181107 0l0 32.692917l-55.181107 0z" fill-rule="evenodd"/><path fill="#ffffff" d="m220.82701 233.15515l0 -1.078125q0.546875 -0.625 1.453125 -0.625q0.3125 0 0.640625 0.09375q0.34375 0.09375 0.984375 0.359375q0.359375 0.15625 0.53125 0.203125q0.1875 0.046875 0.375 0.046875q0.328125 0 0.6875 -0.203125q0.375 -0.203125 0.65625 -0.515625l0 1.109375q-0.34375 0.3125 -0.6875 0.453125q-0.328125 0.140625 -0.765625 0.140625q-0.3125 0 -0.59375 -0.0625q-0.28125 -0.078125 -0.90625 -0.359375q-0.609375 -0.28125 -1.015625 -0.28125q-0.328125 0 -0.625 0.15625q-0.296875 0.140625 -0.734375 0.5625zm12.699356 2.890625l-0.9375 0l0 -5.96875q-0.34375 0.328125 -0.890625 0.65625q-0.546875 0.3125 -0.984375 0.46875l0 -0.90625q0.796875 -0.359375 1.375 -0.890625q0.59375 -0.53125 0.828125 -1.015625l0.609375 0l0 7.65625zm2.3952484 -3.765625q0 -1.34375 0.28125 -2.171875q0.28125 -0.828125 0.828125 -1.265625q0.546875 -0.453125 1.375 -0.453125q0.625 0 1.078125 0.25q0.46875 0.234375 0.765625 0.703125q0.3125 0.46875 0.484375 1.140625q0.171875 0.671875 0.171875 1.796875q0 1.34375 -0.28125 2.171875q-0.28125 0.828125 -0.828125 1.28125q-0.546875 0.4375 -1.390625 0.4375q-1.09375 0 -1.71875 -0.78125q-0.765625 -0.953125 -0.765625 -3.109375zm0.96875 0q0 1.875 0.4375 2.5q0.4375 0.625 1.078125 0.625q0.65625 0 1.09375 -0.625q0.4375 -0.625 0.4375 -2.5q0 -1.875 -0.4375 -2.5q-0.4375 -0.625 -1.09375 -0.625q-0.640625 0 -1.03125 0.546875q-0.484375 0.703125 -0.484375 2.578125zm8.168396 3.765625l0 -7.625l0.9375 0l0 7.625l-0.9375 0zm5.9924774 -0.6875q-0.53125 0.453125 -1.015625 0.640625q-0.46875 0.171875 -1.015625 0.171875q-0.921875 0 -1.40625 -0.4375q-0.484375 -0.453125 -0.484375 -1.140625q0 -0.40625 0.171875 -0.734375q0.1875 -0.34375 0.484375 -0.546875q0.3125 -0.203125 0.6875 -0.3125q0.265625 -0.0625 0.828125 -0.140625q1.125 -0.125 1.671875 -0.3125q0 -0.203125 0 -0.25q0 -0.578125 -0.265625 -0.8125q-0.359375 -0.3125 -1.0625 -0.3125q-0.65625 0 -0.984375 0.234375q-0.3125 0.234375 -0.453125 0.8125l-0.921875 -0.125q0.125 -0.578125 0.40625 -0.9375q0.296875 -0.375 0.828125 -0.5625q0.546875 -0.203125 1.25 -0.203125q0.71875 0 1.15625 0.171875q0.4375 0.171875 0.640625 0.421875q0.21875 0.25 0.296875 0.640625q0.046875 0.234375 0.046875 0.859375l0 1.25q0 1.296875 0.0625 1.65625q0.0625 0.34375 0.234375 0.65625l-0.96875 0q-0.15625 -0.296875 -0.1875 -0.6875zm-0.078125 -2.078125q-0.515625 0.203125 -1.53125 0.34375q-0.578125 0.078125 -0.828125 0.1875q-0.234375 0.109375 -0.359375 0.3125q-0.125 0.1875 -0.125 0.4375q0 0.375 0.28125 0.625q0.28125 0.25 0.828125 0.25q0.53125 0 0.953125 -0.234375q0.421875 -0.234375 0.625 -0.65625q0.15625 -0.3125 0.15625 -0.9375l0 -0.328125zm4.4421234 1.921875l0.125 0.828125q-0.390625 0.09375 -0.703125 0.09375q-0.5 0 -0.78125 -0.15625q-0.28125 -0.171875 -0.40625 -0.4375q-0.109375 -0.265625 -0.109375 -1.109375l0 -3.171875l-0.6875 0l0 -0.734375l0.6875 0l0 -1.359375l0.9375 -0.5625l0 1.921875l0.9375 0l0 0.734375l-0.9375 0l0 3.234375q0 0.390625 0.046875 0.515625q0.046875 0.109375 0.15625 0.1875q0.109375 0.0625 0.328125 0.0625q0.15625 0 0.40625 -0.046875z" fill-rule="nonzero"/><path fill="#ffffff" d="m284.7638 253.79527l10.462067 -2.243805l2.246582 -10.449112l2.246582 10.449112l10.462067 2.243805l-10.462067 2.2438202l-2.246582 10.449097l-2.246582 -10.449097z" fill-rule="evenodd"/><path stroke="#ffffff" stroke-width="1.0" stroke-linejoin="round" stroke-linecap="butt" d="m284.7638 253.79527l10.462067 -2.243805l2.246582 -10.449112l2.246582 10.449112l10.462067 2.243805l-10.462067 2.2438202l-2.246582 10.449097l-2.246582 -10.449097z" fill-rule="evenodd"/><path fill="#000000" fill-opacity="0.0" d="m285.3737 216.80577l61.637787 0l0 32.692917l-61.637787 0z" fill-rule="evenodd"/><path fill="#ffffff" d="m298.34244 236.04578l-0.9375 0l0 -5.96875q-0.34375 0.328125 -0.890625 0.65625q-0.546875 0.3125 -0.984375 0.46875l0 -0.90625q0.796875 -0.359375 1.375 -0.890625q0.59375 -0.53125 0.828125 -1.015625l0.609375 0l0 7.65625zm2.4108582 -2.015625l0.9375 -0.125q0.15625 0.796875 0.546875 1.15625q0.390625 0.34375 0.9375 0.34375q0.65625 0 1.109375 -0.453125q0.46875 -0.46875 0.46875 -1.140625q0 -0.640625 -0.421875 -1.0625q-0.421875 -0.421875 -1.078125 -0.421875q-0.265625 0 -0.65625 0.109375l0.109375 -0.828125q0.09375 0.015625 0.140625 0.015625q0.59375 0 1.078125 -0.3125q0.484375 -0.3125 0.484375 -0.96875q0 -0.515625 -0.359375 -0.84375q-0.34375 -0.34375 -0.890625 -0.34375q-0.546875 0 -0.921875 0.34375q-0.359375 0.34375 -0.453125 1.03125l-0.9375 -0.171875q0.171875 -0.9375 0.78125 -1.453125q0.609375 -0.515625 1.5 -0.515625q0.625 0 1.15625 0.265625q0.53125 0.265625 0.796875 0.734375q0.28125 0.453125 0.28125 0.984375q0 0.484375 -0.265625 0.890625q-0.265625 0.40625 -0.78125 0.65625q0.671875 0.15625 1.046875 0.65625q0.375 0.484375 0.375 1.21875q0 1.0 -0.734375 1.703125q-0.71875 0.6875 -1.828125 0.6875q-1.0 0 -1.671875 -0.59375q-0.65625 -0.609375 -0.75 -1.5625zm5.8171387 -0.28125l0 -0.9375l2.875 0l0 0.9375l-2.875 0zm7.1736145 2.296875l-0.9375 0l0 -5.96875q-0.34375 0.328125 -0.890625 0.65625q-0.546875 0.3125 -0.984375 0.46875l0 -0.90625q0.796875 -0.359375 1.375 -0.890625q0.59375 -0.53125 0.828125 -1.015625l0.609375 0l0 7.65625zm2.3952332 -2.0l0.984375 -0.078125q0.109375 0.71875 0.5 1.078125q0.40625 0.359375 0.96875 0.359375q0.671875 0 1.140625 -0.5q0.46875 -0.515625 0.46875 -1.359375q0 -0.796875 -0.453125 -1.265625q-0.4375 -0.46875 -1.171875 -0.46875q-0.453125 0 -0.8125 0.21875q-0.359375 0.203125 -0.578125 0.53125l-0.875 -0.125l0.734375 -3.921875l3.796875 0l0 0.90625l-3.046875 0l-0.40625 2.046875q0.6875 -0.484375 1.4375 -0.484375q1.0 0 1.6875 0.703125q0.6875 0.6875 0.6875 1.765625q0 1.046875 -0.609375 1.796875q-0.734375 0.921875 -2.0 0.921875q-1.03125 0 -1.703125 -0.578125q-0.65625 -0.578125 -0.75 -1.546875zm9.137146 2.0l0 -7.625l0.9375 0l0 7.625l-0.9375 0zm5.9924927 -0.6875q-0.53125 0.453125 -1.015625 0.640625q-0.46875 0.171875 -1.015625 0.171875q-0.921875 0 -1.40625 -0.4375q-0.484375 -0.453125 -0.484375 -1.140625q0 -0.40625 0.171875 -0.734375q0.1875 -0.34375 0.484375 -0.546875q0.3125 -0.203125 0.6875 -0.3125q0.265625 -0.0625 0.828125 -0.140625q1.125 -0.125 1.671875 -0.3125q0 -0.203125 0 -0.25q0 -0.578125 -0.265625 -0.8125q-0.359375 -0.3125 -1.0625 -0.3125q-0.65625 0 -0.984375 0.234375q-0.3125 0.234375 -0.453125 0.8125l-0.921875 -0.125q0.125 -0.578125 0.40625 -0.9375q0.296875 -0.375 0.828125 -0.5625q0.546875 -0.203125 1.25 -0.203125q0.71875 0 1.15625 0.171875q0.4375 0.171875 0.640625 0.421875q0.21875 0.25 0.296875 0.640625q0.046875 0.234375 0.046875 0.859375l0 1.25q0 1.296875 0.0625 1.65625q0.0625 0.34375 0.234375 0.65625l-0.96875 0q-0.15625 -0.296875 -0.1875 -0.6875zm-0.078125 -2.078125q-0.515625 0.203125 -1.53125 0.34375q-0.578125 0.078125 -0.828125 0.1875q-0.234375 0.109375 -0.359375 0.3125q-0.125 0.1875 -0.125 0.4375q0 0.375 0.28125 0.625q0.28125 0.25 0.828125 0.25q0.53125 0 0.953125 -0.234375q0.421875 -0.234375 0.625 -0.65625q0.15625 -0.3125 0.15625 -0.9375l0 -0.328125zm4.442108 1.921875l0.125 0.828125q-0.390625 0.09375 -0.703125 0.09375q-0.5 0 -0.78125 -0.15625q-0.28125 -0.171875 -0.40625 -0.4375q-0.109375 -0.265625 -0.109375 -1.109375l0 -3.171875l-0.6875 0l0 -0.734375l0.6875 0l0 -1.359375l0.9375 -0.5625l0 1.921875l0.9375 0l0 0.734375l-0.9375 0l0 3.234375q0 0.390625 0.046875 0.515625q0.046875 0.109375 0.15625 0.1875q0.109375 0.0625 0.328125 0.0625q0.15625 0 0.40625 -0.046875z" fill-rule="nonzero"/><path fill="#000000" fill-opacity="0.0" d="m675.8387 216.80577l61.637756 0l0 32.692917l-61.637756 0z" fill-rule="evenodd"/><path fill="#ffffff" d="m685.2918 233.15515l0 -1.078125q0.546875 -0.625 1.453125 -0.625q0.3125 0 0.640625 0.09375q0.34375 0.09375 0.984375 0.359375q0.359375 0.15625 0.53125 0.203125q0.1875 0.046875 0.375 0.046875q0.328125 0 0.6875 -0.203125q0.375 -0.203125 0.65625 -0.515625l0 1.109375q-0.34375 0.3125 -0.6875 0.453125q-0.328125 0.140625 -0.765625 0.140625q-0.3125 0 -0.59375 -0.0625q-0.28125 -0.078125 -0.90625 -0.359375q-0.609375 -0.28125 -1.015625 -0.28125q-0.328125 0 -0.625 0.15625q-0.296875 0.140625 -0.734375 0.5625zm12.699341 2.890625l-0.9375 0l0 -5.96875q-0.34375 0.328125 -0.890625 0.65625q-0.546875 0.3125 -0.984375 0.46875l0 -0.90625q0.796875 -0.359375 1.375 -0.890625q0.59375 -0.53125 0.828125 -1.015625l0.609375 0l0 7.65625zm2.3952637 -3.765625q0 -1.34375 0.28125 -2.171875q0.28125 -0.828125 0.828125 -1.265625q0.546875 -0.453125 1.375 -0.453125q0.625 0 1.078125 0.25q0.46875 0.234375 0.765625 0.703125q0.3125 0.46875 0.484375 1.140625q0.171875 0.671875 0.171875 1.796875q0 1.34375 -0.28125 2.171875q-0.28125 0.828125 -0.828125 1.28125q-0.546875 0.4375 -1.390625 0.4375q-1.09375 0 -1.71875 -0.78125q-0.765625 -0.953125 -0.765625 -3.109375zm0.96875 0q0 1.875 0.4375 2.5q0.4375 0.625 1.078125 0.625q0.65625 0 1.09375 -0.625q0.4375 -0.625 0.4375 -2.5q0 -1.875 -0.4375 -2.5q-0.4375 -0.625 -1.09375 -0.625q-0.640625 0 -1.03125 0.546875q-0.484375 0.703125 -0.484375 2.578125zm8.488953 3.765625l-0.9375 0l0 -5.96875q-0.34375 0.328125 -0.890625 0.65625q-0.546875 0.3125 -0.984375 0.46875l0 -0.90625q0.796875 -0.359375 1.375 -0.890625q0.59375 -0.53125 0.828125 -1.015625l0.609375 0l0 7.65625zm5.605896 0l0 -7.625l0.9375 0l0 7.625l-0.9375 0zm5.9924927 -0.6875q-0.53125 0.453125 -1.015625 0.640625q-0.46875 0.171875 -1.015625 0.171875q-0.921875 0 -1.40625 -0.4375q-0.484375 -0.453125 -0.484375 -1.140625q0 -0.40625 0.171875 -0.734375q0.1875 -0.34375 0.484375 -0.546875q0.3125 -0.203125 0.6875 -0.3125q0.265625 -0.0625 0.828125 -0.140625q1.125 -0.125 1.671875 -0.3125q0 -0.203125 0 -0.25q0 -0.578125 -0.265625 -0.8125q-0.359375 -0.3125 -1.0625 -0.3125q-0.65625 0 -0.984375 0.234375q-0.3125 0.234375 -0.453125 0.8125l-0.921875 -0.125q0.125 -0.578125 0.40625 -0.9375q0.296875 -0.375 0.828125 -0.5625q0.546875 -0.203125 1.25 -0.203125q0.71875 0 1.15625 0.171875q0.4375 0.171875 0.640625 0.421875q0.21875 0.25 0.296875 0.640625q0.046875 0.234375 0.046875 0.859375l0 1.25q0 1.296875 0.0625 1.65625q0.0625 0.34375 0.234375 0.65625l-0.96875 0q-0.15625 -0.296875 -0.1875 -0.6875zm-0.078125 -2.078125q-0.515625 0.203125 -1.53125 0.34375q-0.578125 0.078125 -0.828125 0.1875q-0.234375 0.109375 -0.359375 0.3125q-0.125 0.1875 -0.125 0.4375q0 0.375 0.28125 0.625q0.28125 0.25 0.828125 0.25q0.53125 0 0.953125 -0.234375q0.421875 -0.234375 0.625 -0.65625q0.15625 -0.3125 0.15625 -0.9375l0 -0.328125zm4.4421387 1.921875l0.125 0.828125q-0.390625 0.09375 -0.703125 0.09375q-0.5 0 -0.78125 -0.15625q-0.28125 -0.171875 -0.40625 -0.4375q-0.109375 -0.265625 -0.109375 -1.109375l0 -3.171875l-0.6875 0l0 -0.734375l0.6875 0l0 -1.359375l0.9375 -0.5625l0 1.921875l0.9375 0l0 0.734375l-0.9375 0l0 3.234375q0 0.390625 0.046875 0.515625q0.046875 0.109375 0.15625 0.1875q0.109375 0.0625 0.328125 0.0625q0.15625 0 0.40625 -0.046875z" fill-rule="nonzero"/><path fill="#000000" d="m685.29285 253.79527l10.462097 -2.243805l2.246582 -10.449112l2.246582 10.449112l10.462097 2.243805l-10.462097 2.2438202l-2.246582 10.449097l-2.246582 -10.449097z" fill-rule="evenodd"/><path stroke="#ffffff" stroke-width="1.0" stroke-linejoin="round" stroke-linecap="butt" d="m685.29285 253.79527l10.462097 -2.243805l2.246582 -10.449112l2.246582 10.449112l10.462097 2.243805l-10.462097 2.2438202l-2.246582 10.449097l-2.246582 -10.449097z" fill-rule="evenodd"/></g></svg>