<svg version="1.1" viewBox="0.0 0.0 786.2073490813648 287.93175853018374" fill="none" stroke="none" stroke-linecap="square" stroke-miterlimit="10" xmlns:xlink="http://www.w3.org/1999/xlink" xmlns="http://www.w3.org/2000/svg"><clipPath id="p.0"><path d="m0 0l786.20734 0l0 287.93176l-786.20734 0l0 -287.93176z" clip-rule="nonzero"/></clipPath><g clip-path="url(#p.0)"><path fill="#000000" fill-opacity="0.0" d="m0 0l786.20734 0l0 287.93176l-786.20734 0z" fill-rule="evenodd"/><path stroke="#ffffff" stroke-width="1.3333333333333333" stroke-linecap="butt" d="m109.59843 46.863518l0 32.666664" fill-rule="nonzero"/><path stroke="#ffffff" stroke-width="1.3333333333333333" stroke-linecap="butt" d="m171.99738 78.19685l0 32.666664" fill-rule="nonzero"/><path stroke="#ffffff" stroke-width="1.3333333333333333" stroke-linecap="butt" d="m234.39633 109.53018l0 32.66667" fill-rule="nonzero"/><path stroke="#ffffff" stroke-width="1.3333333333333333" stroke-linecap="butt" d="m296.7953 140.86351l0 32.66667" fill-rule="nonzero"/><path stroke="#ffffff" stroke-width="1.3333333333333333" stroke-linecap="butt" d="m108.931755 47.53018l125.46458 0" fill-rule="nonzero"/><path stroke="#ffffff" stroke-width="2.0" stroke-linecap="butt" stroke-dasharray="2.0,6.0" d="m234.39633 47.53018l499.85825 0" fill-rule="nonzero"/><path stroke="#ffffff" stroke-width="1.3333333333333333" stroke-linecap="butt" d="m108.931755 78.86352l187.86353 0" fill-rule="nonzero"/><path stroke="#ffffff" stroke-width="2.0" stroke-linecap="butt" stroke-dasharray="2.0,6.0" d="m296.7953 78.86352l437.4593 0" fill-rule="nonzero"/><path stroke="#ffffff" stroke-width="1.3333333333333333" stroke-linecap="butt" d="m171.3307 110.19685l187.86351 0" fill-rule="nonzero"/><path stroke="#ffffff" stroke-width="2.0" stroke-linecap="butt" stroke-dasharray="2.0,6.0" d="m359.1942 110.19685l374.39374 0" fill-rule="nonzero"/><path stroke="#ffffff" stroke-width="1.3333333333333333" stroke-linecap="butt" d="m233.72966 141.53018l187.86351 0" fill-rule="nonzero"/><path stroke="#ffffff" stroke-width="2.0" stroke-linecap="butt" stroke-dasharray="2.0,6.0" d="m421.59317 141.53018l311.99478 0" fill-rule="nonzero"/><path stroke="#ffffff" stroke-width="1.3333333333333333" stroke-linecap="butt" d="m296.1286 172.86351l187.86353 0" fill-rule="nonzero"/><path stroke="#ffffff" stroke-width="2.0" stroke-linecap="butt" stroke-dasharray="2.0,6.0" d="m483.99213 172.86351l249.59583 0" fill-rule="nonzero"/><path fill="#ffffff" d="m115.75468 67.61018l0 -1.90625l5.515625 -6.8125l-4.890625 0l0 -1.765625l7.671875 0l0 1.640625l-5.734375 7.078125l5.96875 0l0 1.765625l-8.53125 0zm11.358871 -5.28125l-1.828125 -0.328125q0.296875 -1.109375 1.046875 -1.625q0.765625 -0.53125 2.2343674 -0.53125q1.359375 0 2.015625 0.3125q0.65625 0.3125 0.921875 0.8125q0.265625 0.484375 0.265625 1.796875l-0.015625 2.34375q0 1.0 0.09375 1.484375q0.09375 0.46875 0.359375 1.015625l-1.984375 0q-0.078125 -0.203125 -0.203125 -0.59375q-0.046875 -0.171875 -0.0625 -0.234375q-0.515625 0.5 -1.109375 0.75q-0.578125 0.25 -1.2499924 0.25q-1.171875 0 -1.859375 -0.640625q-0.671875 -0.640625 -0.671875 -1.609375q0 -0.640625 0.3125 -1.140625q0.3125 -0.515625 0.859375 -0.78125q0.5625 -0.265625 1.609375 -0.46875q1.4062424 -0.265625 1.9531174 -0.484375l0 -0.203125q0 -0.578125 -0.296875 -0.828125q-0.28125 -0.25 -1.078125 -0.25q-0.5312424 0 -0.8437424 0.21875q-0.296875 0.203125 -0.46875 0.734375zm2.6874924 1.625q-0.390625 0.140625 -1.234375 0.328125q-0.8281174 0.171875 -1.0937424 0.34375q-0.390625 0.265625 -0.390625 0.703125q0 0.421875 0.3125 0.734375q0.3125 0.296875 0.8124924 0.296875q0.53125 0 1.03125 -0.359375q0.359375 -0.265625 0.484375 -0.65625q0.078125 -0.265625 0.078125 -0.984375l0 -0.40625zm10.572983 -1.703125l-1.96875 0.359375q-0.109375 -0.59375 -0.46875 -0.890625q-0.34375 -0.296875 -0.90625 -0.296875q-0.75 0 -1.203125 0.515625q-0.453125 0.515625 -0.453125 1.734375q0 1.359375 0.453125 1.921875q0.453125 0.546875 1.21875 0.546875q0.578125 0 0.9375 -0.328125q0.375 -0.328125 0.515625 -1.109375l1.984375 0.328125q-0.3125 1.359375 -1.1875 2.0625q-0.875 0.6875 -2.328125 0.6875q-1.671875 0 -2.671875 -1.046875q-0.984375 -1.0625 -0.984375 -2.921875q0 -1.875 0.984375 -2.921875q1.0 -1.046875 2.703125 -1.046875q1.390625 0 2.203125 0.59375q0.828125 0.59375 1.171875 1.8125zm3.5417328 -5.125l0 3.84375q0.96875 -1.125 2.3125 -1.125q0.703125 0 1.25 0.265625q0.5625 0.25 0.84375 0.65625q0.28125 0.390625 0.390625 0.875q0.109375 0.484375 0.109375 1.515625l0 4.453125l-2.015625 0l0 -4.015625q0 -1.1875 -0.125 -1.515625q-0.109375 -0.328125 -0.40625 -0.515625q-0.28125 -0.1875 -0.71875 -0.1875q-0.5 0 -0.890625 0.25q-0.390625 0.234375 -0.578125 0.734375q-0.171875 0.484375 -0.171875 1.4375l0 3.8125l-2.015625 0l0 -10.484375l2.015625 0zm6.4838715 6.578125q0 -1.0 0.484375 -1.9375q0.5 -0.9375 1.40625 -1.421875q0.90625 -0.5 2.015625 -0.5q1.71875 0 2.828125 1.125q1.109375 1.109375 1.109375 2.8125q0 1.734375 -1.125 2.875q-1.109375 1.125 -2.796875 1.125q-1.046875 0 -2.0 -0.46875q-0.9375 -0.46875 -1.4375 -1.375q-0.484375 -0.921875 -0.484375 -2.234375zm2.046875 0.109375q0 1.125 0.53125 1.734375q0.546875 0.59375 1.34375 0.59375q0.78125 0 1.3125 -0.59375q0.53125 -0.609375 0.53125 -1.75q0 -1.125 -0.53125 -1.71875q-0.53125 -0.609375 -1.3125 -0.609375q-0.796875 0 -1.34375 0.609375q-0.53125 0.59375 -0.53125 1.734375zm8.780746 3.796875l-2.40625 -7.59375l1.953125 0l1.421875 4.96875l1.3125 -4.96875l1.9375 0l1.265625 4.96875l1.453125 -4.96875l1.984375 0l-2.4375 7.59375l-1.9375 0l-1.3125 -4.890625l-1.28125 4.890625l-1.953125 0zm11.493851 -5.28125l-1.828125 -0.328125q0.296875 -1.109375 1.046875 -1.625q0.765625 -0.53125 2.234375 -0.53125q1.359375 0 2.015625 0.3125q0.65625 0.3125 0.921875 0.8125q0.265625 0.484375 0.265625 1.796875l-0.015625 2.34375q0 1.0 0.09375 1.484375q0.09375 0.46875 0.359375 1.015625l-1.984375 0q-0.078125 -0.203125 -0.203125 -0.59375q-0.046875 -0.171875 -0.0625 -0.234375q-0.515625 0.5 -1.109375 0.75q-0.578125 0.25 -1.25 0.25q-1.171875 0 -1.859375 -0.640625q-0.671875 -0.640625 -0.671875 -1.609375q0 -0.640625 0.3125 -1.140625q0.3125 -0.515625 0.859375 -0.78125q0.5625 -0.265625 1.609375 -0.46875q1.40625 -0.265625 1.953125 -0.484375l0 -0.203125q0 -0.578125 -0.296875 -0.828125q-0.28125 -0.25 -1.078125 -0.25q-0.53125 0 -0.84375 0.21875q-0.296875 0.203125 -0.46875 0.734375zm2.6875 1.625q-0.390625 0.140625 -1.234375 0.328125q-0.828125 0.171875 -1.09375 0.34375q-0.390625 0.265625 -0.390625 0.703125q0 0.421875 0.3125 0.734375q0.3125 0.296875 0.8125 0.296875q0.53125 0 1.03125 -0.359375q0.359375 -0.265625 0.484375 -0.65625q0.078125 -0.265625 0.078125 -0.984375l0 -0.40625zm10.869858 3.65625l-2.015625 0l0 -3.875q0 -1.234375 -0.125 -1.59375q-0.125 -0.359375 -0.421875 -0.5625q-0.296875 -0.203125 -0.703125 -0.203125q-0.515625 0 -0.9375 0.296875q-0.40625 0.28125 -0.5625 0.75q-0.15625 0.46875 -0.15625 1.75l0 3.4375l-2.015625 0l0 -7.59375l1.875 0l0 1.109375q1.0 -1.28125 2.5 -1.28125q0.671875 0 1.21875 0.234375q0.546875 0.234375 0.828125 0.609375q0.296875 0.375 0.40625 0.84375q0.109375 0.46875 0.109375 1.359375l0 4.71875zm2.0307465 -8.625l0 -1.859375l2.015625 0l0 1.859375l-2.015625 0zm0 8.625l0 -7.59375l2.015625 0l0 7.59375l-2.015625 0zm5.5876007 -5.28125l-1.828125 -0.328125q0.296875 -1.109375 1.046875 -1.625q0.765625 -0.53125 2.234375 -0.53125q1.359375 0 2.015625 0.3125q0.65625 0.3125 0.921875 0.8125q0.265625 0.484375 0.265625 1.796875l-0.015625 2.34375q0 1.0 0.09375 1.484375q0.09375 0.46875 0.359375 1.015625l-1.984375 0q-0.078125 -0.203125 -0.203125 -0.59375q-0.046875 -0.171875 -0.0625 -0.234375q-0.515625 0.5 -1.109375 0.75q-0.578125 0.25 -1.25 0.25q-1.171875 0 -1.859375 -0.640625q-0.671875 -0.640625 -0.671875 -1.609375q0 -0.640625 0.3125 -1.140625q0.3125 -0.515625 0.859375 -0.78125q0.5625 -0.265625 1.609375 -0.46875q1.40625 -0.265625 1.953125 -0.484375l0 -0.203125q0 -0.578125 -0.296875 -0.828125q-0.28125 -0.25 -1.078125 -0.25q-0.53125 0 -0.84375 0.21875q-0.296875 0.203125 -0.46875 0.734375zm2.6875 1.625q-0.390625 0.140625 -1.234375 0.328125q-0.828125 0.171875 -1.09375 0.34375q-0.390625 0.265625 -0.390625 0.703125q0 0.421875 0.3125 0.734375q0.3125 0.296875 0.8125 0.296875q0.53125 0 1.03125 -0.359375q0.359375 -0.265625 0.484375 -0.65625q0.078125 -0.265625 0.078125 -0.984375l0 -0.40625z" fill-rule="nonzero"/><path fill="#ffffff" d="m179.05988 98.94352l0 -10.484375l3.40625 0q1.921875 0 2.515625 0.15625q0.90625 0.234375 1.515625 1.03125q0.609375 0.78125 0.609375 2.03125q0 0.96875 -0.359375 1.625q-0.34375 0.65625 -0.890625 1.03125q-0.53125 0.375 -1.09375 0.5q-0.765625 0.15625 -2.203125 0.15625l-1.375 0l0 3.953125l-2.125 0zm2.125 -8.71875l0 2.984375l1.15625 0q1.25 0 1.671875 -0.15625q0.421875 -0.171875 0.65625 -0.515625q0.25 -0.359375 0.25 -0.828125q0 -0.578125 -0.34375 -0.9375q-0.328125 -0.375 -0.84375 -0.46875q-0.375 -0.078125 -1.53125 -0.078125l-1.015625 0zm7.1818542 4.8125q0 -1.0 0.484375 -1.9375q0.5 -0.9375 1.40625 -1.421875q0.90625 -0.5 2.015625 -0.5q1.71875 0 2.828125 1.125q1.109375 1.109375 1.109375 2.8125q0 1.734375 -1.125 2.875q-1.109375 1.125 -2.796875 1.125q-1.046875 0 -2.0 -0.46875q-0.9375 -0.46875 -1.4375 -1.375q-0.484375 -0.921875 -0.484375 -2.234375zm2.046875 0.109375q0 1.125 0.53125 1.734375q0.546875 0.59375 1.34375 0.59375q0.78125 0 1.3125 -0.59375q0.53125 -0.609375 0.53125 -1.75q0 -1.125 -0.53125 -1.71875q-0.53125 -0.609375 -1.3125 -0.609375q-0.796875 0 -1.34375 0.609375q-0.53125 0.59375 -0.53125 1.734375zm6.6557465 1.625l2.015625 -0.296875q0.125 0.578125 0.515625 0.890625q0.40625 0.296875 1.109375 0.296875q0.78125 0 1.171875 -0.28125q0.265625 -0.203125 0.265625 -0.546875q0 -0.21875 -0.140625 -0.375q-0.15625 -0.140625 -0.671875 -0.265625q-2.4375 -0.53125 -3.078125 -0.984375q-0.90625 -0.609375 -0.90625 -1.703125q0 -0.984375 0.78125 -1.65625q0.78125 -0.671875 2.421875 -0.671875q1.546875 0 2.3125 0.515625q0.765625 0.5 1.046875 1.484375l-1.90625 0.359375q-0.109375 -0.453125 -0.453125 -0.6875q-0.34375 -0.234375 -0.96875 -0.234375q-0.796875 0 -1.140625 0.21875q-0.234375 0.15625 -0.234375 0.40625q0 0.21875 0.203125 0.375q0.28125 0.203125 1.875 0.5625q1.609375 0.359375 2.25 0.890625q0.625 0.546875 0.625 1.5q0 1.046875 -0.875 1.796875q-0.859375 0.75 -2.578125 0.75q-1.546875 0 -2.453125 -0.625q-0.90625 -0.640625 -1.1875 -1.71875zm12.338608 -5.421875l0 1.59375l-1.375 0l0 3.0625q0 0.9375 0.03125 1.09375q0.046875 0.140625 0.1875 0.25q0.140625 0.09375 0.34375 0.09375q0.28125 0 0.8125 -0.1875l0.171875 1.5625q-0.703125 0.296875 -1.59375 0.296875q-0.546875 0 -0.984375 -0.171875q-0.421875 -0.1875 -0.640625 -0.46875q-0.203125 -0.296875 -0.28125 -0.796875q-0.0625 -0.359375 -0.0625 -1.421875l0 -3.3125l-0.921875 0l0 -1.59375l0.921875 0l0 -1.515625l2.015625 -1.171875l0 2.6875l1.375 0zm2.9118958 2.3125l-1.828125 -0.328125q0.296875 -1.109375 1.046875 -1.625q0.765625 -0.53125 2.234375 -0.53125q1.359375 0 2.015625 0.3125q0.65625 0.3125 0.921875 0.8125q0.265625 0.484375 0.265625 1.796875l-0.015625 2.34375q0 1.0 0.09375 1.484375q0.09375 0.46875 0.359375 1.015625l-1.984375 0q-0.078125 -0.203125 -0.203125 -0.59375q-0.046875 -0.171875 -0.0625 -0.234375q-0.515625 0.5 -1.109375 0.75q-0.578125 0.25 -1.25 0.25q-1.171875 0 -1.859375 -0.640625q-0.671875 -0.640625 -0.671875 -1.609375q0 -0.640625 0.3125 -1.140625q0.3125 -0.515625 0.859375 -0.78125q0.5625 -0.265625 1.609375 -0.46875q1.40625 -0.265625 1.953125 -0.484375l0 -0.203125q0 -0.578125 -0.296875 -0.828125q-0.28125 -0.25 -1.078125 -0.25q-0.53125 0 -0.84375 0.21875q-0.296875 0.203125 -0.46875 0.734375zm2.6875 1.625q-0.390625 0.140625 -1.234375 0.328125q-0.828125 0.171875 -1.09375 0.34375q-0.390625 0.265625 -0.390625 0.703125q0 0.421875 0.3125 0.734375q0.3125 0.296875 0.8125 0.296875q0.53125 0 1.03125 -0.359375q0.359375 -0.265625 0.484375 -0.65625q0.078125 -0.265625 0.078125 -0.984375l0 -0.40625zm5.369858 3.65625l-2.40625 -7.59375l1.953125 0l1.421875 4.96875l1.3125 -4.96875l1.9375 0l1.265625 4.96875l1.453125 -4.96875l1.984375 0l-2.4375 7.59375l-1.9375 0l-1.3125 -4.890625l-1.28125 4.890625l-1.953125 0zm9.025101 -7.59375l2.140625 0l1.828125 5.390625l1.765625 -5.390625l2.09375 0l-2.6875 7.3125l-0.484375 1.3125q-0.265625 0.671875 -0.515625 1.015625q-0.234375 0.359375 -0.546875 0.578125q-0.296875 0.21875 -0.765625 0.328125q-0.453125 0.125 -1.015625 0.125q-0.578125 0 -1.140625 -0.109375l-0.171875 -1.578125q0.46875 0.09375 0.84375 0.09375q0.703125 0 1.03125 -0.421875q0.34375 -0.40625 0.515625 -1.046875l-2.890625 -7.609375z" fill-rule="nonzero"/><path fill="#ffffff" d="m242.95883 130.27686l-2.515625 -10.484383l2.171875 0l1.578125 7.203125l1.921875 -7.203125l2.515625 0l1.84375 7.328125l1.609375 -7.328125l2.125 0l-2.546875 10.484383l-2.234375 0l-2.09375 -7.8437576l-2.078125 7.8437576l-2.296875 0zm13.289001 -5.2812576l-1.828125 -0.328125q0.296875 -1.109375 1.046875 -1.625q0.765625 -0.53125 2.234375 -0.53125q1.359375 0 2.015625 0.3125q0.65625 0.3125 0.921875 0.8125q0.265625 0.484375 0.265625 1.796875l-0.015625 2.34375q0 1.0000076 0.09375 1.4843826q0.09375 0.46875 0.359375 1.015625l-1.984375 0q-0.078125 -0.203125 -0.203125 -0.59375q-0.046875 -0.171875 -0.0625 -0.234375q-0.515625 0.5 -1.109375 0.75q-0.578125 0.25 -1.25 0.25q-1.171875 0 -1.859375 -0.640625q-0.671875 -0.640625 -0.671875 -1.609375q0 -0.6406326 0.3125 -1.1406326q0.3125 -0.515625 0.859375 -0.78125q0.5625 -0.265625 1.609375 -0.46875q1.40625 -0.265625 1.953125 -0.484375l0 -0.203125q0 -0.578125 -0.296875 -0.828125q-0.28125 -0.25 -1.078125 -0.25q-0.53125 0 -0.84375 0.21875q-0.296875 0.203125 -0.46875 0.734375zm2.6875 1.625q-0.390625 0.140625 -1.234375 0.328125q-0.828125 0.171875 -1.09375 0.34375q-0.390625 0.265625 -0.390625 0.703125q0 0.42188263 0.3125 0.7343826q0.3125 0.296875 0.8125 0.296875q0.53125 0 1.03125 -0.359375q0.359375 -0.265625 0.484375 -0.65625q0.078125 -0.26563263 0.078125 -0.9843826l0 -0.40625zm5.8854675 3.6562576l-2.015625 0l0 -7.5937576l1.859375 0l0 1.078125q0.484375 -0.765625 0.859375 -1.0q0.390625 -0.25 0.875 -0.25q0.6875 0 1.328125 0.375l-0.625 1.75q-0.5 -0.328125 -0.9375 -0.328125q-0.421875 0 -0.71875 0.234375q-0.296875 0.234375 -0.46875 0.84375q-0.15625 0.609375 -0.15625 2.546875l0 2.3437576zm7.250519 -7.5937576l0 1.59375l-1.375 0l0 3.0625q0 0.9375076 0.03125 1.0937576q0.046875 0.140625 0.1875 0.25q0.140625 0.09375 0.34375 0.09375q0.28125 0 0.8125 -0.1875l0.171875 1.5625q-0.703125 0.296875 -1.59375 0.296875q-0.546875 0 -0.984375 -0.171875q-0.421875 -0.1875 -0.640625 -0.46875q-0.203125 -0.296875 -0.28125 -0.796875q-0.0625 -0.359375 -0.0625 -1.4218826l0 -3.3125l-0.921875 0l0 -1.59375l0.921875 0l0 -1.515625l2.015625 -1.171875l0 2.6875l1.375 0zm0.94314575 3.6875q0 -1.0 0.484375 -1.9375q0.5 -0.9375 1.40625 -1.421875q0.90625 -0.5 2.015625 -0.5q1.71875 0 2.828125 1.125q1.109375 1.109375 1.109375 2.8125q0 1.7343826 -1.125 2.8750076q-1.109375 1.125 -2.796875 1.125q-1.046875 0 -2.0 -0.46875q-0.9375 -0.46875 -1.4375 -1.375q-0.484375 -0.9218826 -0.484375 -2.2343826zm2.046875 0.109375q0 1.125 0.53125 1.7343826q0.546875 0.59375 1.34375 0.59375q0.78125 0 1.3125 -0.59375q0.53125 -0.6093826 0.53125 -1.7500076q0 -1.125 -0.53125 -1.71875q-0.53125 -0.609375 -1.3125 -0.609375q-0.796875 0 -1.34375 0.609375q-0.53125 0.59375 -0.53125 1.734375zm6.655731 1.6250076l2.015625 -0.29688263q0.125 0.5781326 0.515625 0.8906326q0.40625 0.296875 1.109375 0.296875q0.78125 0 1.171875 -0.28125q0.265625 -0.203125 0.265625 -0.546875q0 -0.21875763 -0.140625 -0.37500763q-0.15625 -0.140625 -0.671875 -0.265625q-2.4375 -0.53125 -3.078125 -0.984375q-0.90625 -0.609375 -0.90625 -1.703125q0 -0.984375 0.78125 -1.65625q0.78125 -0.671875 2.421875 -0.671875q1.546875 0 2.3125 0.515625q0.765625 0.5 1.046875 1.484375l-1.90625 0.359375q-0.109375 -0.453125 -0.453125 -0.6875q-0.34375 -0.234375 -0.96875 -0.234375q-0.796875 0 -1.140625 0.21875q-0.234375 0.15625 -0.234375 0.40625q0 0.21875 0.203125 0.375q0.28125 0.203125 1.875 0.5625q1.609375 0.359375 2.25 0.890625q0.625 0.546875 0.625 1.5q0 1.0468826 -0.875 1.7968826q-0.859375 0.75 -2.578125 0.75q-1.546875 0 -2.453125 -0.625q-0.90625 -0.640625 -1.1875 -1.71875zm2.90625 -6.3593826l0.984375 -2.140625l2.25 0l-1.96875 2.140625l-1.265625 0zm12.572998 3.171875l-1.96875 0.359375q-0.109375 -0.59375 -0.46875 -0.890625q-0.34375 -0.296875 -0.90625 -0.296875q-0.75 0 -1.203125 0.515625q-0.453125 0.515625 -0.453125 1.734375q0 1.359375 0.453125 1.9218826q0.453125 0.546875 1.21875 0.546875q0.578125 0 0.9375 -0.328125q0.375 -0.328125 0.515625 -1.1093826l1.984375 0.328125q-0.3125 1.3593826 -1.1875 2.0625076q-0.875 0.6875 -2.328125 0.6875q-1.671875 0 -2.671875 -1.046875q-0.984375 -1.0625 -0.984375 -2.9218826q0 -1.875 0.984375 -2.921875q1.0 -1.046875 2.703125 -1.046875q1.390625 0 2.203125 0.59375q0.828125 0.59375 1.171875 1.8125zm1.5260925 -3.265625l0 -1.859375l2.015625 0l0 1.859375l-2.015625 0zm0 8.625008l0 -7.5937576l2.015625 0l0 7.5937576l-2.015625 0z" fill-rule="nonzero"/><path fill="#ffffff" d="m313.32654 161.61018l-2.3125 0l-0.90625 -2.390625l-4.203125 0l-0.859375 2.390625l-2.25 0l4.09375 -10.484375l2.234375 0l4.203125 10.484375zm-3.90625 -4.15625l-1.4375 -3.890625l-1.421875 3.890625l2.859375 0zm4.943634 4.15625l0 -10.484375l2.0 0l0 5.5625l2.359375 -2.671875l2.484375 0l-2.609375 2.765625l2.796875 4.828125l-2.171875 0l-1.921875 -3.40625l-0.9375 0.96875l0 2.4375l-2.0 0zm7.510498 -2.171875l2.015625 -0.296875q0.125 0.578125 0.515625 0.890625q0.40625 0.296875 1.109375 0.296875q0.78125 0 1.171875 -0.28125q0.265625 -0.203125 0.265625 -0.546875q0 -0.21875 -0.140625 -0.375q-0.15625 -0.140625 -0.671875 -0.265625q-2.4375 -0.53125 -3.078125 -0.984375q-0.90625 -0.609375 -0.90625 -1.703125q0 -0.984375 0.78125 -1.65625q0.78125 -0.671875 2.421875 -0.671875q1.546875 0 2.3125 0.515625q0.765625 0.5 1.046875 1.484375l-1.90625 0.359375q-0.109375 -0.453125 -0.453125 -0.6875q-0.34375 -0.234375 -0.96875 -0.234375q-0.796875 0 -1.140625 0.21875q-0.234375 0.15625 -0.234375 0.40625q0 0.21875 0.203125 0.375q0.28125 0.203125 1.875 0.5625q1.609375 0.359375 2.25 0.890625q0.625 0.546875 0.625 1.5q0 1.046875 -0.875 1.796875q-0.859375 0.75 -2.578125 0.75q-1.546875 0 -2.453125 -0.625q-0.90625 -0.640625 -1.1875 -1.71875zm8.822968 -6.453125l0 -1.859375l2.0 0l0 1.859375l-2.0 0zm2.0 1.03125l0 7.359375q0 1.453125 -0.1875 2.046875q-0.1875 0.59375 -0.734375 0.921875q-0.53125 0.34375 -1.375 0.34375q-0.296875 0 -0.640625 -0.046875q-0.34375 -0.046875 -0.75 -0.15625l0.34375 -1.71875q0.15625 0.03125 0.28125 0.046875q0.125 0.015625 0.21875 0.015625q0.3125 0 0.5 -0.140625q0.203125 -0.125 0.265625 -0.3125q0.078125 -0.1875 0.078125 -1.109375l0 -7.25l2.0 0zm1.650116 3.6875q0 -1.0 0.484375 -1.9375q0.5 -0.9375 1.40625 -1.421875q0.90625 -0.5 2.015625 -0.5q1.71875 0 2.828125 1.125q1.109375 1.109375 1.109375 2.8125q0 1.734375 -1.125 2.875q-1.109375 1.125 -2.796875 1.125q-1.046875 0 -2.0 -0.46875q-0.9375 -0.46875 -1.4375 -1.375q-0.484375 -0.921875 -0.484375 -2.234375zm2.046875 0.109375q0 1.125 0.53125 1.734375q0.546875 0.59375 1.34375 0.59375q0.78125 0 1.3125 -0.59375q0.53125 -0.609375 0.53125 -1.75q0 -1.125 -0.53125 -1.71875q-0.53125 -0.609375 -1.3125 -0.609375q-0.796875 0 -1.34375 0.609375q-0.53125 0.59375 -0.53125 1.734375zm7.218231 -3.796875l1.84375 0l0 1.03125q1.0 -1.203125 2.375 -1.203125q0.734375 0 1.265625 0.296875q0.53125 0.296875 0.875 0.90625q0.5 -0.609375 1.078125 -0.90625q0.59375 -0.296875 1.25 -0.296875q0.828125 0 1.40625 0.34375q0.59375 0.328125 0.875 0.984375q0.203125 0.484375 0.203125 1.578125l0 4.859375l-2.015625 0l0 -4.34375q0 -1.125 -0.203125 -1.453125q-0.28125 -0.4375 -0.859375 -0.4375q-0.421875 0 -0.796875 0.265625q-0.359375 0.25 -0.53125 0.75q-0.171875 0.5 -0.171875 1.5625l0 3.65625l-2.0 0l0 -4.171875q0 -1.109375 -0.109375 -1.421875q-0.109375 -0.328125 -0.34375 -0.484375q-0.21875 -0.15625 -0.609375 -0.15625q-0.453125 0 -0.828125 0.25q-0.375 0.25 -0.546875 0.734375q-0.15625 0.46875 -0.15625 1.5625l0 3.6875l-2.0 0l0 -7.59375zm14.688019 2.3125l-1.828125 -0.328125q0.296875 -1.109375 1.046875 -1.625q0.765625 -0.53125 2.234375 -0.53125q1.359375 0 2.015625 0.3125q0.65625 0.3125 0.921875 0.8125q0.265625 0.484375 0.265625 1.796875l-0.015625 2.34375q0 1.0 0.09375 1.484375q0.09375 0.46875 0.359375 1.015625l-1.984375 0q-0.078125 -0.203125 -0.203125 -0.59375q-0.046875 -0.171875 -0.0625 -0.234375q-0.515625 0.5 -1.109375 0.75q-0.578125 0.25 -1.25 0.25q-1.171875 0 -1.859375 -0.640625q-0.671875 -0.640625 -0.671875 -1.609375q0 -0.640625 0.3125 -1.140625q0.3125 -0.515625 0.859375 -0.78125q0.5625 -0.265625 1.609375 -0.46875q1.40625 -0.265625 1.953125 -0.484375l0 -0.203125q0 -0.578125 -0.296875 -0.828125q-0.28125 -0.25 -1.078125 -0.25q-0.53125 0 -0.84375 0.21875q-0.296875 0.203125 -0.46875 0.734375zm2.6875 1.625q-0.390625 0.140625 -1.234375 0.328125q-0.828125 0.171875 -1.09375 0.34375q-0.390625 0.265625 -0.390625 0.703125q0 0.421875 0.3125 0.734375q0.3125 0.296875 0.8125 0.296875q0.53125 0 1.03125 -0.359375q0.359375 -0.265625 0.484375 -0.65625q0.078125 -0.265625 0.078125 -0.984375l0 -0.40625zm7.4323425 -3.9375l0 1.59375l-1.375 0l0 3.0625q0 0.9375 0.03125 1.09375q0.046875 0.140625 0.1875 0.25q0.140625 0.09375 0.34375 0.09375q0.28125 0 0.8125 -0.1875l0.171875 1.5625q-0.703125 0.296875 -1.59375 0.296875q-0.546875 0 -0.984375 -0.171875q-0.421875 -0.1875 -0.640625 -0.46875q-0.203125 -0.296875 -0.28125 -0.796875q-0.0625 -0.359375 -0.0625 -1.421875l0 -3.3125l-0.921875 0l0 -1.59375l0.921875 0l0 -1.515625l2.015625 -1.171875l0 2.6875l1.375 0zm0.44314575 0l2.140625 0l1.828125 5.390625l1.765625 -5.390625l2.09375 0l-2.6875 7.3125l-0.484375 1.3125q-0.265625 0.671875 -0.515625 1.015625q-0.234375 0.359375 -0.546875 0.578125q-0.296875 0.21875 -0.765625 0.328125q-0.453125 0.125 -1.015625 0.125q-0.578125 0 -1.140625 -0.109375l-0.171875 -1.578125q0.46875 0.09375 0.84375 0.09375q0.703125 0 1.03125 -0.421875q0.34375 -0.40625 0.515625 -1.046875l-2.890625 -7.609375z" fill-rule="nonzero"/><path fill="#000000" fill-opacity="0.0" d="m36.0 253.79527l0 -253.79527" fill-rule="evenodd"/><path stroke="#ffffff" stroke-width="1.0" stroke-linejoin="round" stroke-linecap="butt" d="m36.0 253.79527l0 -250.36818" fill-rule="evenodd"/><path fill="#ffffff" stroke="#ffffff" stroke-width="1.0" stroke-linecap="butt" d="m36.0 3.4270866l1.1245842 1.1245835l-1.1245842 -3.089768l-1.1245842 3.089768z" fill-rule="evenodd"/><path fill="#000000" fill-opacity="0.0" d="m36.0 253.79527l749.7008 0" fill-rule="evenodd"/><path stroke="#ffffff" stroke-width="1.0" stroke-linejoin="round" stroke-linecap="butt" d="m36.0 253.79527l746.2737 0" fill-rule="evenodd"/><path fill="#ffffff" stroke="#ffffff" stroke-width="1.0" stroke-linecap="butt" d="m782.2737 253.79527l-1.1245728 1.124588l3.0897827 -1.124588l-3.0897827 -1.124588z" fill-rule="evenodd"/><path fill="#000000" fill-opacity="0.0" d="m0 235.49606l0 -217.19685l36.0 0l0 217.19685z" fill-rule="evenodd"/><path fill="#d9d9d9" d="m23.08 225.37106l-10.484375 0l0 -3.96875q0 -1.046875 0.09375 -1.59375q0.125 -0.765625 0.484375 -1.28125q0.359375 -0.53125 1.015625 -0.84375q0.65625 -0.328125 1.4375 -0.328125q1.328125 0 2.265625 0.859375q0.921875 0.84375 0.921875 3.078125l0 2.6875l4.265625 0l0 1.390625zm-5.5 -1.390625l0 -2.71875q0 -1.34375 -0.5 -1.90625q-0.5 -0.5625 -1.40625 -0.5625q-0.671875 0 -1.140625 0.328125q-0.46875 0.328125 -0.609375 0.875q-0.09375 0.359375 -0.09375 1.296875l0 2.6875l3.75 0zm1.703125 -7.7443542q-2.109375 0 -3.125 -1.171875q-0.84375 -0.984375 -0.84375 -2.390625q0 -1.578125 1.03125 -2.5625q1.015625 -1.0 2.828125 -1.0q1.46875 0 2.3125 0.4375q0.828125 0.4375 1.296875 1.28125q0.46875 0.84375 0.46875 1.84375q0 1.59375 -1.015625 2.578125q-1.03125 0.984375 -2.953125 0.984375zm0 -1.328125q1.453125 0 2.1875 -0.625q0.71875 -0.640625 0.71875 -1.609375q0 -0.96875 -0.71875 -1.59375q-0.734375 -0.640625 -2.234375 -0.640625q-1.40625 0 -2.125 0.640625q-0.734375 0.640625 -0.734375 1.59375q0 0.96875 0.71875 1.609375q0.71875 0.625 2.1875 0.625zm3.796875 -6.619858l-1.046875 0l-5.546875 -4.84375q0.03125 0.828125 0.03125 1.453125l0 3.09375l-1.03125 0l0 -6.203125l0.84375 0l4.828125 4.109375l0.875 0.796875q-0.0625 -0.859375 -0.0625 -1.625l0 -3.515625l1.109375 0l0 6.734375zm-9.015625 -8.015625l-1.46875 0l0 -1.296875l1.46875 0l0 1.296875zm9.015625 0l-7.59375 0l0 -1.296875l7.59375 0l0 1.296875zm-3.796875 -2.7717743q-2.109375 0 -3.125 -1.171875q-0.84375 -0.984375 -0.84375 -2.390625q0 -1.578125 1.03125 -2.5625q1.015625 -1.0 2.828125 -1.0q1.46875 0 2.3125 0.4375q0.828125 0.4375 1.296875 1.28125q0.46875 0.84375 0.46875 1.84375q0 1.59375 -1.015625 2.578125q-1.03125 0.984375 -2.953125 0.984375zm0 -1.328125q1.453125 0 2.1875 -0.625q0.71875 -0.640625 0.71875 -1.609375q0 -0.96875 -0.71875 -1.59375q-0.734375 -0.640625 -2.234375 -0.640625q-1.40625 0 -2.125 0.640625q-0.734375 0.640625 -0.734375 1.59375q0 0.96875 0.71875 1.609375q0.71875 0.625 2.1875 0.625zm3.796875 -7.307358l-7.59375 0l0 -1.15625l1.0625 0q-0.5625 -0.34375 -0.890625 -0.9375q-0.34375 -0.609375 -0.34375 -1.359375q0 -0.84375 0.34375 -1.375q0.34375 -0.546875 0.984375 -0.765625q-1.328125 -0.90625 -1.328125 -2.359375q0 -1.125 0.625 -1.734375q0.625 -0.609375 1.921875 -0.609375l5.21875 0l0 1.28125l-4.78125 0q-0.78125 0 -1.109375 0.125q-0.34375 0.125 -0.546875 0.453125q-0.21875 0.328125 -0.21875 0.78125q0 0.796875 0.53125 1.328125q0.53125 0.53125 1.703125 0.53125l4.421875 0l0 1.28125l-4.9375 0q-0.859375 0 -1.28125 0.3125q-0.4375 0.3125 -0.4375 1.03125q0 0.546875 0.296875 1.015625q0.28125 0.453125 0.828125 0.671875q0.546875 0.203125 1.59375 0.203125l3.9375 0l0 1.28125zm3.078125 -18.733871q-1.34375 1.0625 -3.140625 1.796875q-1.8125 0.734375 -3.734375 0.734375q-1.703125 0 -3.265625 -0.546875q-1.8125 -0.640625 -3.609375 -1.984375l0 -0.921875q1.484375 0.859375 2.125 1.140625q0.984375 0.4375 2.0625 0.6875q1.34375 0.296875 2.6875 0.296875q3.453125 0 6.875 -2.125l0 0.921875zm-3.078125 -3.8337708l-7.59375 2.328125l0 -1.328125l4.375 -1.203125l1.640625 -0.453125q-0.125 -0.03125 -1.578125 -0.390625l-4.4375 -1.21875l0 -1.328125l4.40625 -1.125l1.453125 -0.390625l-1.46875 -0.4375l-4.390625 -1.296875l0 -1.25l7.59375 2.375l0 1.34375l-4.546875 1.203125l-1.296875 0.296875l5.84375 1.53125l0 1.34375zm-0.9375 -14.131149q0.609375 0.71875 0.859375 1.375q0.25 0.65625 0.25 1.421875q0 1.25 -0.609375 1.921875q-0.609375 0.671875 -1.5625 0.671875q-0.5625 0 -1.015625 -0.25q-0.46875 -0.25 -0.75 -0.65625q-0.28125 -0.421875 -0.421875 -0.9375q-0.09375 -0.375 -0.1875 -1.140625q-0.1875 -1.5625 -0.453125 -2.296875q-0.265625 -0.015625 -0.328125 -0.015625q-0.796875 0 -1.109375 0.375q-0.4375 0.484375 -0.4375 1.453125q0 0.921875 0.328125 1.359375q0.3125 0.421875 1.109375 0.625l-0.171875 1.265625q-0.796875 -0.171875 -1.296875 -0.5625q-0.5 -0.390625 -0.765625 -1.140625q-0.265625 -0.75 -0.265625 -1.71875q0 -0.984375 0.234375 -1.59375q0.21875 -0.609375 0.5625 -0.890625q0.34375 -0.28125 0.875 -0.40625q0.328125 -0.0625 1.1875 -0.0625l1.71875 0q1.796875 0 2.28125 -0.078125q0.46875 -0.078125 0.90625 -0.328125l0 1.34375q-0.40625 0.203125 -0.9375 0.265625zm-2.875 0.109375q0.28125 0.703125 0.484375 2.09375q0.109375 0.796875 0.265625 1.125q0.140625 0.328125 0.421875 0.515625q0.265625 0.171875 0.59375 0.171875q0.515625 0 0.859375 -0.390625q0.34375 -0.390625 0.34375 -1.140625q0 -0.734375 -0.3125 -1.3125q-0.328125 -0.59375 -0.890625 -0.859375q-0.4375 -0.203125 -1.296875 -0.203125l-0.46875 0zm3.8125 -3.2917328l-7.59375 0l0 -1.15625l1.140625 0q-0.796875 -0.453125 -1.046875 -0.828125q-0.265625 -0.375 -0.265625 -0.8125q0 -0.65625 0.40625 -1.328125l1.203125 0.4375q-0.28125 0.46875 -0.28125 0.953125q0 0.421875 0.25 0.765625q0.25 0.328125 0.703125 0.46875q0.6875 0.21875 1.5 0.21875l3.984375 0l0 1.28125zm-2.265625 -4.3806458l-0.203125 -1.265625q0.765625 -0.109375 1.171875 -0.59375q0.40625 -0.5 0.40625 -1.375q0 -0.890625 -0.359375 -1.3125q-0.359375 -0.4375 -0.84375 -0.4375q-0.4375 0 -0.6875 0.375q-0.171875 0.265625 -0.4375 1.3125q-0.359375 1.421875 -0.609375 1.96875q-0.265625 0.546875 -0.734375 0.828125q-0.46875 0.28125 -1.015625 0.28125q-0.515625 0 -0.9375 -0.21875q-0.4375 -0.234375 -0.734375 -0.640625q-0.21875 -0.296875 -0.359375 -0.8125q-0.15625 -0.53125 -0.15625 -1.125q0 -0.890625 0.265625 -1.5625q0.25 -0.671875 0.6875 -1.0q0.4375 -0.328125 1.171875 -0.4375l0.171875 1.25q-0.578125 0.09375 -0.90625 0.5q-0.34375 0.40625 -0.34375 1.15625q0 0.890625 0.296875 1.28125q0.296875 0.375 0.6875 0.375q0.25 0 0.453125 -0.15625q0.203125 -0.15625 0.34375 -0.5q0.078125 -0.1875 0.328125 -1.140625q0.359375 -1.359375 0.59375 -1.890625q0.234375 -0.546875 0.6875 -0.859375q0.4375 -0.3125 1.09375 -0.3125q0.640625 0 1.21875 0.375q0.5625 0.375 0.875 1.09375q0.3125 0.703125 0.3125 1.59375q0 1.484375 -0.609375 2.265625q-0.625 0.765625 -1.828125 0.984375zm1.109375 -10.65625l1.140625 -0.1875q0.109375 0.546875 0.109375 0.984375q0 0.6875 -0.21875 1.078125q-0.21875 0.390625 -0.578125 0.546875q-0.359375 0.15625 -1.515625 0.15625l-4.375 0l0 0.953125l-1.0 0l0 -0.953125l-1.890625 0l-0.765625 -1.28125l2.65625 0l0 -1.296875l1.0 0l0 1.296875l4.4375 0q0.546875 0 0.71875 -0.0625q0.15625 -0.078125 0.25 -0.21875q0.078125 -0.15625 0.078125 -0.453125q0 -0.203125 -0.046875 -0.5625zm1.15625 -2.6657257l-7.59375 2.328125l0 -1.328125l4.375 -1.203125l1.640625 -0.453125q-0.125 -0.03125 -1.578125 -0.390625l-4.4375 -1.21875l0 -1.328125l4.40625 -1.125l1.453125 -0.390625l-1.46875 -0.4375l-4.390625 -1.296875l0 -1.25l7.59375 2.375l0 1.34375l-4.546875 1.203125l-1.296875 0.296875l5.84375 1.53125l0 1.34375zm-0.9375 -14.131149q0.609375 0.71875 0.859375 1.375q0.25 0.65625 0.25 1.421875q0 1.25 -0.609375 1.921875q-0.609375 0.671875 -1.5625 0.671875q-0.5625 0 -1.015625 -0.25q-0.46875 -0.25 -0.75 -0.65625q-0.28125 -0.421875 -0.421875 -0.9375q-0.09375 -0.375 -0.1875 -1.140625q-0.1875 -1.5625 -0.453125 -2.296875q-0.265625 -0.015625 -0.328125 -0.015625q-0.796875 0 -1.109375 0.375q-0.4375 0.484375 -0.4375 1.453125q0 0.921875 0.328125 1.359375q0.3125 0.421875 1.109375 0.625l-0.171875 1.265625q-0.796875 -0.171875 -1.296875 -0.5625q-0.5 -0.390625 -0.765625 -1.140625q-0.265625 -0.75 -0.265625 -1.71875q0 -0.984375 0.234375 -1.59375q0.21875 -0.609375 0.5625 -0.890625q0.34375 -0.28125 0.875 -0.40625q0.328125 -0.0625 1.1875 -0.0625l1.71875 0q1.796875 0 2.28125 -0.078125q0.46875 -0.078125 0.90625 -0.328125l0 1.34375q-0.40625 0.203125 -0.9375 0.265625zm-2.875 0.109375q0.28125 0.703125 0.484375 2.09375q0.109375 0.796875 0.265625 1.125q0.140625 0.328125 0.421875 0.515625q0.265625 0.171875 0.59375 0.171875q0.515625 0 0.859375 -0.390625q0.34375 -0.390625 0.34375 -1.140625q0 -0.734375 -0.3125 -1.3125q-0.328125 -0.59375 -0.890625 -0.859375q-0.4375 -0.203125 -1.296875 -0.203125l-0.46875 0zm6.890625 -4.151108l0 0.921875q-3.421875 -2.140625 -6.875 -2.140625q-1.34375 0 -2.671875 0.3125q-1.0625 0.25 -2.046875 0.671875q-0.65625 0.28125 -2.15625 1.15625l0 -0.921875q1.796875 -1.34375 3.609375 -1.984375q1.5625 -0.546875 3.265625 -0.546875q1.921875 0 3.734375 0.734375q1.796875 0.734375 3.140625 1.796875zm-3.078125 -13.030746l-0.953125 0q1.125 0.71875 1.125 2.125q0 0.90625 -0.5 1.671875q-0.5 0.75 -1.390625 1.171875q-0.90625 0.421875 -2.078125 0.421875q-1.140625 0 -2.0625 -0.375q-0.921875 -0.390625 -1.40625 -1.140625q-0.5 -0.765625 -0.5 -1.703125q0 -0.6875 0.296875 -1.21875q0.28125 -0.53125 0.734375 -0.875l-3.75 0l0 -1.28125l10.484375 0l0 1.203125zm-3.796875 4.0625q1.46875 0 2.1875 -0.609375q0.71875 -0.625 0.71875 -1.453125q0 -0.84375 -0.6875 -1.4375q-0.6875 -0.59375 -2.109375 -0.59375q-1.5625 0 -2.28125 0.609375q-0.734375 0.59375 -0.734375 1.484375q0 0.84375 0.703125 1.421875q0.703125 0.578125 2.203125 0.578125zm3.796875 -12.276108l-1.109375 0q1.28125 0.890625 1.28125 2.421875q0 0.671875 -0.25 1.25q-0.265625 0.578125 -0.65625 0.875q-0.390625 0.28125 -0.953125 0.390625q-0.375 0.078125 -1.203125 0.078125l-4.703125 0l0 -1.28125l4.203125 0q1.015625 0 1.359375 -0.078125q0.515625 -0.125 0.8125 -0.515625q0.28125 -0.40625 0.28125 -0.984375q0 -0.578125 -0.296875 -1.078125q-0.296875 -0.515625 -0.8125 -0.71875q-0.515625 -0.21875 -1.484375 -0.21875l-4.0625 0l0 -1.28125l7.59375 0l0 1.140625zm-2.78125 -8.119858l0.15625 -1.265625q1.3125 0.203125 2.0625 1.0625q0.734375 0.84375 0.734375 2.09375q0 1.5625 -1.015625 2.515625q-1.03125 0.9375 -2.921875 0.9375q-1.234375 0 -2.15625 -0.40625q-0.921875 -0.40625 -1.375 -1.234375q-0.46875 -0.84375 -0.46875 -1.8125q0 -1.25 0.625 -2.03125q0.625 -0.78125 1.765625 -1.015625l0.203125 1.265625q-0.765625 0.171875 -1.15625 0.625q-0.390625 0.453125 -0.390625 1.09375q0 0.984375 0.703125 1.59375q0.703125 0.609375 2.203125 0.609375q1.53125 0 2.234375 -0.578125q0.6875 -0.59375 0.6875 -1.546875q0 -0.75 -0.453125 -1.265625q-0.46875 -0.515625 -1.4375 -0.640625zm2.78125 -2.375l-10.484375 0l0 -1.28125l3.75 0q-1.03125 -0.90625 -1.03125 -2.28125q0 -0.84375 0.328125 -1.46875q0.328125 -0.625 0.921875 -0.890625q0.578125 -0.265625 1.703125 -0.265625l4.8125 0l0 1.28125l-4.8125 0q-0.96875 0 -1.40625 0.421875q-0.4375 0.421875 -0.4375 1.1875q0 0.578125 0.296875 1.078125q0.296875 0.5 0.8125 0.71875q0.5 0.21875 1.390625 0.21875l4.15625 0l0 1.28125zm-3.796875 -7.666733q-2.109375 0 -3.125 -1.171875q-0.84375 -0.984375 -0.84375 -2.390625q0 -1.578125 1.03125 -2.5625q1.015625 -1.0 2.828125 -1.0q1.46875 0 2.3125 0.4375q0.828125 0.4375 1.296875 1.28125q0.46875 0.84375 0.46875 1.84375q0 1.59375 -1.015625 2.578125q-1.03125 0.984375 -2.953125 0.984375zm0 -1.328125q1.453125 0 2.1875 -0.625q0.71875 -0.640625 0.71875 -1.609375q0 -0.96875 -0.71875 -1.59375q-0.734375 -0.640625 -2.234375 -0.640625q-1.40625 0 -2.125 0.640625q-0.734375 0.640625 -0.734375 1.59375q0 0.96875 0.71875 1.609375q0.71875 0.625 2.1875 0.625zm3.796875 -8.713608l-7.59375 2.328125l0 -1.328125l4.375 -1.203125l1.640625 -0.453125q-0.125 -0.03125 -1.578125 -0.390625l-4.4375 -1.21875l0 -1.328125l4.40625 -1.125l1.453125 -0.390625l-1.46875 -0.4375l-4.390625 -1.296875l0 -1.25l7.59375 2.375l0 1.34375l-4.546875 1.203125l-1.296875 0.296875l5.84375 1.53125l0 1.34375zm-3.796875 -8.693649q-2.109375 0 -3.125 -1.171875q-0.84375 -0.984375 -0.84375 -2.390625q0 -1.578125 1.03125 -2.5625q1.015625 -1.0 2.828125 -1.0q1.46875 0 2.3125 0.4375q0.828125 0.4375 1.296875 1.28125q0.46875 0.84375 0.46875 1.84375q0 1.59375 -1.015625 2.578125q-1.03125 0.984375 -2.953125 0.984375zm0 -1.328125q1.453125 0 2.1875 -0.625q0.71875 -0.640625 0.71875 -1.609375q0 -0.96875 -0.71875 -1.59375q-0.734375 -0.640625 -2.234375 -0.640625q-1.40625 0 -2.125 0.640625q-0.734375 0.640625 -0.734375 1.59375q0 0.96875 0.71875 1.609375q0.71875 0.625 2.1875 0.625zm1.53125 -6.791733l-0.203125 -1.265625q0.765625 -0.109375 1.171875 -0.59375q0.40625 -0.5 0.40625 -1.375q0 -0.890625 -0.359375 -1.3125q-0.359375 -0.4375 -0.84375 -0.4375q-0.4375 0 -0.6875 0.375q-0.171875 0.265625 -0.4375 1.3125q-0.359375 1.421875 -0.609375 1.96875q-0.265625 0.546875 -0.734375 0.828125q-0.46875 0.28125 -1.015625 0.28125q-0.515625 0 -0.9375 -0.21875q-0.4375 -0.234375 -0.734375 -0.640625q-0.21875 -0.296875 -0.359375 -0.8125q-0.15625 -0.53125 -0.15625 -1.125q0 -0.890625 0.265625 -1.5625q0.25 -0.671875 0.6875 -1.0q0.4375 -0.328125 1.171875 -0.4375l0.171875 1.25q-0.578125 0.09375 -0.90625 0.5q-0.34375 0.40625 -0.34375 1.15625q0 0.890625 0.296875 1.28125q0.296875 0.375 0.6875 0.375q0.25 0 0.453125 -0.15625q0.203125 -0.15625 0.34375 -0.5q0.078125 -0.1875 0.328125 -1.140625q0.359375 -1.359375 0.59375 -1.890625q0.234375 -0.546875 0.6875 -0.859375q0.4375 -0.3125 1.09375 -0.3125q0.640625 0 1.21875 0.375q0.5625 0.375 0.875 1.09375q0.3125 0.703125 0.3125 1.59375q0 1.484375 -0.609375 2.265625q-0.625 0.765625 -1.828125 0.984375zm-6.28125 -2.375l-2.0 -0.953125l0 -1.6875l2.0 1.578125l0 1.0625zm5.765625 -10.421875l0.15625 -1.265625q1.3125 0.203125 2.0625 1.0625q0.734375 0.84375 0.734375 2.09375q0 1.5625 -1.015625 2.515625q-1.03125 0.9375 -2.921875 0.9375q-1.234375 0 -2.15625 -0.40625q-0.921875 -0.40625 -1.375 -1.234375q-0.46875 -0.84375 -0.46875 -1.8125q0 -1.25 0.625 -2.03125q0.625 -0.78125 1.765625 -1.015625l0.203125 1.265625q-0.765625 0.171875 -1.15625 0.625q-0.390625 0.453125 -0.390625 1.09375q0 0.984375 0.703125 1.59375q0.703125 0.609375 2.203125 0.609375q1.53125 0 2.234375 -0.578125q0.6875 -0.59375 0.6875 -1.546875q0 -0.75 -0.453125 -1.265625q-0.46875 -0.515625 -1.4375 -0.640625zm-6.234375 -2.375l-1.46875 0l0 -1.296875l1.46875 0l0 1.296875zm9.015625 0l-7.59375 0l0 -1.296875l7.59375 0l0 1.296875z" fill-rule="nonzero"/><path fill="#000000" fill-opacity="0.0" d="m718.7139 253.79527l55.18109 0l0 32.755905l-55.18109 0z" fill-rule="evenodd"/><path fill="#d9d9d9" d="m736.3233 273.2034l1.390625 0.34375q-0.4375 1.703125 -1.578125 2.609375q-1.125 0.890625 -2.765625 0.890625q-1.6875 0 -2.75 -0.6875q-1.0625 -0.6875 -1.625 -2.0q-0.546875 -1.3125 -0.546875 -2.8125q0 -1.640625 0.625 -2.859375q0.625 -1.21875 1.78125 -1.84375q1.15625 -0.640625 2.546875 -0.640625q1.5625 0 2.640625 0.8125q1.078125 0.796875 1.5 2.25l-1.375 0.3125q-0.359375 -1.140625 -1.0625 -1.65625q-0.6875 -0.53125 -1.734375 -0.53125q-1.21875 0 -2.03125 0.578125q-0.8125 0.578125 -1.140625 1.5625q-0.328125 0.96875 -0.328125 2.015625q0 1.328125 0.390625 2.328125q0.390625 1.0 1.21875 1.5q0.828125 0.484375 1.78125 0.484375q1.171875 0 1.96875 -0.671875q0.8125 -0.671875 1.09375 -1.984375zm2.2561035 3.671875l0 -1.046875l4.84375 -5.546875q-0.828125 0.03125 -1.453125 0.03125l-3.09375 0l0 -1.03125l6.203125 0l0 0.84375l-4.109375 4.828125l-0.796875 0.875q0.859375 -0.0625 1.625 -0.0625l3.515625 0l0 1.109375l-6.734375 0zm12.96875 -0.9375q-0.71875 0.609375 -1.375 0.859375q-0.65625 0.25 -1.421875 0.25q-1.25 0 -1.921875 -0.609375q-0.671875 -0.609375 -0.671875 -1.5625q0 -0.5625 0.25 -1.015625q0.25 -0.46875 0.65625 -0.75q0.421875 -0.28125 0.9375 -0.421875q0.375 -0.09375 1.140625 -0.1875q1.5625 -0.1875 2.296875 -0.453125q0.015625 -0.265625 0.015625 -0.328125q0 -0.796875 -0.375 -1.109375q-0.484375 -0.4375 -1.453125 -0.4375q-0.921875 0 -1.359375 0.328125q-0.421875 0.3125 -0.625 1.109375l-1.265625 -0.171875q0.171875 -0.796875 0.5625 -1.296875q0.390625 -0.5 1.140625 -0.765625q0.75 -0.265625 1.71875 -0.265625q0.984375 0 1.59375 0.234375q0.609375 0.21875 0.890625 0.5625q0.28125 0.34375 0.40625 0.875q0.0625 0.328125 0.0625 1.1875l0 1.71875q0 1.796875 0.078125 2.28125q0.078125 0.46875 0.328125 0.90625l-1.34375 0q-0.203125 -0.40625 -0.265625 -0.9375zm-0.109375 -2.875q-0.703125 0.28125 -2.09375 0.484375q-0.796875 0.109375 -1.125 0.265625q-0.328125 0.140625 -0.515625 0.421875q-0.171875 0.265625 -0.171875 0.59375q0 0.515625 0.390625 0.859375q0.390625 0.34375 1.140625 0.34375q0.734375 0 1.3125 -0.3125q0.59375 -0.328125 0.859375 -0.890625q0.203125 -0.4375 0.203125 -1.296875l0 -0.46875zm2.791748 1.546875l1.265625 -0.203125q0.109375 0.765625 0.59375 1.171875q0.5 0.40625 1.375 0.40625q0.890625 0 1.3125 -0.359375q0.4375 -0.359375 0.4375 -0.84375q0 -0.4375 -0.375 -0.6875q-0.265625 -0.171875 -1.3125 -0.4375q-1.421875 -0.359375 -1.96875 -0.609375q-0.546875 -0.265625 -0.828125 -0.734375q-0.28125 -0.46875 -0.28125 -1.015625q0 -0.515625 0.21875 -0.9375q0.234375 -0.4375 0.640625 -0.734375q0.296875 -0.21875 0.8125 -0.359375q0.53125 -0.15625 1.125 -0.15625q0.890625 0 1.5625 0.265625q0.671875 0.25 1.0 0.6875q0.328125 0.4375 0.4375 1.171875l-1.25 0.171875q-0.09375 -0.578125 -0.5 -0.90625q-0.40625 -0.34375 -1.15625 -0.34375q-0.890625 0 -1.28125 0.296875q-0.375 0.296875 -0.375 0.6875q0 0.25 0.15625 0.453125q0.15625 0.203125 0.5 0.34375q0.1875 0.078125 1.140625 0.328125q1.359375 0.359375 1.890625 0.59375q0.546875 0.234375 0.859375 0.6875q0.3125 0.4375 0.3125 1.09375q0 0.640625 -0.375 1.21875q-0.375 0.5625 -1.09375 0.875q-0.703125 0.3125 -1.59375 0.3125q-1.484375 0 -2.265625 -0.609375q-0.765625 -0.625 -0.984375 -1.828125z" fill-rule="nonzero"/><path fill="#000000" d="m220.76378 253.79527l10.462067 -2.243805l2.2465973 -10.449112l2.2465973 10.449112l10.462067 2.243805l-10.462067 2.2438202l-2.2465973 10.449097l-2.2465973 -10.449097z" fill-rule="evenodd"/><path stroke="#ffffff" stroke-width="1.0" stroke-linejoin="round" stroke-linecap="butt" d="m220.76378 253.79527l10.462067 -2.243805l2.2465973 -10.449112l2.2465973 10.449112l10.462067 2.243805l-10.462067 2.2438202l-2.2465973 10.449097l-2.2465973 -10.449097z" fill-rule="evenodd"/><path fill="#000000" d="m96.55643 253.79527l10.462067 -2.243805l2.2465973 -10.449112l2.2465973 10.449112l10.462067 2.243805l-10.462067 2.2438202l-2.2465973 10.449097l-2.2465973 -10.449097z" fill-rule="evenodd"/><path stroke="#ffffff" stroke-width="1.0" stroke-linejoin="round" stroke-linecap="butt" d="m96.55643 253.79527l10.462067 -2.243805l2.2465973 -10.449112l2.2465973 10.449112l10.462067 2.243805l-10.462067 2.2438202l-2.2465973 10.449097l-2.2465973 -10.449097z" fill-rule="evenodd"/><path fill="#000000" fill-opacity="0.0" d="m96.4651 216.8059l40.566925 0l0 32.692917l-40.566925 0z" fill-rule="evenodd"/><path fill="#ffffff" d="m105.9026 232.28027q0 -1.34375 0.28125 -2.171875q0.28125 -0.828125 0.828125 -1.265625q0.546875 -0.453125 1.375 -0.453125q0.625 0 1.078125 0.25q0.46875 0.234375 0.765625 0.703125q0.3125 0.46875 0.484375 1.140625q0.171875 0.671875 0.171875 1.796875q0 1.34375 -0.28125 2.171875q-0.28125 0.828125 -0.828125 1.28125q-0.546875 0.4375 -1.390625 0.4375q-1.09375 0 -1.71875 -0.78125q-0.765625 -0.953125 -0.765625 -3.109375zm0.96875 0q0 1.875 0.4375 2.5q0.4375 0.625 1.078125 0.625q0.65625 0 1.09375 -0.625q0.4375 -0.625 0.4375 -2.5q0 -1.875 -0.4375 -2.5q-0.4375 -0.625 -1.09375 -0.625q-0.640625 0 -1.03125 0.546875q-0.484375 0.703125 -0.484375 2.578125zm8.168396 3.765625l0 -7.625l0.9375 0l0 7.625l-0.9375 0zm5.9924774 -0.6875q-0.53125 0.453125 -1.015625 0.640625q-0.46875 0.171875 -1.015625 0.171875q-0.921875 0 -1.40625 -0.4375q-0.484375 -0.453125 -0.484375 -1.140625q0 -0.40625 0.171875 -0.734375q0.1875 -0.34375 0.484375 -0.546875q0.3125 -0.203125 0.6875 -0.3125q0.265625 -0.0625 0.828125 -0.140625q1.125 -0.125 1.671875 -0.3125q0 -0.203125 0 -0.25q0 -0.578125 -0.265625 -0.8125q-0.359375 -0.3125 -1.0625 -0.3125q-0.65625 0 -0.984375 0.234375q-0.3125 0.234375 -0.453125 0.8125l-0.921875 -0.125q0.125 -0.578125 0.40625 -0.9375q0.296875 -0.375 0.828125 -0.5625q0.546875 -0.203125 1.25 -0.203125q0.71875 0 1.15625 0.171875q0.4375 0.171875 0.640625 0.421875q0.21875 0.25 0.296875 0.640625q0.046875 0.234375 0.046875 0.859375l0 1.25q0 1.296875 0.0625 1.65625q0.0625 0.34375 0.234375 0.65625l-0.96875 0q-0.15625 -0.296875 -0.1875 -0.6875zm-0.078125 -2.078125q-0.515625 0.203125 -1.53125 0.34375q-0.578125 0.078125 -0.828125 0.1875q-0.234375 0.109375 -0.359375 0.3125q-0.125 0.1875 -0.125 0.4375q0 0.375 0.28125 0.625q0.28125 0.25 0.828125 0.25q0.53125 0 0.953125 -0.234375q0.421875 -0.234375 0.625 -0.65625q0.15625 -0.3125 0.15625 -0.9375l0 -0.328125zm4.4421234 1.921875l0.125 0.828125q-0.390625 0.09375 -0.703125 0.09375q-0.5 0 -0.78125 -0.15625q-0.28125 -0.171875 -0.40625 -0.4375q-0.109375 -0.265625 -0.109375 -1.109375l0 -3.171875l-0.6875 0l0 -0.734375l0.6875 0l0 -1.359375l0.9375 -0.5625l0 1.921875l0.9375 0l0 0.734375l-0.9375 0l0 3.234375q0 0.390625 0.046875 0.515625q0.046875 0.109375 0.15625 0.1875q0.109375 0.0625 0.328125 0.0625q0.15625 0 0.40625 -0.046875z" fill-rule="nonzero"/><path fill="#000000" fill-opacity="0.0" d="m211.37389 216.80577l55.181107 0l0 32.692917l-55.181107 0z" fill-rule="evenodd"/><path fill="#ffffff" d="m220.82701 233.15515l0 -1.078125q0.546875 -0.625 1.453125 -0.625q0.3125 0 0.640625 0.09375q0.34375 0.09375 0.984375 0.359375q0.359375 0.15625 0.53125 0.203125q0.1875 0.046875 0.375 0.046875q0.328125 0 0.6875 -0.203125q0.375 -0.203125 0.65625 -0.515625l0 1.109375q-0.34375 0.3125 -0.6875 0.453125q-0.328125 0.140625 -0.765625 0.140625q-0.3125 0 -0.59375 -0.0625q-0.28125 -0.078125 -0.90625 -0.359375q-0.609375 -0.28125 -1.015625 -0.28125q-0.328125 0 -0.625 0.15625q-0.296875 0.140625 -0.734375 0.5625zm12.699356 2.890625l-0.9375 0l0 -5.96875q-0.34375 0.328125 -0.890625 0.65625q-0.546875 0.3125 -0.984375 0.46875l0 -0.90625q0.796875 -0.359375 1.375 -0.890625q0.59375 -0.53125 0.828125 -1.015625l0.609375 0l0 7.65625zm2.3952484 -3.765625q0 -1.34375 0.28125 -2.171875q0.28125 -0.828125 0.828125 -1.265625q0.546875 -0.453125 1.375 -0.453125q0.625 0 1.078125 0.25q0.46875 0.234375 0.765625 0.703125q0.3125 0.46875 0.484375 1.140625q0.171875 0.671875 0.171875 1.796875q0 1.34375 -0.28125 2.171875q-0.28125 0.828125 -0.828125 1.28125q-0.546875 0.4375 -1.390625 0.4375q-1.09375 0 -1.71875 -0.78125q-0.765625 -0.953125 -0.765625 -3.109375zm0.96875 0q0 1.875 0.4375 2.5q0.4375 0.625 1.078125 0.625q0.65625 0 1.09375 -0.625q0.4375 -0.625 0.4375 -2.5q0 -1.875 -0.4375 -2.5q-0.4375 -0.625 -1.09375 -0.625q-0.640625 0 -1.03125 0.546875q-0.484375 0.703125 -0.484375 2.578125zm8.168396 3.765625l0 -7.625l0.9375 0l0 7.625l-0.9375 0zm5.9924774 -0.6875q-0.53125 0.453125 -1.015625 0.640625q-0.46875 0.171875 -1.015625 0.171875q-0.921875 0 -1.40625 -0.4375q-0.484375 -0.453125 -0.484375 -1.140625q0 -0.40625 0.171875 -0.734375q0.1875 -0.34375 0.484375 -0.546875q0.3125 -0.203125 0.6875 -0.3125q0.265625 -0.0625 0.828125 -0.140625q1.125 -0.125 1.671875 -0.3125q0 -0.203125 0 -0.25q0 -0.578125 -0.265625 -0.8125q-0.359375 -0.3125 -1.0625 -0.3125q-0.65625 0 -0.984375 0.234375q-0.3125 0.234375 -0.453125 0.8125l-0.921875 -0.125q0.125 -0.578125 0.40625 -0.9375q0.296875 -0.375 0.828125 -0.5625q0.546875 -0.203125 1.25 -0.203125q0.71875 0 1.15625 0.171875q0.4375 0.171875 0.640625 0.421875q0.21875 0.25 0.296875 0.640625q0.046875 0.234375 0.046875 0.859375l0 1.25q0 1.296875 0.0625 1.65625q0.0625 0.34375 0.234375 0.65625l-0.96875 0q-0.15625 -0.296875 -0.1875 -0.6875zm-0.078125 -2.078125q-0.515625 0.203125 -1.53125 0.34375q-0.578125 0.078125 -0.828125 0.1875q-0.234375 0.109375 -0.359375 0.3125q-0.125 0.1875 -0.125 0.4375q0 0.375 0.28125 0.625q0.28125 0.25 0.828125 0.25q0.53125 0 0.953125 -0.234375q0.421875 -0.234375 0.625 -0.65625q0.15625 -0.3125 0.15625 -0.9375l0 -0.328125zm4.4421234 1.921875l0.125 0.828125q-0.390625 0.09375 -0.703125 0.09375q-0.5 0 -0.78125 -0.15625q-0.28125 -0.171875 -0.40625 -0.4375q-0.109375 -0.265625 -0.109375 -1.109375l0 -3.171875l-0.6875 0l0 -0.734375l0.6875 0l0 -1.359375l0.9375 -0.5625l0 1.921875l0.9375 0l0 0.734375l-0.9375 0l0 3.234375q0 0.390625 0.046875 0.515625q0.046875 0.109375 0.15625 0.1875q0.109375 0.0625 0.328125 0.0625q0.15625 0 0.40625 -0.046875z" fill-rule="nonzero"/><path fill="#ffffff" d="m284.7638 253.79527l10.462067 -2.243805l2.246582 -10.449112l2.246582 10.449112l10.462067 2.243805l-10.462067 2.2438202l-2.246582 10.449097l-2.246582 -10.449097z" fill-rule="evenodd"/><path stroke="#ffffff" stroke-width="1.0" stroke-linejoin="round" stroke-linecap="butt" d="m284.7638 253.79527l10.462067 -2.243805l2.246582 -10.449112l2.246582 10.449112l10.462067 2.243805l-10.462067 2.2438202l-2.246582 10.449097l-2.246582 -10.449097z" fill-rule="evenodd"/><path fill="#000000" fill-opacity="0.0" d="m285.3737 216.80577l61.637787 0l0 32.692917l-61.637787 0z" fill-rule="evenodd"/><path fill="#ffffff" d="m298.34244 236.04578l-0.9375 0l0 -5.96875q-0.34375 0.328125 -0.890625 0.65625q-0.546875 0.3125 -0.984375 0.46875l0 -0.90625q0.796875 -0.359375 1.375 -0.890625q0.59375 -0.53125 0.828125 -1.015625l0.609375 0l0 7.65625zm2.4108582 -2.015625l0.9375 -0.125q0.15625 0.796875 0.546875 1.15625q0.390625 0.34375 0.9375 0.34375q0.65625 0 1.109375 -0.453125q0.46875 -0.46875 0.46875 -1.140625q0 -0.640625 -0.421875 -1.0625q-0.421875 -0.421875 -1.078125 -0.421875q-0.265625 0 -0.65625 0.109375l0.109375 -0.828125q0.09375 0.015625 0.140625 0.015625q0.59375 0 1.078125 -0.3125q0.484375 -0.3125 0.484375 -0.96875q0 -0.515625 -0.359375 -0.84375q-0.34375 -0.34375 -0.890625 -0.34375q-0.546875 0 -0.921875 0.34375q-0.359375 0.34375 -0.453125 1.03125l-0.9375 -0.171875q0.171875 -0.9375 0.78125 -1.453125q0.609375 -0.515625 1.5 -0.515625q0.625 0 1.15625 0.265625q0.53125 0.265625 0.796875 0.734375q0.28125 0.453125 0.28125 0.984375q0 0.484375 -0.265625 0.890625q-0.265625 0.40625 -0.78125 0.65625q0.671875 0.15625 1.046875 0.65625q0.375 0.484375 0.375 1.21875q0 1.0 -0.734375 1.703125q-0.71875 0.6875 -1.828125 0.6875q-1.0 0 -1.671875 -0.59375q-0.65625 -0.609375 -0.75 -1.5625zm5.8171387 -0.28125l0 -0.9375l2.875 0l0 0.9375l-2.875 0zm7.1736145 2.296875l-0.9375 0l0 -5.96875q-0.34375 0.328125 -0.890625 0.65625q-0.546875 0.3125 -0.984375 0.46875l0 -0.90625q0.796875 -0.359375 1.375 -0.890625q0.59375 -0.53125 0.828125 -1.015625l0.609375 0l0 7.65625zm2.3952332 -2.0l0.984375 -0.078125q0.109375 0.71875 0.5 1.078125q0.40625 0.359375 0.96875 0.359375q0.671875 0 1.140625 -0.5q0.46875 -0.515625 0.46875 -1.359375q0 -0.796875 -0.453125 -1.265625q-0.4375 -0.46875 -1.171875 -0.46875q-0.453125 0 -0.8125 0.21875q-0.359375 0.203125 -0.578125 0.53125l-0.875 -0.125l0.734375 -3.921875l3.796875 0l0 0.90625l-3.046875 0l-0.40625 2.046875q0.6875 -0.484375 1.4375 -0.484375q1.0 0 1.6875 0.703125q0.6875 0.6875 0.6875 1.765625q0 1.046875 -0.609375 1.796875q-0.734375 0.921875 -2.0 0.921875q-1.03125 0 -1.703125 -0.578125q-0.65625 -0.578125 -0.75 -1.546875zm9.137146 2.0l0 -7.625l0.9375 0l0 7.625l-0.9375 0zm5.9924927 -0.6875q-0.53125 0.453125 -1.015625 0.640625q-0.46875 0.171875 -1.015625 0.171875q-0.921875 0 -1.40625 -0.4375q-0.484375 -0.453125 -0.484375 -1.140625q0 -0.40625 0.171875 -0.734375q0.1875 -0.34375 0.484375 -0.546875q0.3125 -0.203125 0.6875 -0.3125q0.265625 -0.0625 0.828125 -0.140625q1.125 -0.125 1.671875 -0.3125q0 -0.203125 0 -0.25q0 -0.578125 -0.265625 -0.8125q-0.359375 -0.3125 -1.0625 -0.3125q-0.65625 0 -0.984375 0.234375q-0.3125 0.234375 -0.453125 0.8125l-0.921875 -0.125q0.125 -0.578125 0.40625 -0.9375q0.296875 -0.375 0.828125 -0.5625q0.546875 -0.203125 1.25 -0.203125q0.71875 0 1.15625 0.171875q0.4375 0.171875 0.640625 0.421875q0.21875 0.25 0.296875 0.640625q0.046875 0.234375 0.046875 0.859375l0 1.25q0 1.296875 0.0625 1.65625q0.0625 0.34375 0.234375 0.65625l-0.96875 0q-0.15625 -0.296875 -0.1875 -0.6875zm-0.078125 -2.078125q-0.515625 0.203125 -1.53125 0.34375q-0.578125 0.078125 -0.828125 0.1875q-0.234375 0.109375 -0.359375 0.3125q-0.125 0.1875 -0.125 0.4375q0 0.375 0.28125 0.625q0.28125 0.25 0.828125 0.25q0.53125 0 0.953125 -0.234375q0.421875 -0.234375 0.625 -0.65625q0.15625 -0.3125 0.15625 -0.9375l0 -0.328125zm4.442108 1.921875l0.125 0.828125q-0.390625 0.09375 -0.703125 0.09375q-0.5 0 -0.78125 -0.15625q-0.28125 -0.171875 -0.40625 -0.4375q-0.109375 -0.265625 -0.109375 -1.109375l0 -3.171875l-0.6875 0l0 -0.734375l0.6875 0l0 -1.359375l0.9375 -0.5625l0 1.921875l0.9375 0l0 0.734375l-0.9375 0l0 3.234375q0 0.390625 0.046875 0.515625q0.046875 0.109375 0.15625 0.1875q0.109375 0.0625 0.328125 0.0625q0.15625 0 0.40625 -0.046875z" fill-rule="nonzero"/><path fill="#000000" d="m685.29285 253.79527l10.462097 -2.243805l2.246582 -10.449112l2.246582 10.449112l10.462097 2.243805l-10.462097 2.2438202l-2.246582 10.449097l-2.246582 -10.449097z" fill-rule="evenodd"/><path stroke="#ffffff" stroke-width="1.0" stroke-linejoin="round" stroke-linecap="butt" d="m685.29285 253.79527l10.462097 -2.243805l2.246582 -10.449112l2.246582 10.449112l10.462097 2.243805l-10.462097 2.2438202l-2.246582 10.449097l-2.246582 -10.449097z" fill-rule="evenodd"/><path fill="#000000" fill-opacity="0.0" d="m675.8387 216.80577l61.637756 0l0 32.692917l-61.637756 0z" fill-rule="evenodd"/><path fill="#ffffff" d="m685.2918 233.15515l0 -1.078125q0.546875 -0.625 1.453125 -0.625q0.3125 0 0.640625 0.09375q0.34375 0.09375 0.984375 0.359375q0.359375 0.15625 0.53125 0.203125q0.1875 0.046875 0.375 0.046875q0.328125 0 0.6875 -0.203125q0.375 -0.203125 0.65625 -0.515625l0 1.109375q-0.34375 0.3125 -0.6875 0.453125q-0.328125 0.140625 -0.765625 0.140625q-0.3125 0 -0.59375 -0.0625q-0.28125 -0.078125 -0.90625 -0.359375q-0.609375 -0.28125 -1.015625 -0.28125q-0.328125 0 -0.625 0.15625q-0.296875 0.140625 -0.734375 0.5625zm12.699341 2.890625l-0.9375 0l0 -5.96875q-0.34375 0.328125 -0.890625 0.65625q-0.546875 0.3125 -0.984375 0.46875l0 -0.90625q0.796875 -0.359375 1.375 -0.890625q0.59375 -0.53125 0.828125 -1.015625l0.609375 0l0 7.65625zm2.3952637 -3.765625q0 -1.34375 0.28125 -2.171875q0.28125 -0.828125 0.828125 -1.265625q0.546875 -0.453125 1.375 -0.453125q0.625 0 1.078125 0.25q0.46875 0.234375 0.765625 0.703125q0.3125 0.46875 0.484375 1.140625q0.171875 0.671875 0.171875 1.796875q0 1.34375 -0.28125 2.171875q-0.28125 0.828125 -0.828125 1.28125q-0.546875 0.4375 -1.390625 0.4375q-1.09375 0 -1.71875 -0.78125q-0.765625 -0.953125 -0.765625 -3.109375zm0.96875 0q0 1.875 0.4375 2.5q0.4375 0.625 1.078125 0.625q0.65625 0 1.09375 -0.625q0.4375 -0.625 0.4375 -2.5q0 -1.875 -0.4375 -2.5q-0.4375 -0.625 -1.09375 -0.625q-0.640625 0 -1.03125 0.546875q-0.484375 0.703125 -0.484375 2.578125zm8.488953 3.765625l-0.9375 0l0 -5.96875q-0.34375 0.328125 -0.890625 0.65625q-0.546875 0.3125 -0.984375 0.46875l0 -0.90625q0.796875 -0.359375 1.375 -0.890625q0.59375 -0.53125 0.828125 -1.015625l0.609375 0l0 7.65625zm5.605896 0l0 -7.625l0.9375 0l0 7.625l-0.9375 0zm5.9924927 -0.6875q-0.53125 0.453125 -1.015625 0.640625q-0.46875 0.171875 -1.015625 0.171875q-0.921875 0 -1.40625 -0.4375q-0.484375 -0.453125 -0.484375 -1.140625q0 -0.40625 0.171875 -0.734375q0.1875 -0.34375 0.484375 -0.546875q0.3125 -0.203125 0.6875 -0.3125q0.265625 -0.0625 0.828125 -0.140625q1.125 -0.125 1.671875 -0.3125q0 -0.203125 0 -0.25q0 -0.578125 -0.265625 -0.8125q-0.359375 -0.3125 -1.0625 -0.3125q-0.65625 0 -0.984375 0.234375q-0.3125 0.234375 -0.453125 0.8125l-0.921875 -0.125q0.125 -0.578125 0.40625 -0.9375q0.296875 -0.375 0.828125 -0.5625q0.546875 -0.203125 1.25 -0.203125q0.71875 0 1.15625 0.171875q0.4375 0.171875 0.640625 0.421875q0.21875 0.25 0.296875 0.640625q0.046875 0.234375 0.046875 0.859375l0 1.25q0 1.296875 0.0625 1.65625q0.0625 0.34375 0.234375 0.65625l-0.96875 0q-0.15625 -0.296875 -0.1875 -0.6875zm-0.078125 -2.078125q-0.515625 0.203125 -1.53125 0.34375q-0.578125 0.078125 -0.828125 0.1875q-0.234375 0.109375 -0.359375 0.3125q-0.125 0.1875 -0.125 0.4375q0 0.375 0.28125 0.625q0.28125 0.25 0.828125 0.25q0.53125 0 0.953125 -0.234375q0.421875 -0.234375 0.625 -0.65625q0.15625 -0.3125 0.15625 -0.9375l0 -0.328125zm4.4421387 1.921875l0.125 0.828125q-0.390625 0.09375 -0.703125 0.09375q-0.5 0 -0.78125 -0.15625q-0.28125 -0.171875 -0.40625 -0.4375q-0.109375 -0.265625 -0.109375 -1.109375l0 -3.171875l-0.6875 0l0 -0.734375l0.6875 0l0 -1.359375l0.9375 -0.5625l0 1.921875l0.9375 0l0 0.734375l-0.9375 0l0 3.234375q0 0.390625 0.046875 0.515625q0.046875 0.109375 0.15625 0.1875q0.109375 0.0625 0.328125 0.0625q0.15625 0 0.40625 -0.046875z" fill-rule="nonzero"/></g></svg>