<svg version="1.1" viewBox="0.0 0.0 786.2073490813648 287.93175853018374" fill="none" stroke="none" stroke-linecap="square" stroke-miterlimit="10" xmlns:xlink="http://www.w3.org/1999/xlink" xmlns="http://www.w3.org/2000/svg"><clipPath id="p.0"><path d="m0 0l786.20734 0l0 287.93176l-786.20734 0l0 -287.93176z" clip-rule="nonzero"/></clipPath><g clip-path="url(#p.0)"><path fill="#000000" fill-opacity="0.0" d="m0 0l786.20734 0l0 287.93176l-786.20734 0z" fill-rule="evenodd"/><path stroke="#ffffff" stroke-width="2.0" stroke-linecap="butt" d="m120.27034 46.53018l0 52.55906" fill-rule="nonzero"/><path stroke="#ffffff" stroke-width="2.0" stroke-linecap="butt" d="m236.53806 97.08924l0 52.55906" fill-rule="nonzero"/><path stroke="#ffffff" stroke-width="2.0" stroke-linecap="butt" d="m352.8058 147.6483l0 52.55905" fill-rule="nonzero"/><path stroke="#ffffff" stroke-width="2.0" stroke-linecap="butt" d="m119.27034 47.53018l349.80316 0" fill-rule="nonzero"/><path stroke="#ffffff" stroke-width="2.0" stroke-linecap="butt" stroke-dasharray="2.0,6.0" d="m469.0735 47.53018l233.20209 0" fill-rule="nonzero"/><path stroke="#ffffff" stroke-width="2.0" stroke-linecap="butt" d="m119.27034 98.08924l349.80316 0" fill-rule="nonzero"/><path stroke="#ffffff" stroke-width="2.0" stroke-linecap="butt" stroke-dasharray="2.0,6.0" d="m469.0735 98.08924l233.20209 0" fill-rule="nonzero"/><path stroke="#ffffff" stroke-width="2.0" stroke-linecap="butt" d="m235.53806 148.6483l232.86877 0" fill-rule="nonzero"/><path stroke="#ffffff" stroke-width="2.0" stroke-linecap="butt" stroke-dasharray="2.0,6.0" d="m468.40683 148.6483l233.20212 0" fill-rule="nonzero"/><path stroke="#ffffff" stroke-width="2.0" stroke-linecap="butt" d="m351.8058 199.20735l116.60104 0" fill-rule="nonzero"/><path stroke="#ffffff" stroke-width="2.0" stroke-linecap="butt" stroke-dasharray="2.0,6.0" d="m468.40683 199.20735l233.20212 0" fill-rule="nonzero"/><path fill="#ffffff" d="m10.2994995 77.88971l0 -1.28125l5.375 -6.734375q0.5625 -0.703125 1.078125 -1.234375l-5.84375 0l0 -1.234375l7.515625 0l0 1.234375l-5.890625 7.28125l-0.640625 0.734375l6.703125 0l0 1.234375l-8.296875 0zm14.577621 -0.9375q-0.71875 0.609375 -1.375 0.859375q-0.65625 0.25 -1.421875 0.25q-1.25 0 -1.921875 -0.609375q-0.671875 -0.609375 -0.671875 -1.5625q0 -0.5625 0.25 -1.015625q0.25 -0.46875 0.65625 -0.75q0.421875 -0.28125 0.9375 -0.421875q0.375 -0.09375 1.140625 -0.1875q1.5625 -0.1875 2.296875 -0.453125q0.015625 -0.265625 0.015625 -0.328125q0 -0.796875 -0.375 -1.109375q-0.484375 -0.4375 -1.453125 -0.4375q-0.921875 0 -1.359375 0.328125q-0.421875 0.3125 -0.625 1.109375l-1.265625 -0.171875q0.171875 -0.796875 0.5625 -1.296875q0.390625 -0.5 1.140625 -0.765625q0.75 -0.265625 1.71875 -0.265625q0.984375 0 1.59375 0.234375q0.609375 0.21875 0.890625 0.5625q0.28125 0.34375 0.40625 0.875q0.0625 0.328125 0.0625 1.1875l0 1.71875q0 1.796875 0.078125 2.28125q0.078125 0.46875 0.328125 0.90625l-1.34375 0q-0.203125 -0.40625 -0.265625 -0.9375zm-0.109375 -2.875q-0.703125 0.28125 -2.09375 0.484375q-0.796875 0.109375 -1.125 0.265625q-0.328125 0.140625 -0.515625 0.421875q-0.171875 0.265625 -0.171875 0.59375q0 0.515625 0.390625 0.859375q0.390625 0.34375 1.140625 0.34375q0.734375 0 1.3125 -0.3125q0.59375 -0.328125 0.859375 -0.890625q0.203125 -0.4375 0.203125 -1.296875l0 -0.46875zm8.260483 1.03125l1.265625 0.15625q-0.203125 1.3125 -1.0625 2.0625q-0.84375 0.734375 -2.09375 0.734375q-1.5625 0 -2.515625 -1.015625q-0.9375 -1.03125 -0.9375 -2.921875q0 -1.234375 0.40625 -2.15625q0.40625 -0.921875 1.234375 -1.375q0.84375 -0.46875 1.8125 -0.46875q1.25 0 2.03125 0.625q0.78125 0.625 1.015625 1.765625l-1.265625 0.203125q-0.171875 -0.765625 -0.625 -1.15625q-0.453125 -0.390625 -1.09375 -0.390625q-0.984375 0 -1.59375 0.703125q-0.609375 0.703125 -0.609375 2.203125q0 1.53125 0.578125 2.234375q0.59375 0.6875 1.546875 0.6875q0.75 0 1.265625 -0.453125q0.515625 -0.46875 0.640625 -1.4375zm2.375 2.78125l0 -10.484375l1.28125 0l0 3.75q0.90625 -1.03125 2.28125 -1.03125q0.84375 0 1.46875 0.328125q0.625 0.328125 0.890625 0.921875q0.265625 0.578125 0.265625 1.703125l0 4.8125l-1.28125 0l0 -4.8125q0 -0.96875 -0.421875 -1.40625q-0.421875 -0.4375 -1.1875 -0.4375q-0.578125 0 -1.078125 0.296875q-0.5 0.296875 -0.71875 0.8125q-0.21875 0.5 -0.21875 1.390625l0 4.15625l-1.28125 0zm7.666733 -3.796875q0 -2.109375 1.171875 -3.125q0.984375 -0.84375 2.390625 -0.84375q1.578125 0 2.5625 1.03125q1.0 1.015625 1.0 2.828125q0 1.46875 -0.4375 2.3125q-0.4375 0.828125 -1.28125 1.296875q-0.84375 0.46875 -1.84375 0.46875q-1.59375 0 -2.578125 -1.015625q-0.984375 -1.03125 -0.984375 -2.953125zm1.328125 0q0 1.453125 0.625 2.1875q0.640625 0.71875 1.609375 0.71875q0.96875 0 1.59375 -0.71875q0.640625 -0.734375 0.640625 -2.234375q0 -1.40625 -0.640625 -2.125q-0.640625 -0.734375 -1.59375 -0.734375q-0.96875 0 -1.609375 0.71875q-0.625 0.71875 -0.625 2.1875zm8.713608 3.796875l-2.328125 -7.59375l1.328125 0l1.203125 4.375l0.453125 1.640625q0.03125 -0.125 0.390625 -1.578125l1.21875 -4.4375l1.328125 0l1.125 4.40625l0.390625 1.453125l0.4375 -1.46875l1.296875 -4.390625l1.25 0l-2.375 7.59375l-1.34375 0l-1.203125 -4.546875l-0.296875 -1.296875l-1.53125 5.84375l-1.34375 0zm14.131149 -0.9375q-0.71875 0.609375 -1.375 0.859375q-0.65625 0.25 -1.421875 0.25q-1.25 0 -1.921875 -0.609375q-0.671875 -0.609375 -0.671875 -1.5625q0 -0.5625 0.25 -1.015625q0.25 -0.46875 0.65625 -0.75q0.421875 -0.28125 0.9375 -0.421875q0.375 -0.09375 1.140625 -0.1875q1.5625 -0.1875 2.296875 -0.453125q0.015625 -0.265625 0.015625 -0.328125q0 -0.796875 -0.375 -1.109375q-0.484375 -0.4375 -1.453125 -0.4375q-0.921875 0 -1.359375 0.328125q-0.421875 0.3125 -0.625 1.109375l-1.265625 -0.171875q0.171875 -0.796875 0.5625 -1.296875q0.390625 -0.5 1.140625 -0.765625q0.75 -0.265625 1.71875 -0.265625q0.984375 0 1.59375 0.234375q0.609375 0.21875 0.890625 0.5625q0.28125 0.34375 0.40625 0.875q0.0625 0.328125 0.0625 1.1875l0 1.71875q0 1.796875 0.078125 2.28125q0.078125 0.46875 0.328125 0.90625l-1.34375 0q-0.203125 -0.40625 -0.265625 -0.9375zm-0.109375 -2.875q-0.703125 0.28125 -2.09375 0.484375q-0.796875 0.109375 -1.125 0.265625q-0.328125 0.140625 -0.515625 0.421875q-0.171875 0.265625 -0.171875 0.59375q0 0.515625 0.390625 0.859375q0.390625 0.34375 1.140625 0.34375q0.734375 0 1.3125 -0.3125q0.59375 -0.328125 0.859375 -0.890625q0.203125 -0.4375 0.203125 -1.296875l0 -0.46875zm3.3073578 3.8125l0 -7.59375l1.15625 0l0 1.078125q0.84375 -1.25 2.421875 -1.25q0.6875 0 1.265625 0.25q0.578125 0.234375 0.859375 0.640625q0.28125 0.40625 0.40625 0.953125q0.0625 0.359375 0.0625 1.25l0 4.671875l-1.28125 0l0 -4.625q0 -0.78125 -0.15625 -1.171875q-0.15625 -0.390625 -0.546875 -0.625q-0.375 -0.234375 -0.890625 -0.234375q-0.8125 0 -1.421875 0.53125q-0.59375 0.515625 -0.59375 1.96875l0 4.15625l-1.28125 0zm8.151108 -9.015625l0 -1.46875l1.296875 0l0 1.46875l-1.296875 0zm0 9.015625l0 -7.59375l1.296875 0l0 7.59375l-1.296875 0zm8.209274 -0.9375q-0.71875 0.609375 -1.375 0.859375q-0.65625 0.25 -1.421875 0.25q-1.25 0 -1.921875 -0.609375q-0.671875 -0.609375 -0.671875 -1.5625q0 -0.5625 0.25 -1.015625q0.25 -0.46875 0.65625 -0.75q0.421875 -0.28125 0.9375 -0.421875q0.375 -0.09375 1.140625 -0.1875q1.5625 -0.1875 2.296875 -0.453125q0.015625 -0.265625 0.015625 -0.328125q0 -0.796875 -0.375 -1.109375q-0.484375 -0.4375 -1.453125 -0.4375q-0.921875 0 -1.359375 0.328125q-0.421875 0.3125 -0.625 1.109375l-1.265625 -0.171875q0.171875 -0.796875 0.5625 -1.296875q0.390625 -0.5 1.140625 -0.765625q0.75 -0.265625 1.71875 -0.265625q0.984375 0 1.59375 0.234375q0.609375 0.21875 0.890625 0.5625q0.28125 0.34375 0.40625 0.875q0.0625 0.328125 0.0625 1.1875l0 1.71875q0 1.796875 0.078125 2.28125q0.078125 0.46875 0.328125 0.90625l-1.34375 0q-0.203125 -0.40625 -0.265625 -0.9375zm-0.109375 -2.875q-0.703125 0.28125 -2.09375 0.484375q-0.796875 0.109375 -1.125 0.265625q-0.328125 0.140625 -0.515625 0.421875q-0.171875 0.265625 -0.171875 0.59375q0 0.515625 0.390625 0.859375q0.390625 0.34375 1.140625 0.34375q0.734375 0 1.3125 -0.3125q0.59375 -0.328125 0.859375 -0.890625q0.203125 -0.4375 0.203125 -1.296875l0 -0.46875z" fill-rule="nonzero"/><path fill="#ffffff" d="m126.42659 77.88971l0 -1.90625l5.515625 -6.8125l-4.890625 0l0 -1.765625l7.671875 0l0 1.640625l-5.734375 7.078125l5.96875 0l0 1.765625l-8.53125 0z" fill-rule="nonzero"/><path fill="#ffffff" d="m12.9713745 128.44876l-2.796875 -10.484367l1.4375 0l1.59375 6.875q0.25 1.078125 0.4375 2.140625q0.40625 -1.6875 0.46875 -1.9375l2.0 -7.078125l1.671875 0l1.5 5.296875q0.578125 1.984375 0.828125 3.71875q0.203125 -1.0 0.515625 -2.28125l1.640625 -6.734375l1.40625 0l-2.875 10.484367l-1.34375 0l-2.203125 -7.9999924q-0.28125 -1.0 -0.34375 -1.21875q-0.15625 0.71875 -0.296875 1.21875l-2.234375 7.9999924l-1.40625 0zm16.242126 -0.9374924q-0.71875 0.6093674 -1.375 0.8593674q-0.65625 0.25 -1.421875 0.25q-1.25 0 -1.921875 -0.609375q-0.671875 -0.6093674 -0.671875 -1.5624924q0 -0.5625 0.25 -1.015625q0.25 -0.46875 0.65625 -0.75q0.421875 -0.28125 0.9375 -0.421875q0.375 -0.09375 1.140625 -0.1875q1.5625 -0.1875 2.296875 -0.453125q0.015625 -0.265625 0.015625 -0.328125q0 -0.796875 -0.375 -1.109375q-0.484375 -0.4375 -1.453125 -0.4375q-0.921875 0 -1.359375 0.328125q-0.421875 0.3125 -0.625 1.109375l-1.265625 -0.171875q0.171875 -0.796875 0.5625 -1.296875q0.390625 -0.5 1.140625 -0.765625q0.75 -0.265625 1.71875 -0.265625q0.984375 0 1.59375 0.234375q0.609375 0.21875 0.890625 0.5625q0.28125 0.34375 0.40625 0.875q0.0625 0.328125 0.0625 1.1875l0 1.71875q0 1.796875 0.078125 2.28125q0.078125 0.46874237 0.328125 0.9062424l-1.34375 0q-0.203125 -0.40625 -0.265625 -0.9374924zm-0.109375 -2.875q-0.703125 0.28125 -2.09375 0.484375q-0.796875 0.109375 -1.125 0.265625q-0.328125 0.140625 -0.515625 0.421875q-0.171875 0.265625 -0.171875 0.59375q0 0.515625 0.390625 0.859375q0.390625 0.34375 1.140625 0.34375q0.734375 0 1.3125 -0.3125q0.59375 -0.328125 0.859375 -0.890625q0.203125 -0.4375 0.203125 -1.296875l0 -0.46875zm3.2917328 3.8124924l0 -7.5937424l1.15625 0l0 1.140625q0.453125 -0.796875 0.828125 -1.046875q0.375 -0.265625 0.8125 -0.265625q0.65625 0 1.328125 0.40625l-0.4375 1.203125q-0.46875 -0.28125 -0.953125 -0.28125q-0.421875 0 -0.765625 0.25q-0.328125 0.25 -0.46875 0.703125q-0.21875 0.6875 -0.21875 1.5l0 3.9843674l-1.28125 0zm7.7087708 -1.1562424l0.1875 1.1406174q-0.546875 0.109375 -0.984375 0.109375q-0.6875 0 -1.078125 -0.21875q-0.390625 -0.21875 -0.546875 -0.5781174q-0.15625 -0.359375 -0.15625 -1.515625l0 -4.375l-0.953125 0l0 -1.0l0.953125 0l0 -1.890625l1.28125 -0.765625l0 2.65625l1.296875 0l0 1.0l-1.296875 0l0 4.4375q0 0.546875 0.0625 0.71875q0.078125 0.15625 0.21875 0.25q0.15625 0.078125 0.453125 0.078125q0.203125 0 0.5625 -0.046875zm0.7751007 -2.640625q0 -2.109375 1.171875 -3.125q0.984375 -0.84375 2.390625 -0.84375q1.578125 0 2.5625 1.03125q1.0 1.015625 1.0 2.828125q0 1.46875 -0.4375 2.3125q-0.4375 0.828125 -1.28125 1.2968674q-0.84375 0.46875 -1.84375 0.46875q-1.59375 0 -2.578125 -1.0156174q-0.984375 -1.03125 -0.984375 -2.953125zm1.328125 0q0 1.453125 0.625 2.1875q0.640625 0.71875 1.609375 0.71875q0.96875 0 1.59375 -0.71875q0.640625 -0.734375 0.640625 -2.234375q0 -1.40625 -0.640625 -2.125q-0.640625 -0.734375 -1.59375 -0.734375q-0.96875 0 -1.609375 0.71875q-0.625 0.71875 -0.625 2.1875zm6.791733 1.53125l1.265625 -0.203125q0.109375 0.765625 0.59375 1.171875q0.5 0.40625 1.375 0.40625q0.890625 0 1.3125 -0.359375q0.4375 -0.359375 0.4375 -0.84375q0 -0.4375 -0.375 -0.6875q-0.265625 -0.171875 -1.3125 -0.4375q-1.421875 -0.359375 -1.96875 -0.609375q-0.546875 -0.265625 -0.828125 -0.734375q-0.28125 -0.46875 -0.28125 -1.015625q0 -0.515625 0.21875 -0.9375q0.234375 -0.4375 0.640625 -0.734375q0.296875 -0.21875 0.8125 -0.359375q0.53125 -0.15625 1.125 -0.15625q0.890625 0 1.5625 0.265625q0.671875 0.25 1.0 0.6875q0.328125 0.4375 0.4375 1.171875l-1.25 0.171875q-0.09375 -0.578125 -0.5 -0.90625q-0.40625 -0.34375 -1.15625 -0.34375q-0.890625 0 -1.28125 0.296875q-0.375 0.296875 -0.375 0.6875q0 0.25 0.15625 0.453125q0.15625 0.203125 0.5 0.34375q0.1875 0.078125 1.140625 0.328125q1.359375 0.359375 1.890625 0.59375q0.546875 0.234375 0.859375 0.6875q0.3125 0.4375 0.3125 1.09375q0 0.640625 -0.375 1.21875q-0.375 0.5625 -1.09375 0.8749924q-0.703125 0.3125 -1.59375 0.3125q-1.484375 0 -2.265625 -0.609375q-0.765625 -0.6249924 -0.984375 -1.8281174zm2.375 -6.28125l0.953125 -2.0l1.6875 0l-1.578125 2.0l-1.0625 0zm10.421875 5.765625l1.265625 0.15625q-0.203125 1.3125 -1.0625 2.0625q-0.84375 0.7343674 -2.09375 0.7343674q-1.5625 0 -2.515625 -1.0156174q-0.9375 -1.03125 -0.9375 -2.921875q0 -1.234375 0.40625 -2.15625q0.40625 -0.921875 1.234375 -1.375q0.84375 -0.46875 1.8125 -0.46875q1.25 0 2.03125 0.625q0.78125 0.625 1.015625 1.765625l-1.265625 0.203125q-0.171875 -0.765625 -0.625 -1.15625q-0.453125 -0.390625 -1.09375 -0.390625q-0.984375 0 -1.59375 0.703125q-0.609375 0.703125 -0.609375 2.203125q0 1.53125 0.578125 2.234375q0.59375 0.6875 1.546875 0.6875q0.75 0 1.265625 -0.453125q0.515625 -0.46875 0.640625 -1.4375zm2.375 -6.234375l0 -1.46875l1.296875 0l0 1.46875l-1.296875 0zm0 9.015617l0 -7.5937424l1.296875 0l0 7.5937424l-1.296875 0z" fill-rule="nonzero"/><path fill="#b7b7b7" d="m126.33284 128.44876l4.0625 -5.4687424l-3.578125 -5.015625l1.65625 0l1.890625 2.6875q0.59375 0.828125 0.84375 1.28125q0.359375 -0.5625 0.84375 -1.1875l2.109375 -2.78125l1.5 0l-3.6875 4.9375l3.984375 5.5468674l-1.71875 0l-2.640625 -3.7499924q-0.21875 -0.3125 -0.46875 -0.6875q-0.34375 0.5625 -0.5 0.78125l-2.625 3.6562424l-1.671875 0z" fill-rule="nonzero"/><path fill="#ffffff" d="m245.10056 128.44876l-2.515625 -10.484367l2.171875 0l1.578125 7.203125l1.921875 -7.203125l2.515625 0l1.84375 7.328125l1.609375 -7.328125l2.125 0l-2.546875 10.484367l-2.234375 0l-2.09375 -7.8437424l-2.078125 7.8437424l-2.296875 0z" fill-rule="nonzero"/><path fill="#ffffff" d="m9.9869995 179.00783l4.015625 -10.484375l1.5 0l4.296875 10.484375l-1.578125 0l-1.234375 -3.171875l-4.375 0l-1.15625 3.171875l-1.46875 0zm3.015625 -4.3125l3.5625 0l-1.09375 -2.90625q-0.5 -1.3125 -0.75 -2.171875q-0.203125 1.015625 -0.5625 2.0l-1.15625 3.078125zm7.7443542 4.3125l0 -10.484375l1.296875 0l0 5.96875l3.046875 -3.078125l1.671875 0l-2.90625 2.8125l3.1875 4.78125l-1.578125 0l-2.515625 -3.890625l-0.90625 0.875l0 3.015625l-1.296875 0zm6.8125 -2.265625l1.265625 -0.203125q0.109375 0.765625 0.59375 1.171875q0.5 0.40625 1.375 0.40625q0.890625 0 1.3125 -0.359375q0.4375 -0.359375 0.4375 -0.84375q0 -0.4375 -0.375 -0.6875q-0.265625 -0.171875 -1.3125 -0.4375q-1.421875 -0.359375 -1.96875 -0.609375q-0.546875 -0.265625 -0.828125 -0.734375q-0.28125 -0.46875 -0.28125 -1.015625q0 -0.515625 0.21875 -0.9375q0.234375 -0.4375 0.640625 -0.734375q0.296875 -0.21875 0.8125 -0.359375q0.53125 -0.15625 1.125 -0.15625q0.890625 0 1.5625 0.265625q0.671875 0.25 1.0 0.6875q0.328125 0.4375 0.4375 1.171875l-1.25 0.171875q-0.09375 -0.578125 -0.5 -0.90625q-0.40625 -0.34375 -1.15625 -0.34375q-0.890625 0 -1.28125 0.296875q-0.375 0.296875 -0.375 0.6875q0 0.25 0.15625 0.453125q0.15625 0.203125 0.5 0.34375q0.1875 0.078125 1.140625 0.328125q1.359375 0.359375 1.890625 0.59375q0.546875 0.234375 0.859375 0.6875q0.3125 0.4375 0.3125 1.09375q0 0.640625 -0.375 1.21875q-0.375 0.5625 -1.09375 0.875q-0.703125 0.3125 -1.59375 0.3125q-1.484375 0 -2.265625 -0.609375q-0.765625 -0.625 -0.984375 -1.828125zm7.828125 -6.734375l0 -1.484375l1.296875 0l0 1.484375l-1.296875 0zm-1.625 11.953125l0.25 -1.09375q0.375 0.09375 0.59375 0.09375q0.40625 0 0.59375 -0.265625q0.1875 -0.25 0.1875 -1.296875l0 -7.984375l1.296875 0l0 8.015625q0 1.390625 -0.375 1.953125q-0.453125 0.703125 -1.53125 0.703125q-0.53125 0 -1.015625 -0.125zm4.4123993 -6.75q0 -2.109375 1.171875 -3.125q0.984375 -0.84375 2.390625 -0.84375q1.578125 0 2.5625 1.03125q1.0 1.015625 1.0 2.828125q0 1.46875 -0.4375 2.3125q-0.4375 0.828125 -1.28125 1.296875q-0.84375 0.46875 -1.84375 0.46875q-1.59375 0 -2.578125 -1.015625q-0.984375 -1.03125 -0.984375 -2.953125zm1.328125 0q0 1.453125 0.625 2.1875q0.640625 0.71875 1.609375 0.71875q0.96875 0 1.59375 -0.71875q0.640625 -0.734375 0.640625 -2.234375q0 -1.40625 -0.640625 -2.125q-0.640625 -0.734375 -1.59375 -0.734375q-0.96875 0 -1.609375 0.71875q-0.625 0.71875 -0.625 2.1875zm7.307358 3.796875l0 -7.59375l1.15625 0l0 1.0625q0.34375 -0.5625 0.9375 -0.890625q0.609375 -0.34375 1.359375 -0.34375q0.84375 0 1.375 0.34375q0.546875 0.34375 0.765625 0.984375q0.90625 -1.328125 2.359375 -1.328125q1.125 0 1.734375 0.625q0.609375 0.625 0.609375 1.921875l0 5.21875l-1.28125 0l0 -4.78125q0 -0.78125 -0.125 -1.109375q-0.125 -0.34375 -0.453125 -0.546875q-0.328125 -0.21875 -0.78125 -0.21875q-0.796875 0 -1.328125 0.53125q-0.53125 0.53125 -0.53125 1.703125l0 4.421875l-1.28125 0l0 -4.9375q0 -0.859375 -0.3125 -1.28125q-0.3125 -0.4375 -1.03125 -0.4375q-0.546875 0 -1.015625 0.296875q-0.453125 0.28125 -0.671875 0.828125q-0.203125 0.546875 -0.203125 1.59375l0 3.9375l-1.28125 0zm17.161896 -0.9375q-0.71875 0.609375 -1.375 0.859375q-0.65625 0.25 -1.421875 0.25q-1.25 0 -1.921875 -0.609375q-0.671875 -0.609375 -0.671875 -1.5625q0 -0.5625 0.25 -1.015625q0.25 -0.46875 0.65625 -0.75q0.421875 -0.28125 0.9375 -0.421875q0.375 -0.09375 1.140625 -0.1875q1.5625 -0.1875 2.296875 -0.453125q0.015625 -0.265625 0.015625 -0.328125q0 -0.796875 -0.375 -1.109375q-0.484375 -0.4375 -1.453125 -0.4375q-0.921875 0 -1.359375 0.328125q-0.421875 0.3125 -0.625 1.109375l-1.265625 -0.171875q0.171875 -0.796875 0.5625 -1.296875q0.390625 -0.5 1.140625 -0.765625q0.75 -0.265625 1.71875 -0.265625q0.984375 0 1.59375 0.234375q0.609375 0.21875 0.890625 0.5625q0.28125 0.34375 0.40625 0.875q0.0625 0.328125 0.0625 1.1875l0 1.71875q0 1.796875 0.078125 2.28125q0.078125 0.46875 0.328125 0.90625l-1.34375 0q-0.203125 -0.40625 -0.265625 -0.9375zm-0.109375 -2.875q-0.703125 0.28125 -2.09375 0.484375q-0.796875 0.109375 -1.125 0.265625q-0.328125 0.140625 -0.515625 0.421875q-0.171875 0.265625 -0.171875 0.59375q0 0.515625 0.390625 0.859375q0.390625 0.34375 1.140625 0.34375q0.734375 0 1.3125 -0.3125q0.59375 -0.328125 0.859375 -0.890625q0.203125 -0.4375 0.203125 -1.296875l0 -0.46875zm6.119858 2.65625l0.1875 1.140625q-0.546875 0.109375 -0.984375 0.109375q-0.6875 0 -1.078125 -0.21875q-0.390625 -0.21875 -0.546875 -0.578125q-0.15625 -0.359375 -0.15625 -1.515625l0 -4.375l-0.953125 0l0 -1.0l0.953125 0l0 -1.890625l1.28125 -0.765625l0 2.65625l1.296875 0l0 1.0l-1.296875 0l0 4.4375q0 0.546875 0.0625 0.71875q0.078125 0.15625 0.21875 0.25q0.15625 0.078125 0.453125 0.078125q0.203125 0 0.5625 -0.046875zm1.1969757 4.078125l-0.140625 -1.203125q0.421875 0.109375 0.734375 0.109375q0.4375 0 0.6875 -0.140625q0.265625 -0.140625 0.421875 -0.40625q0.125 -0.1875 0.390625 -0.953125q0.046875 -0.109375 0.125 -0.3125l-2.890625 -7.609375l1.390625 0l1.578125 4.390625q0.3125 0.84375 0.546875 1.765625q0.234375 -0.890625 0.53125 -1.734375l1.625 -4.421875l1.296875 0l-2.890625 7.71875q-0.46875 1.25 -0.734375 1.734375q-0.34375 0.625 -0.78125 0.921875q-0.4375 0.296875 -1.0625 0.296875q-0.375 0 -0.828125 -0.15625z" fill-rule="nonzero"/><path fill="#999999" d="m126.33284 179.00783l4.0625 -5.46875l-3.578125 -5.015625l1.65625 0l1.890625 2.6875q0.59375 0.828125 0.84375 1.28125q0.359375 -0.5625 0.84375 -1.1875l2.109375 -2.78125l1.5 0l-3.6875 4.9375l3.984375 5.546875l-1.71875 0l-2.640625 -3.75q-0.21875 -0.3125 -0.46875 -0.6875q-0.34375 0.5625 -0.5 0.78125l-2.625 3.65625l-1.671875 0z" fill-rule="nonzero"/><path fill="#999999" d="m242.60056 179.00783l4.0625 -5.46875l-3.578125 -5.015625l1.65625 0l1.890625 2.6875q0.59375 0.828125 0.84375 1.28125q0.359375 -0.5625 0.84375 -1.1875l2.109375 -2.78125l1.5 0l-3.6875 4.9375l3.984375 5.546875l-1.71875 0l-2.640625 -3.75q-0.21875 -0.3125 -0.46875 -0.6875q-0.34375 0.5625 -0.5 0.78125l-2.625 3.65625l-1.671875 0z" fill-rule="nonzero"/><path fill="#ffffff" d="m369.33704 179.00783l-2.3125 0l-0.90625 -2.390625l-4.203125 0l-0.859375 2.390625l-2.25 0l4.09375 -10.484375l2.234375 0l4.203125 10.484375zm-3.90625 -4.15625l-1.4375 -3.890625l-1.421875 3.890625l2.859375 0z" fill-rule="nonzero"/><path fill="#000000" fill-opacity="0.0" d="m106.02248 253.79527l0 -253.79527" fill-rule="evenodd"/><path stroke="#ffffff" stroke-width="1.0" stroke-linejoin="round" stroke-linecap="butt" d="m106.022484 253.79527l0 -250.36818" fill-rule="evenodd"/><path fill="#ffffff" stroke="#ffffff" stroke-width="1.0" stroke-linecap="butt" d="m106.022484 3.4270866l1.1245804 1.1245835l-1.1245804 -3.089768l-1.1245804 3.089768z" fill-rule="evenodd"/><path fill="#000000" fill-opacity="0.0" d="m105.666664 253.79527l680.063 0" fill-rule="evenodd"/><path stroke="#ffffff" stroke-width="1.0" stroke-linejoin="round" stroke-linecap="butt" d="m105.666664 253.79527l676.63586 0" fill-rule="evenodd"/><path fill="#ffffff" stroke="#ffffff" stroke-width="1.0" stroke-linecap="butt" d="m782.30255 253.79527l-1.1245728 1.124588l3.0897827 -1.124588l-3.0897827 -1.124588z" fill-rule="evenodd"/><path fill="#000000" fill-opacity="0.0" d="m718.7139 253.79527l67.49603 0l0 32.755905l-67.49603 0z" fill-rule="evenodd"/><path fill="#ffffff" d="m752.42773 273.2034l1.390625 0.34375q-0.4375 1.703125 -1.578125 2.609375q-1.125 0.890625 -2.765625 0.890625q-1.6875 0 -2.75 -0.6875q-1.0625 -0.6875 -1.625 -2.0q-0.546875 -1.3125 -0.546875 -2.8125q0 -1.640625 0.625 -2.859375q0.625 -1.21875 1.78125 -1.84375q1.15625 -0.640625 2.546875 -0.640625q1.5625 0 2.640625 0.8125q1.078125 0.796875 1.5 2.25l-1.375 0.3125q-0.359375 -1.140625 -1.0625 -1.65625q-0.6875 -0.53125 -1.734375 -0.53125q-1.21875 0 -2.03125 0.578125q-0.8125 0.578125 -1.140625 1.5625q-0.328125 0.96875 -0.328125 2.015625q0 1.328125 0.390625 2.328125q0.390625 1.0 1.21875 1.5q0.828125 0.484375 1.78125 0.484375q1.171875 0 1.96875 -0.671875q0.8125 -0.671875 1.09375 -1.984375zm2.2561035 3.671875l0 -1.046875l4.84375 -5.546875q-0.828125 0.03125 -1.453125 0.03125l-3.09375 0l0 -1.03125l6.203125 0l0 0.84375l-4.109375 4.828125l-0.796875 0.875q0.859375 -0.0625 1.625 -0.0625l3.515625 0l0 1.109375l-6.734375 0zm12.96875 -0.9375q-0.71875 0.609375 -1.375 0.859375q-0.65625 0.25 -1.421875 0.25q-1.25 0 -1.921875 -0.609375q-0.671875 -0.609375 -0.671875 -1.5625q0 -0.5625 0.25 -1.015625q0.25 -0.46875 0.65625 -0.75q0.421875 -0.28125 0.9375 -0.421875q0.375 -0.09375 1.140625 -0.1875q1.5625 -0.1875 2.296875 -0.453125q0.015625 -0.265625 0.015625 -0.328125q0 -0.796875 -0.375 -1.109375q-0.484375 -0.4375 -1.453125 -0.4375q-0.921875 0 -1.359375 0.328125q-0.421875 0.3125 -0.625 1.109375l-1.265625 -0.171875q0.171875 -0.796875 0.5625 -1.296875q0.390625 -0.5 1.140625 -0.765625q0.75 -0.265625 1.71875 -0.265625q0.984375 0 1.59375 0.234375q0.609375 0.21875 0.890625 0.5625q0.28125 0.34375 0.40625 0.875q0.0625 0.328125 0.0625 1.1875l0 1.71875q0 1.796875 0.078125 2.28125q0.078125 0.46875 0.328125 0.90625l-1.34375 0q-0.203125 -0.40625 -0.265625 -0.9375zm-0.109375 -2.875q-0.703125 0.28125 -2.09375 0.484375q-0.796875 0.109375 -1.125 0.265625q-0.328125 0.140625 -0.515625 0.421875q-0.171875 0.265625 -0.171875 0.59375q0 0.515625 0.390625 0.859375q0.390625 0.34375 1.140625 0.34375q0.734375 0 1.3125 -0.3125q0.59375 -0.328125 0.859375 -0.890625q0.203125 -0.4375 0.203125 -1.296875l0 -0.46875zm2.791748 1.546875l1.265625 -0.203125q0.109375 0.765625 0.59375 1.171875q0.5 0.40625 1.375 0.40625q0.890625 0 1.3125 -0.359375q0.4375 -0.359375 0.4375 -0.84375q0 -0.4375 -0.375 -0.6875q-0.265625 -0.171875 -1.3125 -0.4375q-1.421875 -0.359375 -1.96875 -0.609375q-0.546875 -0.265625 -0.828125 -0.734375q-0.28125 -0.46875 -0.28125 -1.015625q0 -0.515625 0.21875 -0.9375q0.234375 -0.4375 0.640625 -0.734375q0.296875 -0.21875 0.8125 -0.359375q0.53125 -0.15625 1.125 -0.15625q0.890625 0 1.5625 0.265625q0.671875 0.25 1.0 0.6875q0.328125 0.4375 0.4375 1.171875l-1.25 0.171875q-0.09375 -0.578125 -0.5 -0.90625q-0.40625 -0.34375 -1.15625 -0.34375q-0.890625 0 -1.28125 0.296875q-0.375 0.296875 -0.375 0.6875q0 0.25 0.15625 0.453125q0.15625 0.203125 0.5 0.34375q0.1875 0.078125 1.140625 0.328125q1.359375 0.359375 1.890625 0.59375q0.546875 0.234375 0.859375 0.6875q0.3125 0.4375 0.3125 1.09375q0 0.640625 -0.375 1.21875q-0.375 0.5625 -1.09375 0.875q-0.703125 0.3125 -1.59375 0.3125q-1.484375 0 -2.265625 -0.609375q-0.765625 -0.625 -0.984375 -1.828125z" fill-rule="nonzero"/><path fill="#000000" d="m225.14377 253.79527l10.462067 -2.243805l2.2465973 -10.449112l2.246582 10.449112l10.462067 2.243805l-10.462067 2.2438202l-2.246582 10.449097l-2.2465973 -10.449097z" fill-rule="evenodd"/><path stroke="#ffffff" stroke-width="1.0" stroke-linejoin="round" stroke-linecap="butt" d="m225.14377 253.79527l10.462067 -2.243805l2.2465973 -10.449112l2.246582 10.449112l10.462067 2.243805l-10.462067 2.2438202l-2.246582 10.449097l-2.2465973 -10.449097z" fill-rule="evenodd"/><path fill="#000000" d="m108.723946 253.79527l10.462067 -2.243805l2.2465897 -10.449112l2.2465973 10.449112l10.462067 2.243805l-10.462067 2.2438202l-2.2465973 10.449097l-2.2465897 -10.449097z" fill-rule="evenodd"/><path stroke="#ffffff" stroke-width="1.0" stroke-linejoin="round" stroke-linecap="butt" d="m108.723946 253.79527l10.462067 -2.243805l2.2465897 -10.449112l2.2465973 10.449112l10.462067 2.243805l-10.462067 2.2438202l-2.2465973 10.449097l-2.2465897 -10.449097z" fill-rule="evenodd"/><path fill="#000000" fill-opacity="0.0" d="m109.180115 216.8059l40.566925 0l0 32.692917l-40.566925 0z" fill-rule="evenodd"/><path fill="#ffffff" d="m118.617615 232.28027q0 -1.34375 0.28125 -2.171875q0.28125 -0.828125 0.828125 -1.265625q0.546875 -0.453125 1.375 -0.453125q0.625 0 1.078125 0.25q0.46875 0.234375 0.765625 0.703125q0.3125 0.46875 0.484375 1.140625q0.171875 0.671875 0.171875 1.796875q0 1.34375 -0.28125 2.171875q-0.28125 0.828125 -0.828125 1.28125q-0.546875 0.4375 -1.390625 0.4375q-1.09375 0 -1.71875 -0.78125q-0.765625 -0.953125 -0.765625 -3.109375zm0.96875 0q0 1.875 0.4375 2.5q0.4375 0.625 1.078125 0.625q0.65625 0 1.09375 -0.625q0.4375 -0.625 0.4375 -2.5q0 -1.875 -0.4375 -2.5q-0.4375 -0.625 -1.09375 -0.625q-0.640625 0 -1.03125 0.546875q-0.484375 0.703125 -0.484375 2.578125zm8.168396 3.765625l0 -7.625l0.9375 0l0 7.625l-0.9375 0zm5.9924774 -0.6875q-0.53125 0.453125 -1.015625 0.640625q-0.46875 0.171875 -1.015625 0.171875q-0.921875 0 -1.40625 -0.4375q-0.484375 -0.453125 -0.484375 -1.140625q0 -0.40625 0.171875 -0.734375q0.1875 -0.34375 0.484375 -0.546875q0.3125 -0.203125 0.6875 -0.3125q0.265625 -0.0625 0.828125 -0.140625q1.125 -0.125 1.671875 -0.3125q0 -0.203125 0 -0.25q0 -0.578125 -0.265625 -0.8125q-0.359375 -0.3125 -1.0625 -0.3125q-0.65625 0 -0.984375 0.234375q-0.3125 0.234375 -0.453125 0.8125l-0.921875 -0.125q0.125 -0.578125 0.40625 -0.9375q0.296875 -0.375 0.828125 -0.5625q0.546875 -0.203125 1.25 -0.203125q0.71875 0 1.15625 0.171875q0.4375 0.171875 0.640625 0.421875q0.21875 0.25 0.296875 0.640625q0.046875 0.234375 0.046875 0.859375l0 1.25q0 1.296875 0.0625 1.65625q0.0625 0.34375 0.234375 0.65625l-0.96875 0q-0.15625 -0.296875 -0.1875 -0.6875zm-0.078125 -2.078125q-0.515625 0.203125 -1.53125 0.34375q-0.578125 0.078125 -0.828125 0.1875q-0.234375 0.109375 -0.359375 0.3125q-0.125 0.1875 -0.125 0.4375q0 0.375 0.28125 0.625q0.28125 0.25 0.828125 0.25q0.53125 0 0.953125 -0.234375q0.421875 -0.234375 0.625 -0.65625q0.15625 -0.3125 0.15625 -0.9375l0 -0.328125zm4.4421234 1.921875l0.125 0.828125q-0.390625 0.09375 -0.703125 0.09375q-0.5 0 -0.78125 -0.15625q-0.28125 -0.171875 -0.40625 -0.4375q-0.109375 -0.265625 -0.109375 -1.109375l0 -3.171875l-0.6875 0l0 -0.734375l0.6875 0l0 -1.359375l0.9375 -0.5625l0 1.921875l0.9375 0l0 0.734375l-0.9375 0l0 3.234375q0 0.390625 0.046875 0.515625q0.046875 0.109375 0.15625 0.1875q0.109375 0.0625 0.328125 0.0625q0.15625 0 0.40625 -0.046875z" fill-rule="nonzero"/><path fill="#000000" fill-opacity="0.0" d="m216.30138 216.80577l55.181107 0l0 32.692917l-55.181107 0z" fill-rule="evenodd"/><path fill="#ffffff" d="m225.7545 233.15515l0 -1.078125q0.546875 -0.625 1.453125 -0.625q0.3125 0 0.640625 0.09375q0.34375 0.09375 0.984375 0.359375q0.359375 0.15625 0.53125 0.203125q0.1875 0.046875 0.375 0.046875q0.328125 0 0.6875 -0.203125q0.375 -0.203125 0.65625 -0.515625l0 1.109375q-0.34375 0.3125 -0.6875 0.453125q-0.328125 0.140625 -0.765625 0.140625q-0.3125 0 -0.59375 -0.0625q-0.28125 -0.078125 -0.90625 -0.359375q-0.609375 -0.28125 -1.015625 -0.28125q-0.328125 0 -0.625 0.15625q-0.296875 0.140625 -0.734375 0.5625zm12.699356 2.890625l-0.9375 0l0 -5.96875q-0.34375 0.328125 -0.890625 0.65625q-0.546875 0.3125 -0.984375 0.46875l0 -0.90625q0.796875 -0.359375 1.375 -0.890625q0.59375 -0.53125 0.828125 -1.015625l0.609375 0l0 7.65625zm2.3952484 -3.765625q0 -1.34375 0.28125 -2.171875q0.28125 -0.828125 0.828125 -1.265625q0.546875 -0.453125 1.375 -0.453125q0.625 0 1.078125 0.25q0.46875 0.234375 0.765625 0.703125q0.3125 0.46875 0.484375 1.140625q0.171875 0.671875 0.171875 1.796875q0 1.34375 -0.28125 2.171875q-0.28125 0.828125 -0.828125 1.28125q-0.546875 0.4375 -1.390625 0.4375q-1.09375 0 -1.71875 -0.78125q-0.765625 -0.953125 -0.765625 -3.109375zm0.96875 0q0 1.875 0.4375 2.5q0.4375 0.625 1.078125 0.625q0.65625 0 1.09375 -0.625q0.4375 -0.625 0.4375 -2.5q0 -1.875 -0.4375 -2.5q-0.4375 -0.625 -1.09375 -0.625q-0.640625 0 -1.03125 0.546875q-0.484375 0.703125 -0.484375 2.578125zm8.168396 3.765625l0 -7.625l0.9375 0l0 7.625l-0.9375 0zm5.9924774 -0.6875q-0.53125 0.453125 -1.015625 0.640625q-0.46875 0.171875 -1.015625 0.171875q-0.921875 0 -1.40625 -0.4375q-0.484375 -0.453125 -0.484375 -1.140625q0 -0.40625 0.171875 -0.734375q0.1875 -0.34375 0.484375 -0.546875q0.3125 -0.203125 0.6875 -0.3125q0.265625 -0.0625 0.828125 -0.140625q1.125 -0.125 1.671875 -0.3125q0 -0.203125 0 -0.25q0 -0.578125 -0.265625 -0.8125q-0.359375 -0.3125 -1.0625 -0.3125q-0.65625 0 -0.984375 0.234375q-0.3125 0.234375 -0.453125 0.8125l-0.921875 -0.125q0.125 -0.578125 0.40625 -0.9375q0.296875 -0.375 0.828125 -0.5625q0.546875 -0.203125 1.25 -0.203125q0.71875 0 1.15625 0.171875q0.4375 0.171875 0.640625 0.421875q0.21875 0.25 0.296875 0.640625q0.046875 0.234375 0.046875 0.859375l0 1.25q0 1.296875 0.0625 1.65625q0.0625 0.34375 0.234375 0.65625l-0.96875 0q-0.15625 -0.296875 -0.1875 -0.6875zm-0.078125 -2.078125q-0.515625 0.203125 -1.53125 0.34375q-0.578125 0.078125 -0.828125 0.1875q-0.234375 0.109375 -0.359375 0.3125q-0.125 0.1875 -0.125 0.4375q0 0.375 0.28125 0.625q0.28125 0.25 0.828125 0.25q0.53125 0 0.953125 -0.234375q0.421875 -0.234375 0.625 -0.65625q0.15625 -0.3125 0.15625 -0.9375l0 -0.328125zm4.442108 1.921875l0.125 0.828125q-0.390625 0.09375 -0.703125 0.09375q-0.5 0 -0.78125 -0.15625q-0.28125 -0.171875 -0.40625 -0.4375q-0.109375 -0.265625 -0.109375 -1.109375l0 -3.171875l-0.6875 0l0 -0.734375l0.6875 0l0 -1.359375l0.9375 -0.5625l0 1.921875l0.9375 0l0 0.734375l-0.9375 0l0 3.234375q0 0.390625 0.046875 0.515625q0.046875 0.109375 0.15625 0.1875q0.109375 0.0625 0.328125 0.0625q0.15625 0 0.40625 -0.046875z" fill-rule="nonzero"/><path fill="#000000" d="m685.29285 253.79527l10.462097 -2.243805l2.246582 -10.449112l2.246582 10.449112l10.462097 2.243805l-10.462097 2.2438202l-2.246582 10.449097l-2.246582 -10.449097z" fill-rule="evenodd"/><path stroke="#ffffff" stroke-width="1.0" stroke-linejoin="round" stroke-linecap="butt" d="m685.29285 253.79527l10.462097 -2.243805l2.246582 -10.449112l2.246582 10.449112l10.462097 2.243805l-10.462097 2.2438202l-2.246582 10.449097l-2.246582 -10.449097z" fill-rule="evenodd"/><path fill="#000000" fill-opacity="0.0" d="m675.8387 216.80577l61.637756 0l0 32.692917l-61.637756 0z" fill-rule="evenodd"/><path fill="#ffffff" d="m685.2918 233.15515l0 -1.078125q0.546875 -0.625 1.453125 -0.625q0.3125 0 0.640625 0.09375q0.34375 0.09375 0.984375 0.359375q0.359375 0.15625 0.53125 0.203125q0.1875 0.046875 0.375 0.046875q0.328125 0 0.6875 -0.203125q0.375 -0.203125 0.65625 -0.515625l0 1.109375q-0.34375 0.3125 -0.6875 0.453125q-0.328125 0.140625 -0.765625 0.140625q-0.3125 0 -0.59375 -0.0625q-0.28125 -0.078125 -0.90625 -0.359375q-0.609375 -0.28125 -1.015625 -0.28125q-0.328125 0 -0.625 0.15625q-0.296875 0.140625 -0.734375 0.5625zm12.699341 2.890625l-0.9375 0l0 -5.96875q-0.34375 0.328125 -0.890625 0.65625q-0.546875 0.3125 -0.984375 0.46875l0 -0.90625q0.796875 -0.359375 1.375 -0.890625q0.59375 -0.53125 0.828125 -1.015625l0.609375 0l0 7.65625zm2.3952637 -3.765625q0 -1.34375 0.28125 -2.171875q0.28125 -0.828125 0.828125 -1.265625q0.546875 -0.453125 1.375 -0.453125q0.625 0 1.078125 0.25q0.46875 0.234375 0.765625 0.703125q0.3125 0.46875 0.484375 1.140625q0.171875 0.671875 0.171875 1.796875q0 1.34375 -0.28125 2.171875q-0.28125 0.828125 -0.828125 1.28125q-0.546875 0.4375 -1.390625 0.4375q-1.09375 0 -1.71875 -0.78125q-0.765625 -0.953125 -0.765625 -3.109375zm0.96875 0q0 1.875 0.4375 2.5q0.4375 0.625 1.078125 0.625q0.65625 0 1.09375 -0.625q0.4375 -0.625 0.4375 -2.5q0 -1.875 -0.4375 -2.5q-0.4375 -0.625 -1.09375 -0.625q-0.640625 0 -1.03125 0.546875q-0.484375 0.703125 -0.484375 2.578125zm8.488953 3.765625l-0.9375 0l0 -5.96875q-0.34375 0.328125 -0.890625 0.65625q-0.546875 0.3125 -0.984375 0.46875l0 -0.90625q0.796875 -0.359375 1.375 -0.890625q0.59375 -0.53125 0.828125 -1.015625l0.609375 0l0 7.65625zm5.605896 0l0 -7.625l0.9375 0l0 7.625l-0.9375 0zm5.9924927 -0.6875q-0.53125 0.453125 -1.015625 0.640625q-0.46875 0.171875 -1.015625 0.171875q-0.921875 0 -1.40625 -0.4375q-0.484375 -0.453125 -0.484375 -1.140625q0 -0.40625 0.171875 -0.734375q0.1875 -0.34375 0.484375 -0.546875q0.3125 -0.203125 0.6875 -0.3125q0.265625 -0.0625 0.828125 -0.140625q1.125 -0.125 1.671875 -0.3125q0 -0.203125 0 -0.25q0 -0.578125 -0.265625 -0.8125q-0.359375 -0.3125 -1.0625 -0.3125q-0.65625 0 -0.984375 0.234375q-0.3125 0.234375 -0.453125 0.8125l-0.921875 -0.125q0.125 -0.578125 0.40625 -0.9375q0.296875 -0.375 0.828125 -0.5625q0.546875 -0.203125 1.25 -0.203125q0.71875 0 1.15625 0.171875q0.4375 0.171875 0.640625 0.421875q0.21875 0.25 0.296875 0.640625q0.046875 0.234375 0.046875 0.859375l0 1.25q0 1.296875 0.0625 1.65625q0.0625 0.34375 0.234375 0.65625l-0.96875 0q-0.15625 -0.296875 -0.1875 -0.6875zm-0.078125 -2.078125q-0.515625 0.203125 -1.53125 0.34375q-0.578125 0.078125 -0.828125 0.1875q-0.234375 0.109375 -0.359375 0.3125q-0.125 0.1875 -0.125 0.4375q0 0.375 0.28125 0.625q0.28125 0.25 0.828125 0.25q0.53125 0 0.953125 -0.234375q0.421875 -0.234375 0.625 -0.65625q0.15625 -0.3125 0.15625 -0.9375l0 -0.328125zm4.4421387 1.921875l0.125 0.828125q-0.390625 0.09375 -0.703125 0.09375q-0.5 0 -0.78125 -0.15625q-0.28125 -0.171875 -0.40625 -0.4375q-0.109375 -0.265625 -0.109375 -1.109375l0 -3.171875l-0.6875 0l0 -0.734375l0.6875 0l0 -1.359375l0.9375 -0.5625l0 1.921875l0.9375 0l0 0.734375l-0.9375 0l0 3.234375q0 0.390625 0.046875 0.515625q0.046875 0.109375 0.15625 0.1875q0.109375 0.0625 0.328125 0.0625q0.15625 0 0.40625 -0.046875z" fill-rule="nonzero"/><path fill="#ffffff" d="m340.7638 253.79527l10.462067 -2.243805l2.246582 -10.449112l2.246582 10.449112l10.462067 2.243805l-10.462067 2.2438202l-2.246582 10.449097l-2.246582 -10.449097z" fill-rule="evenodd"/><path stroke="#ffffff" stroke-width="1.0" stroke-linejoin="round" stroke-linecap="butt" d="m340.7638 253.79527l10.462067 -2.243805l2.246582 -10.449112l2.246582 10.449112l10.462067 2.243805l-10.462067 2.2438202l-2.246582 10.449097l-2.246582 -10.449097z" fill-rule="evenodd"/><path fill="#000000" fill-opacity="0.0" d="m311.489 257.33597l98.33072 0l0 32.6929l-98.33072 0z" fill-rule="evenodd"/><path fill="#ffffff" d="m321.31714 276.57596l0 -7.625l2.875 0q0.75 0 1.15625 0.0625q0.5625 0.09375 0.9375 0.359375q0.390625 0.265625 0.609375 0.75q0.234375 0.46875 0.234375 1.03125q0 0.96875 -0.625 1.65625q-0.609375 0.671875 -2.234375 0.671875l-1.953125 0l0 3.09375l-1.0 0zm1.0 -4.0l1.96875 0q0.984375 0 1.390625 -0.359375q0.421875 -0.375 0.421875 -1.03125q0 -0.484375 -0.25 -0.8125q-0.234375 -0.34375 -0.640625 -0.453125q-0.25 -0.078125 -0.9375 -0.078125l-1.953125 0l0 2.734375zm9.6076355 4.0l0 -0.8125q-0.65625 0.9375 -1.75 0.9375q-0.5 0 -0.921875 -0.1875q-0.421875 -0.1875 -0.625 -0.46875q-0.203125 -0.28125 -0.296875 -0.703125q-0.046875 -0.265625 -0.046875 -0.875l0 -3.421875l0.9375 0l0 3.0625q0 0.734375 0.046875 1.0q0.09375 0.359375 0.375 0.578125q0.296875 0.203125 0.703125 0.203125q0.421875 0 0.796875 -0.203125q0.375 -0.21875 0.515625 -0.59375q0.15625 -0.375 0.15625 -1.078125l0 -2.96875l0.9375 0l0 5.53125l-0.828125 0zm2.3014832 0l0 -5.53125l0.84375 0l0 0.796875q0.609375 -0.921875 1.75 -0.921875q0.5 0 0.921875 0.1875q0.421875 0.171875 0.625 0.46875q0.21875 0.296875 0.296875 0.6875q0.046875 0.265625 0.046875 0.921875l0 3.390625l-0.9375 0l0 -3.359375q0 -0.578125 -0.109375 -0.859375q-0.109375 -0.28125 -0.390625 -0.453125q-0.265625 -0.171875 -0.640625 -0.171875q-0.59375 0 -1.03125 0.390625q-0.4375 0.375 -0.4375 1.4375l0 3.015625l-0.9375 0zm5.9265137 0l0 -7.625l0.9375 0l0 4.34375l2.21875 -2.25l1.21875 0l-2.125 2.0625l2.328125 3.46875l-1.15625 0l-1.8125 -2.828125l-0.671875 0.640625l0 2.1875l-0.9375 0zm7.375 -0.84375l0.125 0.828125q-0.390625 0.09375 -0.703125 0.09375q-0.5 0 -0.78125 -0.15625q-0.28125 -0.171875 -0.40625 -0.4375q-0.109375 -0.265625 -0.109375 -1.109375l0 -3.171875l-0.6875 0l0 -0.734375l0.6875 0l0 -1.359375l0.9375 -0.5625l0 1.921875l0.9375 0l0 0.734375l-0.9375 0l0 3.234375q0 0.390625 0.046875 0.515625q0.046875 0.109375 0.15625 0.1875q0.109375 0.0625 0.328125 0.0625q0.15625 0 0.40625 -0.046875zm3.8744202 2.96875l0 -7.65625l0.859375 0l0 0.71875q0.296875 -0.421875 0.671875 -0.625q0.390625 -0.21875 0.921875 -0.21875q0.703125 0 1.25 0.375q0.546875 0.359375 0.8125 1.03125q0.28125 0.65625 0.28125 1.453125q0 0.84375 -0.3125 1.53125q-0.296875 0.671875 -0.875 1.03125q-0.578125 0.359375 -1.21875 0.359375q-0.46875 0 -0.84375 -0.1875q-0.375 -0.203125 -0.609375 -0.515625l0 2.703125l-0.9375 0zm0.84375 -4.859375q0 1.0625 0.4375 1.578125q0.4375 0.515625 1.046875 0.515625q0.625 0 1.0625 -0.53125q0.453125 -0.53125 0.453125 -1.640625q0 -1.046875 -0.4375 -1.578125q-0.4375 -0.53125 -1.046875 -0.53125q-0.59375 0 -1.0625 0.5625q-0.453125 0.5625 -0.453125 1.625zm5.067108 2.734375l0 -5.53125l0.84375 0l0 0.84375q0.328125 -0.59375 0.59375 -0.78125q0.28125 -0.1875 0.609375 -0.1875q0.46875 0 0.953125 0.3125l-0.3125 0.859375q-0.34375 -0.203125 -0.6875 -0.203125q-0.3125 0 -0.5625 0.1875q-0.234375 0.1875 -0.34375 0.515625q-0.15625 0.5 -0.15625 1.09375l0 2.890625l-0.9375 0zm3.0642395 0l0 -0.765625l3.515625 -4.03125q-0.59375 0.03125 -1.046875 0.03125l-2.25 0l0 -0.765625l4.515625 0l0 0.625l-3.0 3.5l-0.578125 0.640625q0.640625 -0.046875 1.1875 -0.046875l2.546875 0l0 0.8125l-4.890625 0zm9.609375 -1.78125l0.96875 0.125q-0.234375 0.84375 -0.859375 1.3125q-0.609375 0.46875 -1.578125 0.46875q-1.203125 0 -1.921875 -0.75q-0.703125 -0.75 -0.703125 -2.09375q0 -1.390625 0.71875 -2.15625q0.71875 -0.78125 1.859375 -0.78125q1.109375 0 1.8125 0.765625q0.703125 0.75 0.703125 2.125q0 0.078125 0 0.234375l-4.125 0q0.046875 0.921875 0.515625 1.40625q0.46875 0.484375 1.15625 0.484375q0.515625 0 0.875 -0.265625q0.359375 -0.28125 0.578125 -0.875zm-3.078125 -1.515625l3.09375 0q-0.0625 -0.6875 -0.359375 -1.046875q-0.453125 -0.53125 -1.15625 -0.53125q-0.640625 0 -1.09375 0.4375q-0.4375 0.421875 -0.484375 1.140625zm5.0515137 3.75l0.90625 0.140625q0.0625 0.421875 0.328125 0.609375q0.34375 0.265625 0.9375 0.265625q0.65625 0 1.0 -0.265625q0.359375 -0.25 0.484375 -0.71875q0.078125 -0.296875 0.078125 -1.203125q-0.625 0.71875 -1.53125 0.71875q-1.140625 0 -1.765625 -0.8125q-0.625 -0.828125 -0.625 -1.984375q0 -0.78125 0.28125 -1.453125q0.296875 -0.671875 0.828125 -1.03125q0.546875 -0.375 1.28125 -0.375q0.984375 0 1.609375 0.796875l0 -0.671875l0.875 0l0 4.78125q0 1.296875 -0.265625 1.828125q-0.265625 0.546875 -0.84375 0.859375q-0.5625 0.3125 -1.390625 0.3125q-0.984375 0 -1.59375 -0.453125q-0.609375 -0.4375 -0.59375 -1.34375zm0.78125 -3.3125q0 1.078125 0.421875 1.578125q0.4375 0.5 1.078125 0.5q0.65625 0 1.09375 -0.484375q0.4375 -0.5 0.4375 -1.5625q0 -1.015625 -0.453125 -1.53125q-0.453125 -0.515625 -1.09375 -0.515625q-0.609375 0 -1.046875 0.515625q-0.4375 0.5 -0.4375 1.5zm5.317108 -3.6875l0 -1.078125l0.9375 0l0 1.078125l-0.9375 0zm0 6.546875l0 -5.53125l0.9375 0l0 5.53125l-0.9375 0zm6.1487427 -1.78125l0.96875 0.125q-0.234375 0.84375 -0.859375 1.3125q-0.609375 0.46875 -1.578125 0.46875q-1.203125 0 -1.921875 -0.75q-0.703125 -0.75 -0.703125 -2.09375q0 -1.390625 0.71875 -2.15625q0.71875 -0.78125 1.859375 -0.78125q1.109375 0 1.8125 0.765625q0.703125 0.75 0.703125 2.125q0 0.078125 0 0.234375l-4.125 0q0.046875 0.921875 0.515625 1.40625q0.46875 0.484375 1.15625 0.484375q0.515625 0 0.875 -0.265625q0.359375 -0.28125 0.578125 -0.875zm-3.078125 -1.515625l3.09375 0q-0.0625 -0.6875 -0.359375 -1.046875q-0.453125 -0.53125 -1.15625 -0.53125q-0.640625 0 -1.09375 0.4375q-0.4375 0.421875 -0.484375 1.140625zm2.421875 3.296875q-0.296875 0.1875 -0.46875 0.453125q-0.15625 0.265625 -0.15625 0.546875q0 0.21875 0.109375 0.359375q0.125 0.15625 0.40625 0.15625q0.109375 0 0.234375 -0.03125q0.125 -0.03125 0.234375 -0.09375l0 0.671875q-0.375 0.171875 -0.703125 0.171875q-0.265625 0 -0.46875 -0.078125q-0.203125 -0.0625 -0.34375 -0.203125q-0.125 -0.125 -0.1875 -0.296875q-0.0625 -0.171875 -0.0625 -0.375q0 -0.328125 0.1875 -0.671875q0.1875 -0.328125 0.53125 -0.609375l0.6875 0zm6.410858 -2.03125l0.921875 0.125q-0.15625 0.953125 -0.78125 1.5q-0.625 0.53125 -1.53125 0.53125q-1.125 0 -1.8125 -0.734375q-0.6875 -0.75 -0.6875 -2.125q0 -0.90625 0.296875 -1.578125q0.296875 -0.671875 0.890625 -1.0q0.609375 -0.34375 1.328125 -0.34375q0.890625 0 1.46875 0.46875q0.578125 0.453125 0.734375 1.28125l-0.90625 0.140625q-0.140625 -0.546875 -0.46875 -0.828125q-0.328125 -0.28125 -0.796875 -0.28125q-0.703125 0 -1.15625 0.515625q-0.4375 0.5 -0.4375 1.59375q0 1.109375 0.421875 1.625q0.4375 0.5 1.125 0.5q0.546875 0 0.90625 -0.34375q0.375 -0.34375 0.484375 -1.046875zm1.71875 -4.515625l0 -1.078125l0.9375 0l0 1.078125l-0.9375 0zm0 6.546875l0 -5.53125l0.9375 0l0 5.53125l-0.9375 0zm5.9768677 -0.6875q-0.53125 0.453125 -1.015625 0.640625q-0.46875 0.171875 -1.015625 0.171875q-0.921875 0 -1.40625 -0.4375q-0.484375 -0.453125 -0.484375 -1.140625q0 -0.40625 0.171875 -0.734375q0.1875 -0.34375 0.484375 -0.546875q0.3125 -0.203125 0.6875 -0.3125q0.265625 -0.0625 0.828125 -0.140625q1.125 -0.125 1.671875 -0.3125q0 -0.203125 0 -0.25q0 -0.578125 -0.265625 -0.8125q-0.359375 -0.3125 -1.0625 -0.3125q-0.65625 0 -0.984375 0.234375q-0.3125 0.234375 -0.453125 0.8125l-0.921875 -0.125q0.125 -0.578125 0.40625 -0.9375q0.296875 -0.375 0.828125 -0.5625q0.546875 -0.203125 1.25 -0.203125q0.71875 0 1.15625 0.171875q0.4375 0.171875 0.640625 0.421875q0.21875 0.25 0.296875 0.640625q0.046875 0.234375 0.046875 0.859375l0 1.25q0 1.296875 0.0625 1.65625q0.0625 0.34375 0.234375 0.65625l-0.96875 0q-0.15625 -0.296875 -0.1875 -0.6875zm-0.078125 -2.078125q-0.515625 0.203125 -1.53125 0.34375q-0.578125 0.078125 -0.828125 0.1875q-0.234375 0.109375 -0.359375 0.3125q-0.125 0.1875 -0.125 0.4375q0 0.375 0.28125 0.625q0.28125 0.25 0.828125 0.25q0.53125 0 0.953125 -0.234375q0.421875 -0.234375 0.625 -0.65625q0.15625 -0.3125 0.15625 -0.9375l0 -0.328125z" fill-rule="nonzero"/><path fill="#000000" fill-opacity="0.0" d="m341.3737 216.80577l61.637787 0l0 32.692917l-61.637787 0z" fill-rule="evenodd"/><path fill="#ffffff" d="m354.34244 236.04578l-0.9375 0l0 -5.96875q-0.34375 0.328125 -0.890625 0.65625q-0.546875 0.3125 -0.984375 0.46875l0 -0.90625q0.796875 -0.359375 1.375 -0.890625q0.59375 -0.53125 0.828125 -1.015625l0.609375 0l0 7.65625zm2.4108582 -2.015625l0.9375 -0.125q0.15625 0.796875 0.546875 1.15625q0.390625 0.34375 0.9375 0.34375q0.65625 0 1.109375 -0.453125q0.46875 -0.46875 0.46875 -1.140625q0 -0.640625 -0.421875 -1.0625q-0.421875 -0.421875 -1.078125 -0.421875q-0.265625 0 -0.65625 0.109375l0.109375 -0.828125q0.09375 0.015625 0.140625 0.015625q0.59375 0 1.078125 -0.3125q0.484375 -0.3125 0.484375 -0.96875q0 -0.515625 -0.359375 -0.84375q-0.34375 -0.34375 -0.890625 -0.34375q-0.546875 0 -0.921875 0.34375q-0.359375 0.34375 -0.453125 1.03125l-0.9375 -0.171875q0.171875 -0.9375 0.78125 -1.453125q0.609375 -0.515625 1.5 -0.515625q0.625 0 1.15625 0.265625q0.53125 0.265625 0.796875 0.734375q0.28125 0.453125 0.28125 0.984375q0 0.484375 -0.265625 0.890625q-0.265625 0.40625 -0.78125 0.65625q0.671875 0.15625 1.046875 0.65625q0.375 0.484375 0.375 1.21875q0 1.0 -0.734375 1.703125q-0.71875 0.6875 -1.828125 0.6875q-1.0 0 -1.671875 -0.59375q-0.65625 -0.609375 -0.75 -1.5625zm5.8171387 -0.28125l0 -0.9375l2.875 0l0 0.9375l-2.875 0zm7.1736145 2.296875l-0.9375 0l0 -5.96875q-0.34375 0.328125 -0.890625 0.65625q-0.546875 0.3125 -0.984375 0.46875l0 -0.90625q0.796875 -0.359375 1.375 -0.890625q0.59375 -0.53125 0.828125 -1.015625l0.609375 0l0 7.65625zm2.3952332 -2.0l0.984375 -0.078125q0.109375 0.71875 0.5 1.078125q0.40625 0.359375 0.96875 0.359375q0.671875 0 1.140625 -0.5q0.46875 -0.515625 0.46875 -1.359375q0 -0.796875 -0.453125 -1.265625q-0.4375 -0.46875 -1.171875 -0.46875q-0.453125 0 -0.8125 0.21875q-0.359375 0.203125 -0.578125 0.53125l-0.875 -0.125l0.734375 -3.921875l3.796875 0l0 0.90625l-3.046875 0l-0.40625 2.046875q0.6875 -0.484375 1.4375 -0.484375q1.0 0 1.6875 0.703125q0.6875 0.6875 0.6875 1.765625q0 1.046875 -0.609375 1.796875q-0.734375 0.921875 -2.0 0.921875q-1.03125 0 -1.703125 -0.578125q-0.65625 -0.578125 -0.75 -1.546875zm9.137146 2.0l0 -7.625l0.9375 0l0 7.625l-0.9375 0zm5.9924927 -0.6875q-0.53125 0.453125 -1.015625 0.640625q-0.46875 0.171875 -1.015625 0.171875q-0.921875 0 -1.40625 -0.4375q-0.484375 -0.453125 -0.484375 -1.140625q0 -0.40625 0.171875 -0.734375q0.1875 -0.34375 0.484375 -0.546875q0.3125 -0.203125 0.6875 -0.3125q0.265625 -0.0625 0.828125 -0.140625q1.125 -0.125 1.671875 -0.3125q0 -0.203125 0 -0.25q0 -0.578125 -0.265625 -0.8125q-0.359375 -0.3125 -1.0625 -0.3125q-0.65625 0 -0.984375 0.234375q-0.3125 0.234375 -0.453125 0.8125l-0.921875 -0.125q0.125 -0.578125 0.40625 -0.9375q0.296875 -0.375 0.828125 -0.5625q0.546875 -0.203125 1.25 -0.203125q0.71875 0 1.15625 0.171875q0.4375 0.171875 0.640625 0.421875q0.21875 0.25 0.296875 0.640625q0.046875 0.234375 0.046875 0.859375l0 1.25q0 1.296875 0.0625 1.65625q0.0625 0.34375 0.234375 0.65625l-0.96875 0q-0.15625 -0.296875 -0.1875 -0.6875zm-0.078125 -2.078125q-0.515625 0.203125 -1.53125 0.34375q-0.578125 0.078125 -0.828125 0.1875q-0.234375 0.109375 -0.359375 0.3125q-0.125 0.1875 -0.125 0.4375q0 0.375 0.28125 0.625q0.28125 0.25 0.828125 0.25q0.53125 0 0.953125 -0.234375q0.421875 -0.234375 0.625 -0.65625q0.15625 -0.3125 0.15625 -0.9375l0 -0.328125zm4.442108 1.921875l0.125 0.828125q-0.390625 0.09375 -0.703125 0.09375q-0.5 0 -0.78125 -0.15625q-0.28125 -0.171875 -0.40625 -0.4375q-0.109375 -0.265625 -0.109375 -1.109375l0 -3.171875l-0.6875 0l0 -0.734375l0.6875 0l0 -1.359375l0.9375 -0.5625l0 1.921875l0.9375 0l0 0.734375l-0.9375 0l0 3.234375q0 0.390625 0.046875 0.515625q0.046875 0.109375 0.15625 0.1875q0.109375 0.0625 0.328125 0.0625q0.15625 0 0.40625 -0.046875z" fill-rule="nonzero"/><path fill="#000000" fill-opacity="0.0" d="m519.7454 209.14436l0 -182.11024" fill-rule="evenodd"/><path stroke="#ffffff" stroke-width="1.0" stroke-linejoin="round" stroke-linecap="butt" d="m519.7454 209.14436l0 -176.11024" fill-rule="evenodd"/><path fill="#ffffff" stroke="#ffffff" stroke-width="1.0" stroke-linecap="butt" d="m521.39716 33.03412l-1.6517334 -4.5380955l-1.6517334 4.5380955z" fill-rule="evenodd"/><path fill="#000000" fill-opacity="0.0" d="m559.7454 27.03412l0 182.11024" fill-rule="evenodd"/><path stroke="#ffffff" stroke-width="1.0" stroke-linejoin="round" stroke-linecap="butt" d="m559.7454 27.03412l0 176.11024" fill-rule="evenodd"/><path fill="#ffffff" stroke="#ffffff" stroke-width="1.0" stroke-linecap="butt" d="m558.0937 203.14436l1.6517334 4.538086l1.6517334 -4.538086z" fill-rule="evenodd"/><path fill="#000000" fill-opacity="0.0" d="m599.7454 209.14436l0 -182.11024" fill-rule="evenodd"/><path stroke="#ffffff" stroke-width="1.0" stroke-linejoin="round" stroke-linecap="butt" d="m599.7454 209.14436l0 -176.11024" fill-rule="evenodd"/><path fill="#ffffff" stroke="#ffffff" stroke-width="1.0" stroke-linecap="butt" d="m601.39716 33.03412l-1.6517334 -4.5380955l-1.6517334 4.5380955z" fill-rule="evenodd"/><path fill="#000000" fill-opacity="0.0" d="m639.7454 27.03412l0 182.11024" fill-rule="evenodd"/><path stroke="#ffffff" stroke-width="1.0" stroke-linejoin="round" stroke-linecap="butt" d="m639.7454 27.03412l0 176.11024" fill-rule="evenodd"/><path fill="#ffffff" stroke="#ffffff" stroke-width="1.0" stroke-linecap="butt" d="m638.0937 203.14436l1.6517334 4.538086l1.6517334 -4.538086z" fill-rule="evenodd"/><path fill="#000000" fill-opacity="0.0" d="m679.7454 209.14436l0 -182.11024" fill-rule="evenodd"/><path stroke="#ffffff" stroke-width="1.0" stroke-linejoin="round" stroke-linecap="butt" d="m679.7454 209.14436l0 -176.11024" fill-rule="evenodd"/><path fill="#ffffff" stroke="#ffffff" stroke-width="1.0" stroke-linecap="butt" d="m681.39716 33.03412l-1.6517334 -4.5380955l-1.6517334 4.5380955z" fill-rule="evenodd"/></g></svg>