<svg version="1.1" viewBox="0.0 0.0 786.2073490813648 287.93175853018374" fill="none" stroke="none" stroke-linecap="square" stroke-miterlimit="10" xmlns:xlink="http://www.w3.org/1999/xlink" xmlns="http://www.w3.org/2000/svg"><clipPath id="p.0"><path d="m0 0l786.20734 0l0 287.93176l-786.20734 0l0 -287.93176z" clip-rule="nonzero"/></clipPath><g clip-path="url(#p.0)"><path fill="#000000" fill-opacity="0.0" d="m0 0l786.20734 0l0 287.93176l-786.20734 0z" fill-rule="evenodd"/><path stroke="#ffffff" stroke-width="1.3333333333333333" stroke-linecap="butt" d="m109.59843 46.863518l0 32.666664" fill-rule="nonzero"/><path stroke="#ffffff" stroke-width="1.3333333333333333" stroke-linecap="butt" d="m171.99738 78.19685l0 32.666664" fill-rule="nonzero"/><path stroke="#ffffff" stroke-width="1.3333333333333333" stroke-linecap="butt" d="m234.39633 109.53018l0 32.66667" fill-rule="nonzero"/><path stroke="#ffffff" stroke-width="1.3333333333333333" stroke-linecap="butt" d="m296.7953 140.86351l0 32.66667" fill-rule="nonzero"/><path stroke="#ffffff" stroke-width="1.3333333333333333" stroke-linecap="butt" d="m546.39105 140.86351l0 32.66667" fill-rule="nonzero"/><path stroke="#ffffff" stroke-width="1.3333333333333333" stroke-linecap="butt" d="m608.79004 109.53018l0 32.66667" fill-rule="nonzero"/><path stroke="#ffffff" stroke-width="1.3333333333333333" stroke-linecap="butt" d="m671.18896 78.19685l0 32.666664" fill-rule="nonzero"/><path stroke="#ffffff" stroke-width="1.3333333333333333" stroke-linecap="butt" d="m733.58795 46.863518l0 32.666664" fill-rule="nonzero"/><path stroke="#ffffff" stroke-width="1.3333333333333333" stroke-linecap="butt" d="m108.931755 47.53018l625.3228 0" fill-rule="nonzero"/><path stroke="#ffffff" stroke-width="1.3333333333333333" stroke-linecap="butt" d="m108.931755 78.86352l625.3228 0" fill-rule="nonzero"/><path stroke="#ffffff" stroke-width="1.3333333333333333" stroke-linecap="butt" d="m171.3307 110.19685l500.52496 0" fill-rule="nonzero"/><path stroke="#ffffff" stroke-width="1.3333333333333333" stroke-linecap="butt" d="m233.72966 141.53018l375.727 0" fill-rule="nonzero"/><path stroke="#ffffff" stroke-width="1.3333333333333333" stroke-linecap="butt" d="m296.1286 172.86351l250.92914 0" fill-rule="nonzero"/><path fill="#ffffff" d="m379.80594 67.61018l0 -1.90625l5.515625 -6.8125l-4.890625 0l0 -1.765625l7.671875 0l0 1.640625l-5.734375 7.078125l5.96875 0l0 1.765625l-8.53125 0zm11.358887 -5.28125l-1.828125 -0.328125q0.296875 -1.109375 1.046875 -1.625q0.765625 -0.53125 2.234375 -0.53125q1.359375 0 2.015625 0.3125q0.65625 0.3125 0.921875 0.8125q0.265625 0.484375 0.265625 1.796875l-0.015625 2.34375q0 1.0 0.09375 1.484375q0.09375 0.46875 0.359375 1.015625l-1.984375 0q-0.078125 -0.203125 -0.203125 -0.59375q-0.046875 -0.171875 -0.0625 -0.234375q-0.515625 0.5 -1.109375 0.75q-0.578125 0.25 -1.25 0.25q-1.171875 0 -1.859375 -0.640625q-0.671875 -0.640625 -0.671875 -1.609375q0 -0.640625 0.3125 -1.140625q0.3125 -0.515625 0.859375 -0.78125q0.5625 -0.265625 1.609375 -0.46875q1.40625 -0.265625 1.953125 -0.484375l0 -0.203125q0 -0.578125 -0.296875 -0.828125q-0.28125 -0.25 -1.078125 -0.25q-0.53125 0 -0.84375 0.21875q-0.296875 0.203125 -0.46875 0.734375zm2.6875 1.625q-0.390625 0.140625 -1.234375 0.328125q-0.828125 0.171875 -1.09375 0.34375q-0.390625 0.265625 -0.390625 0.703125q0 0.421875 0.3125 0.734375q0.3125 0.296875 0.8125 0.296875q0.53125 0 1.03125 -0.359375q0.359375 -0.265625 0.484375 -0.65625q0.078125 -0.265625 0.078125 -0.984375l0 -0.40625zm10.572968 -1.703125l-1.96875 0.359375q-0.109375 -0.59375 -0.46875 -0.890625q-0.34375 -0.296875 -0.90625 -0.296875q-0.75 0 -1.203125 0.515625q-0.453125 0.515625 -0.453125 1.734375q0 1.359375 0.453125 1.921875q0.453125 0.546875 1.21875 0.546875q0.578125 0 0.9375 -0.328125q0.375 -0.328125 0.515625 -1.109375l1.984375 0.328125q-0.3125 1.359375 -1.1875 2.0625q-0.875 0.6875 -2.328125 0.6875q-1.671875 0 -2.671875 -1.046875q-0.984375 -1.0625 -0.984375 -2.921875q0 -1.875 0.984375 -2.921875q1.0 -1.046875 2.703125 -1.046875q1.390625 0 2.203125 0.59375q0.828125 0.59375 1.171875 1.8125zm3.5417175 -5.125l0 3.84375q0.96875 -1.125 2.3125 -1.125q0.703125 0 1.25 0.265625q0.5625 0.25 0.84375 0.65625q0.28125 0.390625 0.390625 0.875q0.109375 0.484375 0.109375 1.515625l0 4.453125l-2.015625 0l0 -4.015625q0 -1.1875 -0.125 -1.515625q-0.109375 -0.328125 -0.40625 -0.515625q-0.28125 -0.1875 -0.71875 -0.1875q-0.5 0 -0.890625 0.25q-0.390625 0.234375 -0.578125 0.734375q-0.171875 0.484375 -0.171875 1.4375l0 3.8125l-2.015625 0l0 -10.484375l2.015625 0zm6.4838867 6.578125q0 -1.0 0.484375 -1.9375q0.5 -0.9375 1.40625 -1.421875q0.90625 -0.5 2.015625 -0.5q1.71875 0 2.828125 1.125q1.109375 1.109375 1.109375 2.8125q0 1.734375 -1.125 2.875q-1.109375 1.125 -2.796875 1.125q-1.046875 0 -2.0 -0.46875q-0.9375 -0.46875 -1.4375 -1.375q-0.484375 -0.921875 -0.484375 -2.234375zm2.046875 0.109375q0 1.125 0.53125 1.734375q0.546875 0.59375 1.34375 0.59375q0.78125 0 1.3125 -0.59375q0.53125 -0.609375 0.53125 -1.75q0 -1.125 -0.53125 -1.71875q-0.53125 -0.609375 -1.3125 -0.609375q-0.796875 0 -1.34375 0.609375q-0.53125 0.59375 -0.53125 1.734375zm8.780762 3.796875l-2.40625 -7.59375l1.953125 0l1.421875 4.96875l1.3125 -4.96875l1.9375 0l1.265625 4.96875l1.453125 -4.96875l1.984375 0l-2.4375 7.59375l-1.9375 0l-1.3125 -4.890625l-1.28125 4.890625l-1.953125 0zm11.493835 -5.28125l-1.828125 -0.328125q0.296875 -1.109375 1.046875 -1.625q0.765625 -0.53125 2.234375 -0.53125q1.359375 0 2.015625 0.3125q0.65625 0.3125 0.921875 0.8125q0.265625 0.484375 0.265625 1.796875l-0.015625 2.34375q0 1.0 0.09375 1.484375q0.09375 0.46875 0.359375 1.015625l-1.984375 0q-0.078125 -0.203125 -0.203125 -0.59375q-0.046875 -0.171875 -0.0625 -0.234375q-0.515625 0.5 -1.109375 0.75q-0.578125 0.25 -1.25 0.25q-1.171875 0 -1.859375 -0.640625q-0.671875 -0.640625 -0.671875 -1.609375q0 -0.640625 0.3125 -1.140625q0.3125 -0.515625 0.859375 -0.78125q0.5625 -0.265625 1.609375 -0.46875q1.40625 -0.265625 1.953125 -0.484375l0 -0.203125q0 -0.578125 -0.296875 -0.828125q-0.28125 -0.25 -1.078125 -0.25q-0.53125 0 -0.84375 0.21875q-0.296875 0.203125 -0.46875 0.734375zm2.6875 1.625q-0.390625 0.140625 -1.234375 0.328125q-0.828125 0.171875 -1.09375 0.34375q-0.390625 0.265625 -0.390625 0.703125q0 0.421875 0.3125 0.734375q0.3125 0.296875 0.8125 0.296875q0.53125 0 1.03125 -0.359375q0.359375 -0.265625 0.484375 -0.65625q0.078125 -0.265625 0.078125 -0.984375l0 -0.40625zm10.869873 3.65625l-2.015625 0l0 -3.875q0 -1.234375 -0.125 -1.59375q-0.125 -0.359375 -0.421875 -0.5625q-0.296875 -0.203125 -0.703125 -0.203125q-0.515625 0 -0.9375 0.296875q-0.40625 0.28125 -0.5625 0.75q-0.15625 0.46875 -0.15625 1.75l0 3.4375l-2.015625 0l0 -7.59375l1.875 0l0 1.109375q1.0 -1.28125 2.5 -1.28125q0.671875 0 1.21875 0.234375q0.546875 0.234375 0.828125 0.609375q0.296875 0.375 0.40625 0.84375q0.109375 0.46875 0.109375 1.359375l0 4.71875zm2.0307312 -8.625l0 -1.859375l2.015625 0l0 1.859375l-2.015625 0zm0 8.625l0 -7.59375l2.015625 0l0 7.59375l-2.015625 0zm5.587616 -5.28125l-1.828125 -0.328125q0.296875 -1.109375 1.046875 -1.625q0.765625 -0.53125 2.234375 -0.53125q1.359375 0 2.015625 0.3125q0.65625 0.3125 0.921875 0.8125q0.265625 0.484375 0.265625 1.796875l-0.015625 2.34375q0 1.0 0.09375 1.484375q0.09375 0.46875 0.359375 1.015625l-1.984375 0q-0.078125 -0.203125 -0.203125 -0.59375q-0.046875 -0.171875 -0.0625 -0.234375q-0.515625 0.5 -1.109375 0.75q-0.578125 0.25 -1.25 0.25q-1.171875 0 -1.859375 -0.640625q-0.671875 -0.640625 -0.671875 -1.609375q0 -0.640625 0.3125 -1.140625q0.3125 -0.515625 0.859375 -0.78125q0.5625 -0.265625 1.609375 -0.46875q1.40625 -0.265625 1.953125 -0.484375l0 -0.203125q0 -0.578125 -0.296875 -0.828125q-0.28125 -0.25 -1.078125 -0.25q-0.53125 0 -0.84375 0.21875q-0.296875 0.203125 -0.46875 0.734375zm2.6875 1.625q-0.390625 0.140625 -1.234375 0.328125q-0.828125 0.171875 -1.09375 0.34375q-0.390625 0.265625 -0.390625 0.703125q0 0.421875 0.3125 0.734375q0.3125 0.296875 0.8125 0.296875q0.53125 0 1.03125 -0.359375q0.359375 -0.265625 0.484375 -0.65625q0.078125 -0.265625 0.078125 -0.984375l0 -0.40625z" fill-rule="nonzero"/><path fill="#ffffff" d="m392.92453 98.94352l0 -10.484375l3.40625 0q1.921875 0 2.515625 0.15625q0.90625 0.234375 1.515625 1.03125q0.609375 0.78125 0.609375 2.03125q0 0.96875 -0.359375 1.625q-0.34375 0.65625 -0.890625 1.03125q-0.53125 0.375 -1.09375 0.5q-0.765625 0.15625 -2.203125 0.15625l-1.375 0l0 3.953125l-2.125 0zm2.125 -8.71875l0 2.984375l1.15625 0q1.25 0 1.671875 -0.15625q0.421875 -0.171875 0.65625 -0.515625q0.25 -0.359375 0.25 -0.828125q0 -0.578125 -0.34375 -0.9375q-0.328125 -0.375 -0.84375 -0.46875q-0.375 -0.078125 -1.53125 -0.078125l-1.015625 0zm7.1818542 4.8125q0 -1.0 0.484375 -1.9375q0.5 -0.9375 1.40625 -1.421875q0.90625 -0.5 2.015625 -0.5q1.71875 0 2.828125 1.125q1.109375 1.109375 1.109375 2.8125q0 1.734375 -1.125 2.875q-1.109375 1.125 -2.796875 1.125q-1.046875 0 -2.0 -0.46875q-0.9375 -0.46875 -1.4375 -1.375q-0.484375 -0.921875 -0.484375 -2.234375zm2.046875 0.109375q0 1.125 0.53125 1.734375q0.546875 0.59375 1.34375 0.59375q0.78125 0 1.3125 -0.59375q0.53125 -0.609375 0.53125 -1.75q0 -1.125 -0.53125 -1.71875q-0.53125 -0.609375 -1.3125 -0.609375q-0.796875 0 -1.34375 0.609375q-0.53125 0.59375 -0.53125 1.734375zm6.655731 1.625l2.015625 -0.296875q0.125 0.578125 0.515625 0.890625q0.40625 0.296875 1.109375 0.296875q0.78125 0 1.171875 -0.28125q0.265625 -0.203125 0.265625 -0.546875q0 -0.21875 -0.140625 -0.375q-0.15625 -0.140625 -0.671875 -0.265625q-2.4375 -0.53125 -3.078125 -0.984375q-0.90625 -0.609375 -0.90625 -1.703125q0 -0.984375 0.78125 -1.65625q0.78125 -0.671875 2.421875 -0.671875q1.546875 0 2.3125 0.515625q0.765625 0.5 1.046875 1.484375l-1.90625 0.359375q-0.109375 -0.453125 -0.453125 -0.6875q-0.34375 -0.234375 -0.96875 -0.234375q-0.796875 0 -1.140625 0.21875q-0.234375 0.15625 -0.234375 0.40625q0 0.21875 0.203125 0.375q0.28125 0.203125 1.875 0.5625q1.609375 0.359375 2.25 0.890625q0.625 0.546875 0.625 1.5q0 1.046875 -0.875 1.796875q-0.859375 0.75 -2.578125 0.75q-1.546875 0 -2.453125 -0.625q-0.90625 -0.640625 -1.1875 -1.71875zm12.338623 -5.421875l0 1.59375l-1.375 0l0 3.0625q0 0.9375 0.03125 1.09375q0.046875 0.140625 0.1875 0.25q0.140625 0.09375 0.34375 0.09375q0.28125 0 0.8125 -0.1875l0.171875 1.5625q-0.703125 0.296875 -1.59375 0.296875q-0.546875 0 -0.984375 -0.171875q-0.421875 -0.1875 -0.640625 -0.46875q-0.203125 -0.296875 -0.28125 -0.796875q-0.0625 -0.359375 -0.0625 -1.421875l0 -3.3125l-0.921875 0l0 -1.59375l0.921875 0l0 -1.515625l2.015625 -1.171875l0 2.6875l1.375 0zm2.9118958 2.3125l-1.828125 -0.328125q0.296875 -1.109375 1.046875 -1.625q0.765625 -0.53125 2.234375 -0.53125q1.359375 0 2.015625 0.3125q0.65625 0.3125 0.921875 0.8125q0.265625 0.484375 0.265625 1.796875l-0.015625 2.34375q0 1.0 0.09375 1.484375q0.09375 0.46875 0.359375 1.015625l-1.984375 0q-0.078125 -0.203125 -0.203125 -0.59375q-0.046875 -0.171875 -0.0625 -0.234375q-0.515625 0.5 -1.109375 0.75q-0.578125 0.25 -1.25 0.25q-1.171875 0 -1.859375 -0.640625q-0.671875 -0.640625 -0.671875 -1.609375q0 -0.640625 0.3125 -1.140625q0.3125 -0.515625 0.859375 -0.78125q0.5625 -0.265625 1.609375 -0.46875q1.40625 -0.265625 1.953125 -0.484375l0 -0.203125q0 -0.578125 -0.296875 -0.828125q-0.28125 -0.25 -1.078125 -0.25q-0.53125 0 -0.84375 0.21875q-0.296875 0.203125 -0.46875 0.734375zm2.6875 1.625q-0.390625 0.140625 -1.234375 0.328125q-0.828125 0.171875 -1.09375 0.34375q-0.390625 0.265625 -0.390625 0.703125q0 0.421875 0.3125 0.734375q0.3125 0.296875 0.8125 0.296875q0.53125 0 1.03125 -0.359375q0.359375 -0.265625 0.484375 -0.65625q0.078125 -0.265625 0.078125 -0.984375l0 -0.40625zm5.369873 3.65625l-2.40625 -7.59375l1.953125 0l1.421875 4.96875l1.3125 -4.96875l1.9375 0l1.265625 4.96875l1.453125 -4.96875l1.984375 0l-2.4375 7.59375l-1.9375 0l-1.3125 -4.890625l-1.28125 4.890625l-1.953125 0zm9.025085 -7.59375l2.140625 0l1.828125 5.390625l1.765625 -5.390625l2.09375 0l-2.6875 7.3125l-0.484375 1.3125q-0.265625 0.671875 -0.515625 1.015625q-0.234375 0.359375 -0.546875 0.578125q-0.296875 0.21875 -0.765625 0.328125q-0.453125 0.125 -1.015625 0.125q-0.578125 0 -1.140625 -0.109375l-0.171875 -1.578125q0.46875 0.09375 0.84375 0.09375q0.703125 0 1.03125 -0.421875q0.34375 -0.40625 0.515625 -1.046875l-2.890625 -7.609375z" fill-rule="nonzero"/><path fill="#ffffff" d="m393.48007 130.27686l-2.515625 -10.484383l2.171875 0l1.578125 7.203125l1.921875 -7.203125l2.515625 0l1.84375 7.328125l1.609375 -7.328125l2.125 0l-2.546875 10.484383l-2.234375 0l-2.09375 -7.8437576l-2.078125 7.8437576l-2.296875 0zm13.289001 -5.2812576l-1.828125 -0.328125q0.296875 -1.109375 1.046875 -1.625q0.765625 -0.53125 2.234375 -0.53125q1.359375 0 2.015625 0.3125q0.65625 0.3125 0.921875 0.8125q0.265625 0.484375 0.265625 1.796875l-0.015625 2.34375q0 1.0000076 0.09375 1.4843826q0.09375 0.46875 0.359375 1.015625l-1.984375 0q-0.078125 -0.203125 -0.203125 -0.59375q-0.046875 -0.171875 -0.0625 -0.234375q-0.515625 0.5 -1.109375 0.75q-0.578125 0.25 -1.25 0.25q-1.171875 0 -1.859375 -0.640625q-0.671875 -0.640625 -0.671875 -1.609375q0 -0.6406326 0.3125 -1.1406326q0.3125 -0.515625 0.859375 -0.78125q0.5625 -0.265625 1.609375 -0.46875q1.40625 -0.265625 1.953125 -0.484375l0 -0.203125q0 -0.578125 -0.296875 -0.828125q-0.28125 -0.25 -1.078125 -0.25q-0.53125 0 -0.84375 0.21875q-0.296875 0.203125 -0.46875 0.734375zm2.6875 1.625q-0.390625 0.140625 -1.234375 0.328125q-0.828125 0.171875 -1.09375 0.34375q-0.390625 0.265625 -0.390625 0.703125q0 0.42188263 0.3125 0.7343826q0.3125 0.296875 0.8125 0.296875q0.53125 0 1.03125 -0.359375q0.359375 -0.265625 0.484375 -0.65625q0.078125 -0.26563263 0.078125 -0.9843826l0 -0.40625zm5.885498 3.6562576l-2.015625 0l0 -7.5937576l1.859375 0l0 1.078125q0.484375 -0.765625 0.859375 -1.0q0.390625 -0.25 0.875 -0.25q0.6875 0 1.328125 0.375l-0.625 1.75q-0.5 -0.328125 -0.9375 -0.328125q-0.421875 0 -0.71875 0.234375q-0.296875 0.234375 -0.46875 0.84375q-0.15625 0.609375 -0.15625 2.546875l0 2.3437576zm7.2504883 -7.5937576l0 1.59375l-1.375 0l0 3.0625q0 0.9375076 0.03125 1.0937576q0.046875 0.140625 0.1875 0.25q0.140625 0.09375 0.34375 0.09375q0.28125 0 0.8125 -0.1875l0.171875 1.5625q-0.703125 0.296875 -1.59375 0.296875q-0.546875 0 -0.984375 -0.171875q-0.421875 -0.1875 -0.640625 -0.46875q-0.203125 -0.296875 -0.28125 -0.796875q-0.0625 -0.359375 -0.0625 -1.4218826l0 -3.3125l-0.921875 0l0 -1.59375l0.921875 0l0 -1.515625l2.015625 -1.171875l0 2.6875l1.375 0zm0.94314575 3.6875q0 -1.0 0.484375 -1.9375q0.5 -0.9375 1.40625 -1.421875q0.90625 -0.5 2.015625 -0.5q1.71875 0 2.828125 1.125q1.109375 1.109375 1.109375 2.8125q0 1.7343826 -1.125 2.8750076q-1.109375 1.125 -2.796875 1.125q-1.046875 0 -2.0 -0.46875q-0.9375 -0.46875 -1.4375 -1.375q-0.484375 -0.9218826 -0.484375 -2.2343826zm2.046875 0.109375q0 1.125 0.53125 1.7343826q0.546875 0.59375 1.34375 0.59375q0.78125 0 1.3125 -0.59375q0.53125 -0.6093826 0.53125 -1.7500076q0 -1.125 -0.53125 -1.71875q-0.53125 -0.609375 -1.3125 -0.609375q-0.796875 0 -1.34375 0.609375q-0.53125 0.59375 -0.53125 1.734375zm6.6557617 1.6250076l2.015625 -0.29688263q0.125 0.5781326 0.515625 0.8906326q0.40625 0.296875 1.109375 0.296875q0.78125 0 1.171875 -0.28125q0.265625 -0.203125 0.265625 -0.546875q0 -0.21875763 -0.140625 -0.37500763q-0.15625 -0.140625 -0.671875 -0.265625q-2.4375 -0.53125 -3.078125 -0.984375q-0.90625 -0.609375 -0.90625 -1.703125q0 -0.984375 0.78125 -1.65625q0.78125 -0.671875 2.421875 -0.671875q1.546875 0 2.3125 0.515625q0.765625 0.5 1.046875 1.484375l-1.90625 0.359375q-0.109375 -0.453125 -0.453125 -0.6875q-0.34375 -0.234375 -0.96875 -0.234375q-0.796875 0 -1.140625 0.21875q-0.234375 0.15625 -0.234375 0.40625q0 0.21875 0.203125 0.375q0.28125 0.203125 1.875 0.5625q1.609375 0.359375 2.25 0.890625q0.625 0.546875 0.625 1.5q0 1.0468826 -0.875 1.7968826q-0.859375 0.75 -2.578125 0.75q-1.546875 0 -2.453125 -0.625q-0.90625 -0.640625 -1.1875 -1.71875zm2.90625 -6.3593826l0.984375 -2.140625l2.25 0l-1.96875 2.140625l-1.265625 0zm12.572968 3.171875l-1.96875 0.359375q-0.109375 -0.59375 -0.46875 -0.890625q-0.34375 -0.296875 -0.90625 -0.296875q-0.75 0 -1.203125 0.515625q-0.453125 0.515625 -0.453125 1.734375q0 1.359375 0.453125 1.9218826q0.453125 0.546875 1.21875 0.546875q0.578125 0 0.9375 -0.328125q0.375 -0.328125 0.515625 -1.1093826l1.984375 0.328125q-0.3125 1.3593826 -1.1875 2.0625076q-0.875 0.6875 -2.328125 0.6875q-1.671875 0 -2.671875 -1.046875q-0.984375 -1.0625 -0.984375 -2.9218826q0 -1.875 0.984375 -2.921875q1.0 -1.046875 2.703125 -1.046875q1.390625 0 2.203125 0.59375q0.828125 0.59375 1.171875 1.8125zm1.526123 -3.265625l0 -1.859375l2.015625 0l0 1.859375l-2.015625 0zm0 8.625008l0 -7.5937576l2.015625 0l0 7.5937576l-2.015625 0z" fill-rule="nonzero"/><path fill="#ffffff" d="m395.06158 161.61018l-2.3125 0l-0.90625 -2.390625l-4.203125 0l-0.859375 2.390625l-2.25 0l4.09375 -10.484375l2.234375 0l4.203125 10.484375zm-3.90625 -4.15625l-1.4375 -3.890625l-1.421875 3.890625l2.859375 0zm4.943634 4.15625l0 -10.484375l2.0 0l0 5.5625l2.359375 -2.671875l2.484375 0l-2.609375 2.765625l2.796875 4.828125l-2.171875 0l-1.921875 -3.40625l-0.9375 0.96875l0 2.4375l-2.0 0zm7.510498 -2.171875l2.015625 -0.296875q0.125 0.578125 0.515625 0.890625q0.40625 0.296875 1.109375 0.296875q0.78125 0 1.171875 -0.28125q0.265625 -0.203125 0.265625 -0.546875q0 -0.21875 -0.140625 -0.375q-0.15625 -0.140625 -0.671875 -0.265625q-2.4375 -0.53125 -3.078125 -0.984375q-0.90625 -0.609375 -0.90625 -1.703125q0 -0.984375 0.78125 -1.65625q0.78125 -0.671875 2.421875 -0.671875q1.546875 0 2.3125 0.515625q0.765625 0.5 1.046875 1.484375l-1.90625 0.359375q-0.109375 -0.453125 -0.453125 -0.6875q-0.34375 -0.234375 -0.96875 -0.234375q-0.796875 0 -1.140625 0.21875q-0.234375 0.15625 -0.234375 0.40625q0 0.21875 0.203125 0.375q0.28125 0.203125 1.875 0.5625q1.609375 0.359375 2.25 0.890625q0.625 0.546875 0.625 1.5q0 1.046875 -0.875 1.796875q-0.859375 0.75 -2.578125 0.75q-1.546875 0 -2.453125 -0.625q-0.90625 -0.640625 -1.1875 -1.71875zm8.822968 -6.453125l0 -1.859375l2.0 0l0 1.859375l-2.0 0zm2.0 1.03125l0 7.359375q0 1.453125 -0.1875 2.046875q-0.1875 0.59375 -0.734375 0.921875q-0.53125 0.34375 -1.375 0.34375q-0.296875 0 -0.640625 -0.046875q-0.34375 -0.046875 -0.75 -0.15625l0.34375 -1.71875q0.15625 0.03125 0.28125 0.046875q0.125 0.015625 0.21875 0.015625q0.3125 0 0.5 -0.140625q0.203125 -0.125 0.265625 -0.3125q0.078125 -0.1875 0.078125 -1.109375l0 -7.25l2.0 0zm1.650116 3.6875q0 -1.0 0.484375 -1.9375q0.5 -0.9375 1.40625 -1.421875q0.90625 -0.5 2.015625 -0.5q1.71875 0 2.828125 1.125q1.109375 1.109375 1.109375 2.8125q0 1.734375 -1.125 2.875q-1.109375 1.125 -2.796875 1.125q-1.046875 0 -2.0 -0.46875q-0.9375 -0.46875 -1.4375 -1.375q-0.484375 -0.921875 -0.484375 -2.234375zm2.046875 0.109375q0 1.125 0.53125 1.734375q0.546875 0.59375 1.34375 0.59375q0.78125 0 1.3125 -0.59375q0.53125 -0.609375 0.53125 -1.75q0 -1.125 -0.53125 -1.71875q-0.53125 -0.609375 -1.3125 -0.609375q-0.796875 0 -1.34375 0.609375q-0.53125 0.59375 -0.53125 1.734375zm7.218231 -3.796875l1.84375 0l0 1.03125q1.0 -1.203125 2.375 -1.203125q0.734375 0 1.265625 0.296875q0.53125 0.296875 0.875 0.90625q0.5 -0.609375 1.078125 -0.90625q0.59375 -0.296875 1.25 -0.296875q0.828125 0 1.40625 0.34375q0.59375 0.328125 0.875 0.984375q0.203125 0.484375 0.203125 1.578125l0 4.859375l-2.015625 0l0 -4.34375q0 -1.125 -0.203125 -1.453125q-0.28125 -0.4375 -0.859375 -0.4375q-0.421875 0 -0.796875 0.265625q-0.359375 0.25 -0.53125 0.75q-0.171875 0.5 -0.171875 1.5625l0 3.65625l-2.0 0l0 -4.171875q0 -1.109375 -0.109375 -1.421875q-0.109375 -0.328125 -0.34375 -0.484375q-0.21875 -0.15625 -0.609375 -0.15625q-0.453125 0 -0.828125 0.25q-0.375 0.25 -0.546875 0.734375q-0.15625 0.46875 -0.15625 1.5625l0 3.6875l-2.0 0l0 -7.59375zm14.688019 2.3125l-1.828125 -0.328125q0.296875 -1.109375 1.046875 -1.625q0.765625 -0.53125 2.234375 -0.53125q1.359375 0 2.015625 0.3125q0.65625 0.3125 0.921875 0.8125q0.265625 0.484375 0.265625 1.796875l-0.015625 2.34375q0 1.0 0.09375 1.484375q0.09375 0.46875 0.359375 1.015625l-1.984375 0q-0.078125 -0.203125 -0.203125 -0.59375q-0.046875 -0.171875 -0.0625 -0.234375q-0.515625 0.5 -1.109375 0.75q-0.578125 0.25 -1.25 0.25q-1.171875 0 -1.859375 -0.640625q-0.671875 -0.640625 -0.671875 -1.609375q0 -0.640625 0.3125 -1.140625q0.3125 -0.515625 0.859375 -0.78125q0.5625 -0.265625 1.609375 -0.46875q1.40625 -0.265625 1.953125 -0.484375l0 -0.203125q0 -0.578125 -0.296875 -0.828125q-0.28125 -0.25 -1.078125 -0.25q-0.53125 0 -0.84375 0.21875q-0.296875 0.203125 -0.46875 0.734375zm2.6875 1.625q-0.390625 0.140625 -1.234375 0.328125q-0.828125 0.171875 -1.09375 0.34375q-0.390625 0.265625 -0.390625 0.703125q0 0.421875 0.3125 0.734375q0.3125 0.296875 0.8125 0.296875q0.53125 0 1.03125 -0.359375q0.359375 -0.265625 0.484375 -0.65625q0.078125 -0.265625 0.078125 -0.984375l0 -0.40625zm7.4323425 -3.9375l0 1.59375l-1.375 0l0 3.0625q0 0.9375 0.03125 1.09375q0.046875 0.140625 0.1875 0.25q0.140625 0.09375 0.34375 0.09375q0.28125 0 0.8125 -0.1875l0.171875 1.5625q-0.703125 0.296875 -1.59375 0.296875q-0.546875 0 -0.984375 -0.171875q-0.421875 -0.1875 -0.640625 -0.46875q-0.203125 -0.296875 -0.28125 -0.796875q-0.0625 -0.359375 -0.0625 -1.421875l0 -3.3125l-0.921875 0l0 -1.59375l0.921875 0l0 -1.515625l2.015625 -1.171875l0 2.6875l1.375 0zm0.44314575 0l2.140625 0l1.828125 5.390625l1.765625 -5.390625l2.09375 0l-2.6875 7.3125l-0.484375 1.3125q-0.265625 0.671875 -0.515625 1.015625q-0.234375 0.359375 -0.546875 0.578125q-0.296875 0.21875 -0.765625 0.328125q-0.453125 0.125 -1.015625 0.125q-0.578125 0 -1.140625 -0.109375l-0.171875 -1.578125q0.46875 0.09375 0.84375 0.09375q0.703125 0 1.03125 -0.421875q0.34375 -0.40625 0.515625 -1.046875l-2.890625 -7.609375z" fill-rule="nonzero"/><path fill="#000000" fill-opacity="0.0" d="m36.0 253.79527l0 -253.79527" fill-rule="evenodd"/><path stroke="#ffffff" stroke-width="1.0" stroke-linejoin="round" stroke-linecap="butt" d="m36.0 253.79527l0 -250.36818" fill-rule="evenodd"/><path fill="#ffffff" stroke="#ffffff" stroke-width="1.0" stroke-linecap="butt" d="m36.0 3.4270866l1.1245842 1.1245835l-1.1245842 -3.089768l-1.1245842 3.089768z" fill-rule="evenodd"/><path fill="#000000" fill-opacity="0.0" d="m36.0 253.79527l749.7008 0" fill-rule="evenodd"/><path stroke="#ffffff" stroke-width="1.0" stroke-linejoin="round" stroke-linecap="butt" d="m36.0 253.79527l746.2737 0" fill-rule="evenodd"/><path fill="#ffffff" stroke="#ffffff" stroke-width="1.0" stroke-linecap="butt" d="m782.2737 253.79527l-1.1245728 1.124588l3.0897827 -1.124588l-3.0897827 -1.124588z" fill-rule="evenodd"/><path fill="#000000" fill-opacity="0.0" d="m0 235.49606l0 -217.19685l36.0 0l0 217.19685z" fill-rule="evenodd"/><path fill="#efefef" d="m23.08 225.37106l-10.484375 0l0 -3.96875q0 -1.046875 0.09375 -1.59375q0.125 -0.765625 0.484375 -1.28125q0.359375 -0.53125 1.015625 -0.84375q0.65625 -0.328125 1.4375 -0.328125q1.328125 0 2.265625 0.859375q0.921875 0.84375 0.921875 3.078125l0 2.6875l4.265625 0l0 1.390625zm-5.5 -1.390625l0 -2.71875q0 -1.34375 -0.5 -1.90625q-0.5 -0.5625 -1.40625 -0.5625q-0.671875 0 -1.140625 0.328125q-0.46875 0.328125 -0.609375 0.875q-0.09375 0.359375 -0.09375 1.296875l0 2.6875l3.75 0zm1.703125 -7.7443542q-2.109375 0 -3.125 -1.171875q-0.84375 -0.984375 -0.84375 -2.390625q0 -1.578125 1.03125 -2.5625q1.015625 -1.0 2.828125 -1.0q1.46875 0 2.3125 0.4375q0.828125 0.4375 1.296875 1.28125q0.46875 0.84375 0.46875 1.84375q0 1.59375 -1.015625 2.578125q-1.03125 0.984375 -2.953125 0.984375zm0 -1.328125q1.453125 0 2.1875 -0.625q0.71875 -0.640625 0.71875 -1.609375q0 -0.96875 -0.71875 -1.59375q-0.734375 -0.640625 -2.234375 -0.640625q-1.40625 0 -2.125 0.640625q-0.734375 0.640625 -0.734375 1.59375q0 0.96875 0.71875 1.609375q0.71875 0.625 2.1875 0.625zm3.796875 -6.619858l-1.046875 0l-5.546875 -4.84375q0.03125 0.828125 0.03125 1.453125l0 3.09375l-1.03125 0l0 -6.203125l0.84375 0l4.828125 4.109375l0.875 0.796875q-0.0625 -0.859375 -0.0625 -1.625l0 -3.515625l1.109375 0l0 6.734375zm-9.015625 -8.015625l-1.46875 0l0 -1.296875l1.46875 0l0 1.296875zm9.015625 0l-7.59375 0l0 -1.296875l7.59375 0l0 1.296875zm-3.796875 -2.7717743q-2.109375 0 -3.125 -1.171875q-0.84375 -0.984375 -0.84375 -2.390625q0 -1.578125 1.03125 -2.5625q1.015625 -1.0 2.828125 -1.0q1.46875 0 2.3125 0.4375q0.828125 0.4375 1.296875 1.28125q0.46875 0.84375 0.46875 1.84375q0 1.59375 -1.015625 2.578125q-1.03125 0.984375 -2.953125 0.984375zm0 -1.328125q1.453125 0 2.1875 -0.625q0.71875 -0.640625 0.71875 -1.609375q0 -0.96875 -0.71875 -1.59375q-0.734375 -0.640625 -2.234375 -0.640625q-1.40625 0 -2.125 0.640625q-0.734375 0.640625 -0.734375 1.59375q0 0.96875 0.71875 1.609375q0.71875 0.625 2.1875 0.625zm3.796875 -7.307358l-7.59375 0l0 -1.15625l1.0625 0q-0.5625 -0.34375 -0.890625 -0.9375q-0.34375 -0.609375 -0.34375 -1.359375q0 -0.84375 0.34375 -1.375q0.34375 -0.546875 0.984375 -0.765625q-1.328125 -0.90625 -1.328125 -2.359375q0 -1.125 0.625 -1.734375q0.625 -0.609375 1.921875 -0.609375l5.21875 0l0 1.28125l-4.78125 0q-0.78125 0 -1.109375 0.125q-0.34375 0.125 -0.546875 0.453125q-0.21875 0.328125 -0.21875 0.78125q0 0.796875 0.53125 1.328125q0.53125 0.53125 1.703125 0.53125l4.421875 0l0 1.28125l-4.9375 0q-0.859375 0 -1.28125 0.3125q-0.4375 0.3125 -0.4375 1.03125q0 0.546875 0.296875 1.015625q0.28125 0.453125 0.828125 0.671875q0.546875 0.203125 1.59375 0.203125l3.9375 0l0 1.28125zm3.078125 -18.733871q-1.34375 1.0625 -3.140625 1.796875q-1.8125 0.734375 -3.734375 0.734375q-1.703125 0 -3.265625 -0.546875q-1.8125 -0.640625 -3.609375 -1.984375l0 -0.921875q1.484375 0.859375 2.125 1.140625q0.984375 0.4375 2.0625 0.6875q1.34375 0.296875 2.6875 0.296875q3.453125 0 6.875 -2.125l0 0.921875zm-3.078125 -3.8337708l-7.59375 2.328125l0 -1.328125l4.375 -1.203125l1.640625 -0.453125q-0.125 -0.03125 -1.578125 -0.390625l-4.4375 -1.21875l0 -1.328125l4.40625 -1.125l1.453125 -0.390625l-1.46875 -0.4375l-4.390625 -1.296875l0 -1.25l7.59375 2.375l0 1.34375l-4.546875 1.203125l-1.296875 0.296875l5.84375 1.53125l0 1.34375zm-0.9375 -14.131149q0.609375 0.71875 0.859375 1.375q0.25 0.65625 0.25 1.421875q0 1.25 -0.609375 1.921875q-0.609375 0.671875 -1.5625 0.671875q-0.5625 0 -1.015625 -0.25q-0.46875 -0.25 -0.75 -0.65625q-0.28125 -0.421875 -0.421875 -0.9375q-0.09375 -0.375 -0.1875 -1.140625q-0.1875 -1.5625 -0.453125 -2.296875q-0.265625 -0.015625 -0.328125 -0.015625q-0.796875 0 -1.109375 0.375q-0.4375 0.484375 -0.4375 1.453125q0 0.921875 0.328125 1.359375q0.3125 0.421875 1.109375 0.625l-0.171875 1.265625q-0.796875 -0.171875 -1.296875 -0.5625q-0.5 -0.390625 -0.765625 -1.140625q-0.265625 -0.75 -0.265625 -1.71875q0 -0.984375 0.234375 -1.59375q0.21875 -0.609375 0.5625 -0.890625q0.34375 -0.28125 0.875 -0.40625q0.328125 -0.0625 1.1875 -0.0625l1.71875 0q1.796875 0 2.28125 -0.078125q0.46875 -0.078125 0.90625 -0.328125l0 1.34375q-0.40625 0.203125 -0.9375 0.265625zm-2.875 0.109375q0.28125 0.703125 0.484375 2.09375q0.109375 0.796875 0.265625 1.125q0.140625 0.328125 0.421875 0.515625q0.265625 0.171875 0.59375 0.171875q0.515625 0 0.859375 -0.390625q0.34375 -0.390625 0.34375 -1.140625q0 -0.734375 -0.3125 -1.3125q-0.328125 -0.59375 -0.890625 -0.859375q-0.4375 -0.203125 -1.296875 -0.203125l-0.46875 0zm3.8125 -3.2917328l-7.59375 0l0 -1.15625l1.140625 0q-0.796875 -0.453125 -1.046875 -0.828125q-0.265625 -0.375 -0.265625 -0.8125q0 -0.65625 0.40625 -1.328125l1.203125 0.4375q-0.28125 0.46875 -0.28125 0.953125q0 0.421875 0.25 0.765625q0.25 0.328125 0.703125 0.46875q0.6875 0.21875 1.5 0.21875l3.984375 0l0 1.28125zm-2.265625 -4.3806458l-0.203125 -1.265625q0.765625 -0.109375 1.171875 -0.59375q0.40625 -0.5 0.40625 -1.375q0 -0.890625 -0.359375 -1.3125q-0.359375 -0.4375 -0.84375 -0.4375q-0.4375 0 -0.6875 0.375q-0.171875 0.265625 -0.4375 1.3125q-0.359375 1.421875 -0.609375 1.96875q-0.265625 0.546875 -0.734375 0.828125q-0.46875 0.28125 -1.015625 0.28125q-0.515625 0 -0.9375 -0.21875q-0.4375 -0.234375 -0.734375 -0.640625q-0.21875 -0.296875 -0.359375 -0.8125q-0.15625 -0.53125 -0.15625 -1.125q0 -0.890625 0.265625 -1.5625q0.25 -0.671875 0.6875 -1.0q0.4375 -0.328125 1.171875 -0.4375l0.171875 1.25q-0.578125 0.09375 -0.90625 0.5q-0.34375 0.40625 -0.34375 1.15625q0 0.890625 0.296875 1.28125q0.296875 0.375 0.6875 0.375q0.25 0 0.453125 -0.15625q0.203125 -0.15625 0.34375 -0.5q0.078125 -0.1875 0.328125 -1.140625q0.359375 -1.359375 0.59375 -1.890625q0.234375 -0.546875 0.6875 -0.859375q0.4375 -0.3125 1.09375 -0.3125q0.640625 0 1.21875 0.375q0.5625 0.375 0.875 1.09375q0.3125 0.703125 0.3125 1.59375q0 1.484375 -0.609375 2.265625q-0.625 0.765625 -1.828125 0.984375zm1.109375 -10.65625l1.140625 -0.1875q0.109375 0.546875 0.109375 0.984375q0 0.6875 -0.21875 1.078125q-0.21875 0.390625 -0.578125 0.546875q-0.359375 0.15625 -1.515625 0.15625l-4.375 0l0 0.953125l-1.0 0l0 -0.953125l-1.890625 0l-0.765625 -1.28125l2.65625 0l0 -1.296875l1.0 0l0 1.296875l4.4375 0q0.546875 0 0.71875 -0.0625q0.15625 -0.078125 0.25 -0.21875q0.078125 -0.15625 0.078125 -0.453125q0 -0.203125 -0.046875 -0.5625zm1.15625 -2.6657257l-7.59375 2.328125l0 -1.328125l4.375 -1.203125l1.640625 -0.453125q-0.125 -0.03125 -1.578125 -0.390625l-4.4375 -1.21875l0 -1.328125l4.40625 -1.125l1.453125 -0.390625l-1.46875 -0.4375l-4.390625 -1.296875l0 -1.25l7.59375 2.375l0 1.34375l-4.546875 1.203125l-1.296875 0.296875l5.84375 1.53125l0 1.34375zm-0.9375 -14.131149q0.609375 0.71875 0.859375 1.375q0.25 0.65625 0.25 1.421875q0 1.25 -0.609375 1.921875q-0.609375 0.671875 -1.5625 0.671875q-0.5625 0 -1.015625 -0.25q-0.46875 -0.25 -0.75 -0.65625q-0.28125 -0.421875 -0.421875 -0.9375q-0.09375 -0.375 -0.1875 -1.140625q-0.1875 -1.5625 -0.453125 -2.296875q-0.265625 -0.015625 -0.328125 -0.015625q-0.796875 0 -1.109375 0.375q-0.4375 0.484375 -0.4375 1.453125q0 0.921875 0.328125 1.359375q0.3125 0.421875 1.109375 0.625l-0.171875 1.265625q-0.796875 -0.171875 -1.296875 -0.5625q-0.5 -0.390625 -0.765625 -1.140625q-0.265625 -0.75 -0.265625 -1.71875q0 -0.984375 0.234375 -1.59375q0.21875 -0.609375 0.5625 -0.890625q0.34375 -0.28125 0.875 -0.40625q0.328125 -0.0625 1.1875 -0.0625l1.71875 0q1.796875 0 2.28125 -0.078125q0.46875 -0.078125 0.90625 -0.328125l0 1.34375q-0.40625 0.203125 -0.9375 0.265625zm-2.875 0.109375q0.28125 0.703125 0.484375 2.09375q0.109375 0.796875 0.265625 1.125q0.140625 0.328125 0.421875 0.515625q0.265625 0.171875 0.59375 0.171875q0.515625 0 0.859375 -0.390625q0.34375 -0.390625 0.34375 -1.140625q0 -0.734375 -0.3125 -1.3125q-0.328125 -0.59375 -0.890625 -0.859375q-0.4375 -0.203125 -1.296875 -0.203125l-0.46875 0zm6.890625 -4.151108l0 0.921875q-3.421875 -2.140625 -6.875 -2.140625q-1.34375 0 -2.671875 0.3125q-1.0625 0.25 -2.046875 0.671875q-0.65625 0.28125 -2.15625 1.15625l0 -0.921875q1.796875 -1.34375 3.609375 -1.984375q1.5625 -0.546875 3.265625 -0.546875q1.921875 0 3.734375 0.734375q1.796875 0.734375 3.140625 1.796875zm-3.078125 -13.030746l-0.953125 0q1.125 0.71875 1.125 2.125q0 0.90625 -0.5 1.671875q-0.5 0.75 -1.390625 1.171875q-0.90625 0.421875 -2.078125 0.421875q-1.140625 0 -2.0625 -0.375q-0.921875 -0.390625 -1.40625 -1.140625q-0.5 -0.765625 -0.5 -1.703125q0 -0.6875 0.296875 -1.21875q0.28125 -0.53125 0.734375 -0.875l-3.75 0l0 -1.28125l10.484375 0l0 1.203125zm-3.796875 4.0625q1.46875 0 2.1875 -0.609375q0.71875 -0.625 0.71875 -1.453125q0 -0.84375 -0.6875 -1.4375q-0.6875 -0.59375 -2.109375 -0.59375q-1.5625 0 -2.28125 0.609375q-0.734375 0.59375 -0.734375 1.484375q0 0.84375 0.703125 1.421875q0.703125 0.578125 2.203125 0.578125zm3.796875 -12.276108l-1.109375 0q1.28125 0.890625 1.28125 2.421875q0 0.671875 -0.25 1.25q-0.265625 0.578125 -0.65625 0.875q-0.390625 0.28125 -0.953125 0.390625q-0.375 0.078125 -1.203125 0.078125l-4.703125 0l0 -1.28125l4.203125 0q1.015625 0 1.359375 -0.078125q0.515625 -0.125 0.8125 -0.515625q0.28125 -0.40625 0.28125 -0.984375q0 -0.578125 -0.296875 -1.078125q-0.296875 -0.515625 -0.8125 -0.71875q-0.515625 -0.21875 -1.484375 -0.21875l-4.0625 0l0 -1.28125l7.59375 0l0 1.140625zm-2.78125 -8.119858l0.15625 -1.265625q1.3125 0.203125 2.0625 1.0625q0.734375 0.84375 0.734375 2.09375q0 1.5625 -1.015625 2.515625q-1.03125 0.9375 -2.921875 0.9375q-1.234375 0 -2.15625 -0.40625q-0.921875 -0.40625 -1.375 -1.234375q-0.46875 -0.84375 -0.46875 -1.8125q0 -1.25 0.625 -2.03125q0.625 -0.78125 1.765625 -1.015625l0.203125 1.265625q-0.765625 0.171875 -1.15625 0.625q-0.390625 0.453125 -0.390625 1.09375q0 0.984375 0.703125 1.59375q0.703125 0.609375 2.203125 0.609375q1.53125 0 2.234375 -0.578125q0.6875 -0.59375 0.6875 -1.546875q0 -0.75 -0.453125 -1.265625q-0.46875 -0.515625 -1.4375 -0.640625zm2.78125 -2.375l-10.484375 0l0 -1.28125l3.75 0q-1.03125 -0.90625 -1.03125 -2.28125q0 -0.84375 0.328125 -1.46875q0.328125 -0.625 0.921875 -0.890625q0.578125 -0.265625 1.703125 -0.265625l4.8125 0l0 1.28125l-4.8125 0q-0.96875 0 -1.40625 0.421875q-0.4375 0.421875 -0.4375 1.1875q0 0.578125 0.296875 1.078125q0.296875 0.5 0.8125 0.71875q0.5 0.21875 1.390625 0.21875l4.15625 0l0 1.28125zm-3.796875 -7.666733q-2.109375 0 -3.125 -1.171875q-0.84375 -0.984375 -0.84375 -2.390625q0 -1.578125 1.03125 -2.5625q1.015625 -1.0 2.828125 -1.0q1.46875 0 2.3125 0.4375q0.828125 0.4375 1.296875 1.28125q0.46875 0.84375 0.46875 1.84375q0 1.59375 -1.015625 2.578125q-1.03125 0.984375 -2.953125 0.984375zm0 -1.328125q1.453125 0 2.1875 -0.625q0.71875 -0.640625 0.71875 -1.609375q0 -0.96875 -0.71875 -1.59375q-0.734375 -0.640625 -2.234375 -0.640625q-1.40625 0 -2.125 0.640625q-0.734375 0.640625 -0.734375 1.59375q0 0.96875 0.71875 1.609375q0.71875 0.625 2.1875 0.625zm3.796875 -8.713608l-7.59375 2.328125l0 -1.328125l4.375 -1.203125l1.640625 -0.453125q-0.125 -0.03125 -1.578125 -0.390625l-4.4375 -1.21875l0 -1.328125l4.40625 -1.125l1.453125 -0.390625l-1.46875 -0.4375l-4.390625 -1.296875l0 -1.25l7.59375 2.375l0 1.34375l-4.546875 1.203125l-1.296875 0.296875l5.84375 1.53125l0 1.34375zm-3.796875 -8.693649q-2.109375 0 -3.125 -1.171875q-0.84375 -0.984375 -0.84375 -2.390625q0 -1.578125 1.03125 -2.5625q1.015625 -1.0 2.828125 -1.0q1.46875 0 2.3125 0.4375q0.828125 0.4375 1.296875 1.28125q0.46875 0.84375 0.46875 1.84375q0 1.59375 -1.015625 2.578125q-1.03125 0.984375 -2.953125 0.984375zm0 -1.328125q1.453125 0 2.1875 -0.625q0.71875 -0.640625 0.71875 -1.609375q0 -0.96875 -0.71875 -1.59375q-0.734375 -0.640625 -2.234375 -0.640625q-1.40625 0 -2.125 0.640625q-0.734375 0.640625 -0.734375 1.59375q0 0.96875 0.71875 1.609375q0.71875 0.625 2.1875 0.625zm1.53125 -6.791733l-0.203125 -1.265625q0.765625 -0.109375 1.171875 -0.59375q0.40625 -0.5 0.40625 -1.375q0 -0.890625 -0.359375 -1.3125q-0.359375 -0.4375 -0.84375 -0.4375q-0.4375 0 -0.6875 0.375q-0.171875 0.265625 -0.4375 1.3125q-0.359375 1.421875 -0.609375 1.96875q-0.265625 0.546875 -0.734375 0.828125q-0.46875 0.28125 -1.015625 0.28125q-0.515625 0 -0.9375 -0.21875q-0.4375 -0.234375 -0.734375 -0.640625q-0.21875 -0.296875 -0.359375 -0.8125q-0.15625 -0.53125 -0.15625 -1.125q0 -0.890625 0.265625 -1.5625q0.25 -0.671875 0.6875 -1.0q0.4375 -0.328125 1.171875 -0.4375l0.171875 1.25q-0.578125 0.09375 -0.90625 0.5q-0.34375 0.40625 -0.34375 1.15625q0 0.890625 0.296875 1.28125q0.296875 0.375 0.6875 0.375q0.25 0 0.453125 -0.15625q0.203125 -0.15625 0.34375 -0.5q0.078125 -0.1875 0.328125 -1.140625q0.359375 -1.359375 0.59375 -1.890625q0.234375 -0.546875 0.6875 -0.859375q0.4375 -0.3125 1.09375 -0.3125q0.640625 0 1.21875 0.375q0.5625 0.375 0.875 1.09375q0.3125 0.703125 0.3125 1.59375q0 1.484375 -0.609375 2.265625q-0.625 0.765625 -1.828125 0.984375zm-6.28125 -2.375l-2.0 -0.953125l0 -1.6875l2.0 1.578125l0 1.0625zm5.765625 -10.421875l0.15625 -1.265625q1.3125 0.203125 2.0625 1.0625q0.734375 0.84375 0.734375 2.09375q0 1.5625 -1.015625 2.515625q-1.03125 0.9375 -2.921875 0.9375q-1.234375 0 -2.15625 -0.40625q-0.921875 -0.40625 -1.375 -1.234375q-0.46875 -0.84375 -0.46875 -1.8125q0 -1.25 0.625 -2.03125q0.625 -0.78125 1.765625 -1.015625l0.203125 1.265625q-0.765625 0.171875 -1.15625 0.625q-0.390625 0.453125 -0.390625 1.09375q0 0.984375 0.703125 1.59375q0.703125 0.609375 2.203125 0.609375q1.53125 0 2.234375 -0.578125q0.6875 -0.59375 0.6875 -1.546875q0 -0.75 -0.453125 -1.265625q-0.46875 -0.515625 -1.4375 -0.640625zm-6.234375 -2.375l-1.46875 0l0 -1.296875l1.46875 0l0 1.296875zm9.015625 0l-7.59375 0l0 -1.296875l7.59375 0l0 1.296875z" fill-rule="nonzero"/><path fill="#000000" fill-opacity="0.0" d="m718.7139 253.79527l55.18109 0l0 32.755905l-55.18109 0z" fill-rule="evenodd"/><path fill="#efefef" d="m736.3233 273.2034l1.390625 0.34375q-0.4375 1.703125 -1.578125 2.609375q-1.125 0.890625 -2.765625 0.890625q-1.6875 0 -2.75 -0.6875q-1.0625 -0.6875 -1.625 -2.0q-0.546875 -1.3125 -0.546875 -2.8125q0 -1.640625 0.625 -2.859375q0.625 -1.21875 1.78125 -1.84375q1.15625 -0.640625 2.546875 -0.640625q1.5625 0 2.640625 0.8125q1.078125 0.796875 1.5 2.25l-1.375 0.3125q-0.359375 -1.140625 -1.0625 -1.65625q-0.6875 -0.53125 -1.734375 -0.53125q-1.21875 0 -2.03125 0.578125q-0.8125 0.578125 -1.140625 1.5625q-0.328125 0.96875 -0.328125 2.015625q0 1.328125 0.390625 2.328125q0.390625 1.0 1.21875 1.5q0.828125 0.484375 1.78125 0.484375q1.171875 0 1.96875 -0.671875q0.8125 -0.671875 1.09375 -1.984375zm2.2561035 3.671875l0 -1.046875l4.84375 -5.546875q-0.828125 0.03125 -1.453125 0.03125l-3.09375 0l0 -1.03125l6.203125 0l0 0.84375l-4.109375 4.828125l-0.796875 0.875q0.859375 -0.0625 1.625 -0.0625l3.515625 0l0 1.109375l-6.734375 0zm12.96875 -0.9375q-0.71875 0.609375 -1.375 0.859375q-0.65625 0.25 -1.421875 0.25q-1.25 0 -1.921875 -0.609375q-0.671875 -0.609375 -0.671875 -1.5625q0 -0.5625 0.25 -1.015625q0.25 -0.46875 0.65625 -0.75q0.421875 -0.28125 0.9375 -0.421875q0.375 -0.09375 1.140625 -0.1875q1.5625 -0.1875 2.296875 -0.453125q0.015625 -0.265625 0.015625 -0.328125q0 -0.796875 -0.375 -1.109375q-0.484375 -0.4375 -1.453125 -0.4375q-0.921875 0 -1.359375 0.328125q-0.421875 0.3125 -0.625 1.109375l-1.265625 -0.171875q0.171875 -0.796875 0.5625 -1.296875q0.390625 -0.5 1.140625 -0.765625q0.75 -0.265625 1.71875 -0.265625q0.984375 0 1.59375 0.234375q0.609375 0.21875 0.890625 0.5625q0.28125 0.34375 0.40625 0.875q0.0625 0.328125 0.0625 1.1875l0 1.71875q0 1.796875 0.078125 2.28125q0.078125 0.46875 0.328125 0.90625l-1.34375 0q-0.203125 -0.40625 -0.265625 -0.9375zm-0.109375 -2.875q-0.703125 0.28125 -2.09375 0.484375q-0.796875 0.109375 -1.125 0.265625q-0.328125 0.140625 -0.515625 0.421875q-0.171875 0.265625 -0.171875 0.59375q0 0.515625 0.390625 0.859375q0.390625 0.34375 1.140625 0.34375q0.734375 0 1.3125 -0.3125q0.59375 -0.328125 0.859375 -0.890625q0.203125 -0.4375 0.203125 -1.296875l0 -0.46875zm2.791748 1.546875l1.265625 -0.203125q0.109375 0.765625 0.59375 1.171875q0.5 0.40625 1.375 0.40625q0.890625 0 1.3125 -0.359375q0.4375 -0.359375 0.4375 -0.84375q0 -0.4375 -0.375 -0.6875q-0.265625 -0.171875 -1.3125 -0.4375q-1.421875 -0.359375 -1.96875 -0.609375q-0.546875 -0.265625 -0.828125 -0.734375q-0.28125 -0.46875 -0.28125 -1.015625q0 -0.515625 0.21875 -0.9375q0.234375 -0.4375 0.640625 -0.734375q0.296875 -0.21875 0.8125 -0.359375q0.53125 -0.15625 1.125 -0.15625q0.890625 0 1.5625 0.265625q0.671875 0.25 1.0 0.6875q0.328125 0.4375 0.4375 1.171875l-1.25 0.171875q-0.09375 -0.578125 -0.5 -0.90625q-0.40625 -0.34375 -1.15625 -0.34375q-0.890625 0 -1.28125 0.296875q-0.375 0.296875 -0.375 0.6875q0 0.25 0.15625 0.453125q0.15625 0.203125 0.5 0.34375q0.1875 0.078125 1.140625 0.328125q1.359375 0.359375 1.890625 0.59375q0.546875 0.234375 0.859375 0.6875q0.3125 0.4375 0.3125 1.09375q0 0.640625 -0.375 1.21875q-0.375 0.5625 -1.09375 0.875q-0.703125 0.3125 -1.59375 0.3125q-1.484375 0 -2.265625 -0.609375q-0.765625 -0.625 -0.984375 -1.828125z" fill-rule="nonzero"/><path fill="#000000" fill-opacity="0.0" d="m85.40157 102.69292l187.37009 94.267715" fill-rule="evenodd"/><path stroke="#ffffff" stroke-width="1.0" stroke-linejoin="round" stroke-linecap="butt" d="m85.40157 102.69292l184.30862 92.72746" fill-rule="evenodd"/><path fill="#ffffff" stroke="#ffffff" stroke-width="1.0" stroke-linecap="butt" d="m269.7102 195.42038l-1.5100403 0.49917603l3.265564 0.38404846l-2.2547302 -2.3932648z" fill-rule="evenodd"/><path fill="#000000" fill-opacity="0.0" d="m570.75854 196.3727l187.37006 -93.66928" fill-rule="evenodd"/><path stroke="#ffffff" stroke-width="1.0" stroke-linejoin="round" stroke-linecap="butt" d="m570.75854 196.3727l184.30469 -92.136856" fill-rule="evenodd"/><path fill="#ffffff" stroke="#ffffff" stroke-width="1.0" stroke-linecap="butt" d="m755.06323 104.23585l-0.50305176 1.5087509l2.2608032 -2.3874893l-3.2665405 0.37570953z" fill-rule="evenodd"/><path fill="#000000" fill-opacity="0.0" d="m592.2568 182.76741l138.80316 -69.70079l14.677185 29.228348l-138.80316 69.70079z" fill-rule="evenodd"/><path fill="#ffffff" d="m611.87177 198.74417l-4.704895 -9.369431l1.2427368 -0.6240387l4.704895 9.369415l-1.2427368 0.62405396zm3.289856 -1.6520233l-3.4077148 -6.786194l1.0332642 -0.5188751l0.48382568 0.96347046q0.1930542 -1.4957123 1.6033936 -2.2039032q0.6143799 -0.30851746 1.2431641 -0.3445282q0.6218262 -0.049987793 1.055481 0.18684387q0.4336548 0.23683167 0.7907715 0.6694641q0.21716309 0.29310608 0.6168213 1.0890198l2.0964966 4.175049l-1.1449585 0.57496643l-2.0755005 -4.1331635q-0.35058594 -0.6981659 -0.66552734 -0.9771271q-0.3149414 -0.27897644 -0.76916504 -0.3131256q-0.44030762 -0.041168213 -0.90112305 0.19021606q-0.7260742 0.36460876 -1.0322266 1.1128235q-0.29925537 0.72724915 0.35284424 2.0258331l1.8651123 3.714264l-1.1449585 0.57496643zm9.278809 -5.9532623l0.6793823 0.9351959q-0.43963623 0.3431549 -0.8305664 0.5394745q-0.6143799 0.30851746 -1.0616455 0.28833008q-0.44726562 -0.020187378 -0.74816895 -0.27122498q-0.30090332 -0.2510376 -0.8197632 -1.2843323l-1.9633179 -3.9097443l-0.8517456 0.42771912l-0.44873047 -0.8936615l0.8517456 -0.42771912l-0.8484497 -1.6895599l0.80145264 -1.2591705l1.1920166 2.373764l1.1589355 -0.5819702l0.44873047 0.8936615l-1.1589355 0.5819702l1.991333 3.9655914q0.24542236 0.48872375 0.37841797 0.6142731q0.13989258 0.10456848 0.30767822 0.12524414q0.17468262 -2.89917E-4 0.44000244 -0.1335144q0.18151855 -0.091156006 0.48162842 -0.29432678zm5.1933594 -4.059067l1.263977 -0.44241333q0.24664307 1.1875 -0.23388672 2.1456451q-0.4664917 0.9511261 -1.6533813 1.5471344q-1.4940796 0.7502594 -2.8295288 0.28437805q-1.3285522 -0.48684692 -2.1629028 -2.1484985q-0.8624878 -1.7174835 -0.45257568 -3.0947723q0.41687012 -1.3982697 1.8271484 -2.1064606q1.3544312 -0.68014526 2.6829834 -0.19328308q1.3284912 0.48684692 2.17688 2.176422q0.0491333 0.097732544 0.14031982 0.31419373l-5.0547485 2.538269q0.6168213 1.0890198 1.4908447 1.4019623q0.86694336 0.2989807 1.71875 -0.1287384q0.62835693 -0.31552124 0.9138794 -0.8610687q0.27856445 -0.559494 0.17224121 -1.4327698zm-4.716675 0.043060303l3.7980347 -1.9072113q-0.5114746 -0.8096924 -1.0779419 -1.0672607q-0.89508057 -0.3897705 -1.7747803 0.051971436q-0.7819214 0.39266968 -1.0600586 1.1967316q-0.2781372 0.8040619 0.114746094 1.725769zm8.52301 1.489975l1.2012329 -0.39338684q0.32922363 0.4815979 0.7695923 0.5576935q0.5802002 0.110809326 1.3341675 -0.26782227q0.7959595 -0.39967346 1.0675049 -0.9382019q0.27160645 -0.53852844 0.13775635 -1.1881561q-0.07757568 -0.39816284 -0.65948486 -1.5221863q-0.30529785 1.2722931 -1.4362793 1.8402557q-1.3963623 0.7011719 -2.6691895 0.081466675q-1.2798462 -0.63368225 -1.9880371 -2.043991q-0.49084473 -0.97743225 -0.5484009 -1.9626007q-0.05065918 -1.0061493 0.3812256 -1.7825317q0.44586182 -0.78338623 1.3535156 -1.239151q1.2008057 -0.6030121 2.4665527 -0.032196045l-0.40667725 -0.8098755l1.0612183 -0.53289795l2.9449463 5.864609q0.79937744 1.5918274 0.80773926 2.409378q0.008422852 0.81755066 -0.5144043 1.5521545q-0.50183105 0.7415619 -1.5211792 1.2534332q-1.2147827 0.61001587 -2.2422485 0.4440918q-1.0135498 -0.17295837 -1.5395508 -1.2900848zm-1.0979004 -4.5541077q0.6730957 1.3404846 1.512207 1.6884308q0.83917236 0.3479309 1.6350708 -0.051727295q0.79589844 -0.39967346 1.0180054 -1.2805176q0.23602295 -0.8878479 -0.41607666 -2.186432q-0.62402344 -1.2427521 -1.4981079 -1.590622q-0.8670654 -0.36886597 -1.6490479 0.023803711q-0.7680054 0.38565063 -0.9970093 1.2874603q-0.22210693 0.88082886 0.3949585 2.109604zm8.29718 0.23956299l-3.4077148 -6.786194l1.0333252 -0.5188751l0.5118408 1.0193329q0.04736328 -0.91548157 0.27026367 -1.3071747q0.21594238 -0.4056549 0.60687256 -0.60198975q0.5864868 -0.29449463 1.3692017 -0.23295593l0.14892578 1.2715149q-0.545105 -0.040985107 -0.9779663 0.17637634q-0.37701416 0.1893158 -0.5720215 0.5669861q-0.18103027 0.3706665 -0.10333252 0.8387146q0.11303711 0.71255493 0.4776001 1.4386444l1.7880249 3.5606537l-1.1450195 0.57496643zm8.381287 -5.2577515q-0.36883545 0.8671112 -0.84313965 1.385025q-0.47424316 0.51789856 -1.1584473 0.8614807q-1.1170654 0.5609436 -1.9909668 0.3178711q-0.87390137 -0.24305725 -1.3016357 -1.0948181q-0.25238037 -0.50268555 -0.2322998 -1.0198212q0.013000488 -0.53108215 0.24987793 -0.9647217q0.25079346 -0.44067383 0.64849854 -0.7977295q0.2930298 -0.25205994 0.93518066 -0.67941284q1.3121948 -0.8687439 1.8492432 -1.435669q-0.10522461 -0.24440002 -0.13330078 -0.3002472q-0.35760498 -0.7121277 -0.8329468 -0.8231201q-0.6291504 -0.17359924 -1.4949341 0.26112366q-0.8237915 0.4136963 -1.0675659 0.9032593q-0.23675537 0.46858215 -0.060668945 1.2718658l-1.2081909 0.41436768q-0.20397949 -0.7892761 -0.07928467 -1.4113922q0.124694824 -0.6221161 0.67578125 -1.1960602q0.5510254 -0.5739441 1.416748 -1.0086823q0.8796997 -0.44174194 1.529419 -0.50575256q0.64276123 -0.07797241 1.0483398 0.103012085q0.40563965 0.1809845 0.7557373 0.5996399q0.20306396 0.26519775 0.5887451 1.0331726l0.77130127 1.5359802q0.80633545 1.6057739 1.0935059 2.0035858q0.2802124 0.38383484 0.6999512 0.6626282l-1.2008667 0.6030121q-0.36383057 -0.27189636 -0.65808105 -0.7185974zm-1.3879395 -2.5201874q-0.50213623 0.5668793 -1.6536865 1.3724518q-0.66308594 0.45533752 -0.88616943 0.742218q-0.23016357 0.2729187 -0.27148438 0.60839844q-0.034423828 0.31451416 0.112854004 0.6077423q0.23138428 0.46080017 0.7347412 0.59269714q0.50335693 0.13189697 1.173584 -0.20466614q0.65625 -0.32955933 1.0326538 -0.8682556q0.38336182 -0.5596771 0.36834717 -1.1815643q-0.014831543 -0.48213196 -0.40045166 -1.2501068l-0.21038818 -0.4189148zm7.8448486 -2.7853394l1.2011108 -0.4283142q0.4074707 1.2640686 -0.023925781 2.3199615q-0.4244995 1.0349121 -1.541565 1.5958557q-1.3963013 0.70118713 -2.7038574 0.22128296q-1.3005981 -0.500885 -2.1489868 -2.190445q-0.5539551 -1.1031036 -0.60461426 -2.109253q-0.050598145 -1.0061493 0.48608398 -1.7826996q0.5437012 -0.7975464 1.4094238 -1.2322693q1.1170654 -0.5609436 2.0957031 -0.35299683q0.9786377 0.20794678 1.6999512 1.1220856l-1.039917 0.7494812q-0.49713135 -0.6070709 -1.0773926 -0.7528229q-0.5802002 -0.1457367 -1.15271 0.14175415q-0.8796997 0.44174194 -1.1087646 1.3435516q-0.2290039 0.9018097 0.4440918 2.2422943q0.6871948 1.3684082 1.5193481 1.73732q0.8391113 0.34794617 1.690918 -0.07977295q0.67022705 -0.33657837 0.92767334 -0.9729004q0.25042725 -0.6502838 -0.0725708 -1.572113zm-0.682251 -6.6161957l-0.6661377 -1.3265228l1.1589966 -0.5819702l0.6661377 1.3265076l-1.1589966 0.5819855zm3.9118042 11.411194l-0.26739502 -1.0896149q0.37719727 -0.084503174 0.5726929 -0.18266296q0.3630371 -0.18231201 0.41137695 -0.50382996q0.055419922 -0.30755615 -0.41436768 -1.243103l-3.5830688 -7.1352844l1.1589966 -0.5819702l3.597046 7.163208q0.62402344 1.2427368 0.5413208 1.9136963q-0.089416504 0.83169556 -1.0528564 1.315506q-0.47479248 0.23840332 -0.9637451 0.34405518zm7.0565186 -7.897049q-0.36889648 0.8671112 -0.84313965 1.3850098q-0.4743042 0.5179138 -1.1585083 0.861496q-1.1170654 0.5609436 -1.9909058 0.3178711q-0.87390137 -0.24305725 -1.3016357 -1.0948334q-0.25238037 -0.5026703 -0.23236084 -1.0198059q0.013061523 -0.53108215 0.24993896 -0.96473694q0.25079346 -0.44065857 0.6484375 -0.79771423q0.29309082 -0.25205994 0.9352417 -0.67941284q1.3121948 -0.8687439 1.8492432 -1.435669q-0.10522461 -0.24440002 -0.13330078 -0.3002472q-0.35760498 -0.7121277 -0.8329468 -0.8231201q-0.6292114 -0.17359924 -1.4949341 0.26112366q-0.8237915 0.4136963 -1.0675659 0.9032593q-0.23675537 0.46858215 -0.060668945 1.2718658l-1.2081909 0.41435242q-0.20397949 -0.78926086 -0.07928467 -1.411377q0.124694824 -0.6221161 0.67578125 -1.1960602q0.5510254 -0.5739441 1.416748 -1.0086823q0.8796997 -0.44174194 1.529419 -0.50575256q0.64276123 -0.07797241 1.0483398 0.103012085q0.40563965 0.1809845 0.7557373 0.5996399q0.20306396 0.2651825 0.5887451 1.0331726l0.77130127 1.535965q0.80633545 1.6057892 1.0935059 2.003601q0.28015137 0.38383484 0.6999512 0.6626282l-1.2008667 0.6030121q-0.36383057 -0.27189636 -0.65808105 -0.7185974zm-1.3879395 -2.5201874q-0.50213623 0.5668793 -1.6536865 1.3724518q-0.66308594 0.45533752 -0.88616943 0.742218q-0.23016357 0.2729187 -0.27148438 0.60839844q-0.034423828 0.31451416 0.112854004 0.6077423q0.23138428 0.4607849 0.7347412 0.59269714q0.5032959 0.13189697 1.173584 -0.20466614q0.65625 -0.32955933 1.0326538 -0.8682556q0.38336182 -0.5596924 0.36834717 -1.1815643q-0.014831543 -0.48213196 -0.40045166 -1.2501221l-0.21038818 -0.41889954zm6.827942 -1.6977386l1.039917 -0.7494812q0.44128418 0.63513184 1.0564575 0.7808075q0.6291504 0.13867188 1.4111328 -0.25398254q0.79589844 -0.39967346 1.0115967 -0.91015625q0.22973633 -0.5174866 0.012390137 -0.9503479q-0.1963501 -0.39097595 -0.64367676 -0.44610596q-0.31451416 -0.03439331 -1.3692627 0.1980133q-1.4318848 0.3169098 -2.032837 0.33891296q-0.60791016 0.008041382 -1.0695801 -0.2846527q-0.46173096 -0.2926941 -0.7070923 -0.7814026q-0.23138428 -0.46080017 -0.22521973 -0.9359741q0.013122559 -0.49613953 0.24291992 -0.9437561q0.16711426 -0.32870483 0.56481934 -0.68577576q0.4046631 -0.3780365 0.9352417 -0.6444702q0.79589844 -0.39967346 1.515564 -0.46380615q0.71258545 -0.07809448 1.2021484 0.16563416q0.489563 0.24372864 0.9168701 0.85092163l-1.039978 0.7145386q-0.34320068 -0.47457886 -0.8534546 -0.585495q-0.517334 -0.12489319 -1.187561 0.21166992q-0.79589844 0.39967346 -1.0117798 0.840271q-0.2019043 0.43359375 -0.026611328 0.78266907q0.11218262 0.22341919 0.34295654 0.3348236q0.23083496 0.11140442 0.60113525 0.08282471q0.20257568 -0.014328003 1.166565 -0.21864319q1.3760376 -0.28886414 1.9559937 -0.31781006q0.5938721 -0.035964966 1.076477 0.2287445q0.47564697 0.25073242 0.7701416 0.8371887q0.2874756 0.57250977 0.21179199 1.257431q-0.08270264 0.6709595 -0.58477783 1.2727814q-0.48815918 0.5947876 -1.2840576 0.99446106q-1.326477 0.66612244 -2.2981567 0.47213745q-0.96466064 -0.21495056 -1.7000732 -1.1919708zm-0.69628906 -6.679062l-0.045715332 -2.2150269l1.5080566 -0.75727844l-0.5128174 2.4954987l-0.9495239 0.47680664zm9.979309 4.55278l-5.48822 -5.74144l1.1868896 -0.5960083l3.0384521 3.3698425l1.1411743 1.2628021q-0.028137207 -0.12573242 -0.35913086 -1.5855865l-0.90216064 -4.512512l1.1868896 -0.5960083l2.982666 3.4328156l1.0011597 1.1233063l-0.26812744 -1.5088959l-0.81134033 -4.5056763l1.1170654 -0.5609436l1.2852783 7.8519897l-1.2008057 0.6030121l-3.1156006 -3.5234375l-0.84729004 -1.0257263l1.2539673 5.9094543l-1.2008667 0.6030121zm4.15625 -12.175537l-0.65911865 -1.312561l1.1589355 -0.5819855l0.65911865 1.312561l-1.1589355 0.5819855zm4.0457764 8.056854l-3.4077148 -6.786194l1.1589355 -0.5819855l3.4077148 6.786209l-1.1589355 0.5819702zm6.9155273 -4.521744q-0.36883545 0.8671112 -0.8430786 1.385025q-0.4743042 0.51789856 -1.1585083 0.8614807q-1.1170654 0.5609436 -1.9909668 0.31788635q-0.87384033 -0.24307251 -1.3015747 -1.0948334q-0.2524414 -0.50268555 -0.23236084 -1.0198059q0.013061523 -0.5310974 0.24987793 -0.96473694q0.25079346 -0.44065857 0.64849854 -0.7977295q0.2930298 -0.25205994 0.93518066 -0.67941284q1.3121948 -0.8687439 1.8493042 -1.435669q-0.105285645 -0.24438477 -0.13330078 -0.3002472q-0.35760498 -0.7121277 -0.8329468 -0.8231201q-0.6292114 -0.17359924 -1.4949341 0.26112366q-0.82385254 0.4136963 -1.0675659 0.9032593q-0.23675537 0.46858215 -0.06072998 1.2718658l-1.2081299 0.41436768q-0.20404053 -0.78926086 -0.07928467 -1.4113922q0.124694824 -0.6221161 0.6757202 -1.1960602q0.5510254 -0.5739441 1.416748 -1.008667q0.8796997 -0.4417572 1.52948 -0.50575256q0.6427002 -0.07797241 1.0483398 0.102996826q0.4055786 0.1809845 0.75567627 0.59965515q0.203125 0.2651825 0.5887451 1.0331573l0.77130127 1.5359802q0.8063965 1.6057892 1.0935669 2.0035858q0.28015137 0.3838501 0.69989014 0.6626282l-1.2008667 0.6030121q-0.36383057 -0.27189636 -0.65808105 -0.7185974zm-1.3878784 -2.520172q-0.50213623 0.566864 -1.6537476 1.3724365q-0.6630249 0.45533752 -0.88616943 0.7422333q-0.23010254 0.27290344 -0.27148438 0.60839844q-0.034362793 0.3144989 0.112854004 0.60772705q0.23138428 0.46080017 0.7347412 0.59269714q0.50335693 0.13189697 1.173584 -0.20466614q0.65631104 -0.32955933 1.0327148 -0.8682556q0.38336182 -0.5596771 0.36828613 -1.1815643q-0.014770508 -0.48213196 -0.40045166 -1.2501068l-0.21032715 -0.41889954zm9.064941 -0.2858429l-0.42767334 -0.8517761q-0.1375122 1.3279114 -1.3942261 1.9589691q-0.8098755 0.4066925 -1.7184448 0.30343628q-0.8945923 -0.11026001 -1.6712646 -0.7168579q-0.7836914 -0.6205597 -1.3095703 -1.6678009q-0.51190186 -1.0193329 -0.5904541 -2.0114594q-0.06463623 -0.99913025 0.38824463 -1.7685547q0.45983887 -0.7904053 1.2976685 -1.2111206q0.6143799 -0.30851746 1.2223511 -0.2816162q0.60095215 0.012939453 1.1115112 0.2636261l-1.6828613 -3.3512115l1.1450195 -0.57496643l4.704895 9.369415l-1.0751953 0.539917zm-5.3342896 -1.5700378q0.6590576 1.312561 1.5261841 1.6814117q0.8811035 0.36184692 1.6211548 -0.009780884q0.7540283 -0.3786316 0.9760742 -1.2594757q0.22210693 -0.88082886 -0.4159546 -2.1515045q-0.7011719 -1.3963318 -1.5682983 -1.7651825q-0.86016846 -0.38983154 -1.6560669 0.009841919q-0.7540283 0.3786316 -0.95513916 1.2664185q-0.20111084 0.88778687 0.4720459 2.2282715zm6.083374 -3.0548248q-0.9465332 -1.8850555 -0.35510254 -3.3185577q0.50109863 -1.1957703 1.7578125 -1.826828q1.4102783 -0.7081909 2.7527466 -0.22834778q1.3494263 0.4588623 2.1627808 2.0786133q0.65911865 1.312561 0.64678955 2.262909q-0.019348145 0.9363861 -0.5630493 1.7339172q-0.54364014 0.7975464 -1.4373169 1.2462921q-1.4242554 0.71520996 -2.7597046 0.24932861q-1.3424683 -0.47984314 -2.204956 -2.1973267zm1.1868896 -0.5960083q0.6520996 1.2985992 1.5402222 1.674408q0.89501953 0.35482788 1.7607422 -0.07991028q0.86572266 -0.4347229 1.1017456 -1.3575134q0.24291992 -0.9437561 -0.43017578 -2.2842407q-0.6311035 -1.2566986 -1.526123 -1.6115417q-0.9020386 -0.36878967 -1.7538452 0.058929443q-0.86572266 0.4347229 -1.1156616 1.3645325q-0.23596191 0.92277527 0.4230957 2.2353363zm8.234131 0.1138916l-3.4077148 -6.786194l1.0332642 -0.5188751l0.47680664 0.94950867q0.05480957 -0.65693665 0.4381714 -1.2166138q0.39031982 -0.58065796 1.0605469 -0.91722107q0.7540283 -0.3786316 1.3829956 -0.30984497q0.6430054 0.061782837 1.1259766 0.53611755q0.21386719 -1.5935669 1.5124512 -2.2456665q1.0053711 -0.5048523 1.8304443 -0.21977234q0.8250122 0.28507996 1.4069824 1.4440308l2.341919 4.6637726l-1.1449585 0.57496643l-2.14563 -4.2727966q-0.35058594 -0.6981659 -0.6094971 -0.93530273q-0.2659912 -0.25109863 -0.6503906 -0.28536987q-0.39135742 -0.04824829 -0.7963257 0.15509033q-0.7121582 0.35760498 -0.9484863 1.070755q-0.23632812 0.7131653 0.28955078 1.7604065l1.984314 3.951645l-1.1450195 0.57496643l-2.2156982 -4.41243q-0.38562012 -0.7679901 -0.85424805 -1.0047607q-0.47558594 -0.25073242 -1.1179199 0.07180786q-0.4887085 0.2454071 -0.774353 0.72106934q-0.27874756 0.4546814 -0.2288208 1.041565q0.06390381 0.5798645 0.5336914 1.5154114l1.7669678 3.5187683l-1.1450195 0.57496643zm14.916138 -8.539276q-0.36889648 0.8671112 -0.84313965 1.385025q-0.47424316 0.5179138 -1.1585083 0.8614807q-1.1170654 0.5609436 -1.9909058 0.31788635q-0.87390137 -0.24307251 -1.3016357 -1.0948334q-0.25238037 -0.50268555 -0.23236084 -1.0198059q0.013061523 -0.53108215 0.24993896 -0.96473694q0.25079346 -0.44065857 0.6484375 -0.79771423q0.29309082 -0.25205994 0.9352417 -0.6794281q1.3121948 -0.86872864 1.8492432 -1.435669q-0.10522461 -0.24438477 -0.13330078 -0.30023193q-0.35760498 -0.71214294 -0.8329468 -0.8231201q-0.6292114 -0.1736145 -1.4949341 0.26112366q-0.8237915 0.4136963 -1.0675659 0.9032593q-0.23675537 0.46858215 -0.060668945 1.2718658l-1.2081909 0.41435242q-0.20397949 -0.78926086 -0.07928467 -1.411377q0.124694824 -0.62213135 0.67578125 -1.1960754q0.5510254 -0.5739441 1.416748 -1.008667q0.8796997 -0.44174194 1.529419 -0.50575256q0.64276123 -0.07797241 1.0483398 0.103012085q0.40563965 0.1809845 0.7557373 0.5996399q0.20306396 0.2651825 0.5887451 1.0331726l0.77130127 1.535965q0.80633545 1.6057892 1.0935059 2.003601q0.28015137 0.38383484 0.6999512 0.6626282l-1.2008667 0.6030121q-0.36383057 -0.27189636 -0.65808105 -0.7186127zm-1.3879395 -2.520172q-0.50213623 0.566864 -1.6536865 1.3724365q-0.66308594 0.45535278 -0.88616943 0.7422333q-0.23016357 0.2729187 -0.27148438 0.60839844q-0.034423828 0.31451416 0.112854004 0.6077423q0.23138428 0.4607849 0.7347412 0.5926819q0.50335693 0.13189697 1.173584 -0.20466614q0.65625 -0.32954407 1.0326538 -0.8682556q0.38336182 -0.5596771 0.36834717 -1.1815491q-0.014831543 -0.48213196 -0.40045166 -1.2501221l-0.21038818 -0.41889954z" fill-rule="nonzero"/><path fill="#000000" fill-opacity="0.0" d="m108.28322 110.56823l128.8504 65.196846l-14.771652 29.228348l-128.8504 -65.19685z" fill-rule="evenodd"/><path fill="#ffffff" d="m107.116295 135.84412l4.7290497 -9.357262l1.2408218 0.62784576l-4.729042 9.357254l-1.2408295 -0.62783813zm3.2847977 1.6620636l3.425209 -6.7773895l1.0317001 0.5220337l-0.4862976 0.96221924q1.3166809 -0.7346802 2.7248077 -0.02218628q0.61344147 0.3103943 1.0165253 0.7945404q0.41013336 0.47018433 0.47785187 0.9597473q0.06771088 0.48954773 -0.06742859 1.0340729q-0.10633087 0.34895325 -0.508049 1.1438293l-2.1072845 4.169632l-1.1432343 -0.5784607l2.0861359 -4.1277924q0.3523941 -0.6972656 0.3891678 -1.1164398q0.03677368 -0.4191742 -0.20605469 -0.804718q-0.22888947 -0.378479 -0.6889725 -0.61128235q-0.7249756 -0.3668213 -1.5083313 -0.1678009q-0.76236725 0.19212341 -1.4178085 1.4890289l-1.8747025 3.7094269l-1.1432343 -0.5784607zm10.304138 3.9179382l-0.34719086 1.1026611q-0.5372925 -0.14929199 -0.9276657 -0.34681702q-0.61344147 -0.3103943 -0.8633194 -0.6819916q-0.24987793 -0.37158203 -0.22720337 -0.7628784q0.02268219 -0.39128113 0.54421234 -1.423233l1.9733734 -3.904663l-0.8504486 -0.4303131l0.4510498 -0.89250183l0.85045624 0.4303131l0.8527756 -1.6873627l1.4885788 -0.1048584l-1.1981201 2.370697l1.1571732 0.58551025l-0.45105743 0.89250183l-1.1571732 -0.5855255l-2.001564 3.9604492q-0.24667358 0.4880829 -0.268425 0.66970825q-7.7056885E-4 0.17471313 0.08242035 0.32188416q0.10417938 0.14025879 0.36907196 0.274292q0.1812439 0.09172058 0.52305603 0.21212769zm6.35141 1.7602997l1.1075287 0.7530365q-0.8074188 0.9048004 -1.8631821 1.088562q-1.0418167 0.19081116 -2.2268753 -0.40881348q-1.4917755 -0.7548218 -1.9120102 -2.1056976q-0.39924622 -1.3577576 0.43943787 -3.0172424q0.8668747 -1.7152557 2.2174149 -2.2051697q1.371521 -0.49679565 2.7796555 0.2157135q1.3523636 0.6842804 1.7515945 2.042038q0.39924622 1.3577576 -0.45352173 3.0451355q-0.049346924 0.09761047 -0.16899109 0.29974365l-5.0469666 -2.553711q-0.508049 1.1438446 -0.2394867 2.0327148q0.27561188 0.87493896 1.1260605 1.3052521q0.627388 0.31744385 1.2356262 0.22245789q0.6152878 -0.108947754 1.2537155 -0.7140198zm-2.8408966 -3.7664642l3.7921906 1.918808q0.34625244 -0.8929901 0.21618652 -1.501648q-0.21937561 -0.95155334 -1.0977173 -1.3959808q-0.78073883 -0.39505005 -1.5922928 -0.14025879q-0.8115463 0.25480652 -1.318367 1.1190796zm3.8737793 7.7388306l1.030777 0.7317047q-0.1910553 0.551239 0.009796143 0.9505615q0.2561493 0.53237915 1.009018 0.9133148q0.794693 0.4020996 1.388977 0.30004883q0.5942993 -0.10205078 1.0366211 -0.59620667q0.27378845 -0.29925537 0.830719 -1.4358826q-1.2039185 0.51156616 -2.3332214 -0.05984497q-1.3941803 -0.70544434 -1.6535492 -2.0974884q-0.25230408 -1.4060059 0.45951843 -2.8144684q0.4933319 -0.9761658 1.2506561 -1.6086273q0.77830505 -0.6393585 1.6591034 -0.7540436q0.8947296 -0.1076355 1.8009491 0.3508911q1.1990051 0.60668945 1.493454 1.9639587l0.4087677 -0.80882263l1.0595856 0.5361328l-2.9600525 5.8569946q-0.80345154 1.5897675 -1.4553528 2.0829315q-0.6519165 0.49317932 -1.5532379 0.5099335q-0.89442444 0.037734985 -1.9121857 -0.4772339q-1.2129364 -0.613739 -1.6909409 -1.5385437q-0.46405792 -0.91773987 0.12059784 -2.00531zm3.0059967 -3.5923157q-0.67658997 1.3387451 -0.45689392 2.2204132q0.21968079 0.88165283 1.0143738 1.2837524q0.794693 0.4020996 1.6345825 0.05657959q0.85383606 -0.33847046 1.5092773 -1.635376q0.62724304 -1.2411194 0.38671875 -2.1508331q-0.21954346 -0.9166107 -1.0002747 -1.3116455q-0.7668152 -0.3880005 -1.6276855 -0.035583496q-0.8399048 0.34552002 -1.4600983 1.5726929zm4.744171 6.8133545l3.4252014 -6.7773895l1.0317078 0.5220337l-0.51449585 1.0180054q0.7637634 -0.5066376 1.2111206 -0.5604553q0.454422 -0.06776428 0.8447876 0.12976074q0.5855713 0.29629517 1.0018158 0.962204l-0.93304443 0.8762665q-0.2913971 -0.46264648 -0.72358704 -0.68133545q-0.37643433 -0.19047546 -0.7959137 -0.122543335q-0.4055481 0.07498169 -0.7354126 0.4159088q-0.5052948 0.5148163 -0.87176514 1.239975l-1.7971802 3.5560303l-1.1432343 -0.5784607zm9.211273 3.6101227q-0.9161835 0.21936035 -1.614502 0.14620972q-0.69833374 -0.07316589 -1.381485 -0.4188385q-1.1153412 -0.5643463 -1.4399872 -1.41156q-0.32463074 -0.8471985 0.105285645 -1.6978607q0.2537079 -0.5020294 0.6811676 -0.79356384q0.43450928 -0.30549622 0.92385864 -0.37309265q0.50328064 -0.060546875 1.0267944 0.04675293q0.3768921 0.085632324 1.1023254 0.34762573q1.4787598 0.5381012 2.2538452 0.6325836q0.13375854 -0.23001099 0.16194153 -0.28579712q0.35943604 -0.7111969 0.16578674 -1.1594086q-0.23486328 -0.6091614 -1.0992584 -1.0465393q-0.8225708 -0.41619873 -1.3609467 -0.32087708q-0.51737976 0.08842468 -1.0580597 0.7079315l-1.0517731 -0.72480774q0.5128021 -0.63360596 1.0868835 -0.90348816q0.57406616 -0.26989746 1.3630981 -0.16835022q0.7890167 0.10154724 1.6534119 0.5389252q0.8783417 0.4444275 1.3163452 0.9287262q0.44506836 0.47035217 0.54096985 0.904129q0.09590149 0.43377686 -0.032180786 0.96435547q-0.09223938 0.32106018 -0.4798584 1.0880432l-0.7752533 1.5339813q-0.8105011 1.6036987 -0.9592743 2.0712738q-0.14172363 0.45362854 -0.115982056 0.9569702l-1.1990051 -0.6066742q0.0019989014 -0.45428467 0.18585205 -0.9566498zm1.1992035 -2.6152954q-0.75424194 -0.06643677 -2.0867004 -0.5130005q-0.7603607 -0.26216125 -1.1236267 -0.2708435q-0.35620117 -0.022644043 -0.6503601 0.14372253q-0.2731781 0.1594696 -0.42118835 0.45231628q-0.23257446 0.46020508 -0.03907776 0.9433594q0.1934967 0.4831543 0.8627167 0.8217621q0.6552582 0.33155823 1.3120728 0.31367493q0.67778015 -0.024780273 1.1685181 -0.40689087q0.37858582 -0.29875183 0.76620483 -1.0657501l0.21144104 -0.41835022zm6.9055023 4.6498566l1.0588074 0.7108612q-0.7732544 1.0796814 -1.8783417 1.3610687q-1.0841064 0.27449036 -2.199463 -0.28987122q-1.3941803 -0.70544434 -1.7865295 -2.0422058q-0.3713684 -1.3436432 0.4814148 -3.031021q0.55677795 -1.1016693 1.335083 -1.7410278q0.77830505 -0.6393585 1.7216034 -0.6698761q0.96429443 -0.03742981 1.8286896 0.39994812q1.1153564 0.5643616 1.5305328 1.474884q0.41519165 0.9105377 0.10983276 2.0343475l-1.2209167 -0.39012146q0.19198608 -0.76091003 -0.036132812 -1.3141174q-0.22813416 -0.5532074 -0.79974365 -0.84243774q-0.8783417 -0.4444275 -1.739212 -0.09202576q-0.8608856 0.352417 -1.5374756 1.6911621q-0.6906738 1.3666382 -0.49197388 2.255188q0.21968079 0.88165283 1.0701447 1.3119812q0.6692047 0.3386078 1.333664 0.16699219q0.67152405 -0.18556213 1.2200165 -0.99372864zm4.9102325 -4.4849854l0.6695404 -1.3247986l1.1571655 0.58551025l-0.6695404 1.3247986l-1.1571655 -0.58551025zm-6.8414917 9.934448l0.7164154 -0.8632965q0.29231262 0.25297546 0.48750305 0.35173035q0.3624878 0.1834259 0.64959717 0.03100586q0.28007507 -0.13847351 0.75227356 -1.0727997l3.6013947 -7.1260223l1.1571808 0.58551025l-3.6154938 7.1539154q-0.6272583 1.2411194 -1.2155762 1.5738525q-0.72146606 0.42295837 -1.6834564 -0.063797q-0.47402954 -0.2398529 -0.84983826 -0.5700989zm10.543762 0.9747009q-0.91619873 0.21936035 -1.6145172 0.14619446q-0.6983185 -0.07316589 -1.3814697 -0.41882324q-1.1153564 -0.5643616 -1.4399872 -1.41156q-0.324646 -0.84721375 0.105270386 -1.697876q0.25372314 -0.5020294 0.6811676 -0.79356384q0.43450928 -0.30548096 0.92385864 -0.37309265q0.5032959 -0.060531616 1.0267944 0.04675293q0.3768921 0.085632324 1.1023407 0.34762573q1.4787598 0.5381012 2.25383 0.6325836q0.13375854 -0.23001099 0.16194153 -0.28578186q0.35943604 -0.71121216 0.16578674 -1.1594238q-0.23484802 -0.6091614 -1.0992432 -1.046524q-0.8225708 -0.416214 -1.3609467 -0.32089233q-0.517395 0.08843994 -1.058075 0.7079315l-1.0517578 -0.72480774q0.51278687 -0.63360596 1.0868683 -0.90348816q0.57406616 -0.2698822 1.3630981 -0.16835022q0.7890167 0.10154724 1.6534119 0.5389252q0.8783417 0.4444275 1.3163605 0.9287262q0.4450531 0.47035217 0.54096985 0.904129q0.09590149 0.43377686 -0.032196045 0.96435547q-0.09223938 0.32106018 -0.4798584 1.0880585l-0.7752533 1.5339661q-0.81048584 1.603714 -0.95925903 2.071289q-0.14172363 0.45362854 -0.115997314 0.95695496l-1.1990051 -0.6066742q0.0019989014 -0.45428467 0.18586731 -0.9566345zm1.1991882 -2.6153107q-0.75424194 -0.06643677 -2.0866852 -0.5129852q-0.760376 -0.26216125 -1.1236267 -0.27085876q-0.35621643 -0.022628784 -0.65037537 0.14372253q-0.2731781 0.1594696 -0.4211731 0.45233154q-0.23257446 0.46018982 -0.03907776 0.9433441q0.1934967 0.4831543 0.8627014 0.8217621q0.6552582 0.33155823 1.3120728 0.31367493q0.6777954 -0.024780273 1.1685181 -0.40689087q0.37858582 -0.29875183 0.76620483 -1.0657501l0.21144104 -0.41835022zm6.1195374 7.3691864l1.3478699 -7.8285065l1.1850586 0.5996399l-0.8998413 4.4478455l-0.33569336 1.6688385q0.08425903 -0.097457886 1.0603638 -1.2321167l3.089035 -3.410202l1.1850586 0.59962463l-0.98365784 4.4404755l-0.30690002 1.4732819l1.0528717 -1.1133423l3.1375885 -3.333084l1.1153564 0.5643463l-5.544388 5.705124l-1.1989899 -0.60668945l0.9773712 -4.6012573l0.32006836 -1.2914886l-4.0021667 4.524185l-1.1990051 -0.6066742zm8.751205 1.8888702l1.2209167 0.39012146q-0.2477417 0.73269653 0.0012054443 1.3139496q0.26290894 0.58833313 1.0436401 0.9833679q0.794693 0.40211487 1.3332214 0.27183533q0.552475 -0.12321472 0.7709503 -0.5555115q0.19734192 -0.3904724 -0.024505615 -0.78289795q-0.15948486 -0.2733307 -0.97377014 -0.9830475q-1.1066132 -0.96269226 -1.4818115 -1.432724q-0.36816406 -0.483963 -0.40768433 -1.0293121q-0.039520264 -0.54533386 0.20715332 -1.0334167q0.23257446 -0.46018982 0.61805725 -0.73794556q0.40646362 -0.2846527 0.90286255 -0.36619568q0.3635559 -0.061203003 0.8870697 0.046081543q0.5444946 0.10040283 1.074295 0.36846924q0.79467773 0.4020996 1.2743683 0.94252014q0.4867401 0.52645874 0.58218384 1.0650635q0.095443726 0.53862 -0.13821411 1.2434235l-1.1928711 -0.41096497q0.17710876 -0.5582886 -0.037368774 -1.0345612q-0.20744324 -0.49020386 -0.87664795 -0.8288269q-0.794693 -0.4020996 -1.2771454 -0.31349182q-0.46850586 0.09564209 -0.6446991 0.4442749q-0.11276245 0.22312927 -0.064971924 0.47496033q0.047805786 0.25183105 0.29109192 0.53253174q0.13206482 0.15438843 0.869751 0.8078308q1.0508423 0.93447876 1.4191589 1.3834991q0.38224792 0.4560852 0.45669556 1.0015869q0.08149719 0.5315552 -0.21450806 1.1172485q-0.2889557 0.5717621 -0.8843231 0.9184265q-0.58833313 0.33273315 -1.3706055 0.28712463q-0.76834106 -0.0385437 -1.563034 -0.4406433q-1.3244781 -0.670166 -1.7467041 -1.5667572q-0.40124512 -0.9034729 -0.053756714 -2.0760193zm9.007965 5.8012238l-0.34718323 1.1026611q-0.5372925 -0.14929199 -0.92767334 -0.34681702q-0.61343384 -0.3103943 -0.86331177 -0.6819916q-0.24987793 -0.37158203 -0.22720337 -0.7628784q0.02267456 -0.39128113 0.54422 -1.423233l1.9733734 -3.904663l-0.85046387 -0.4303131l0.45106506 -0.89250183l0.8504486 0.43032837l0.8527832 -1.6873779l1.4885712 -0.1048584l-1.1981201 2.370697l1.1571808 0.58551025l-0.45106506 0.89250183l-1.1571808 -0.5855255l-2.0015564 3.9604492q-0.24667358 0.4880829 -0.26843262 0.66970825q-7.6293945E-4 0.17471313 0.08242798 0.32188416q0.10417175 0.14027405 0.3690796 0.27430725q0.1812439 0.09170532 0.5230408 0.21211243zm6.35141 1.7602997l1.107544 0.7530365q-0.8074188 0.9048004 -1.8631897 1.088562q-1.0418091 0.19081116 -2.2268677 -0.40881348q-1.4917908 -0.7548218 -1.9120178 -2.1056976q-0.39924622 -1.3577576 0.43943787 -3.0172424q0.86686707 -1.7152557 2.2174072 -2.2051697q1.3715363 -0.4967804 2.779663 0.2157135q1.352356 0.6842804 1.7516022 2.042038q0.39924622 1.3577576 -0.453537 3.0451355q-0.049331665 0.09761047 -0.16899109 0.29974365l-5.0469513 -2.553711q-0.50805664 1.1438446 -0.23950195 2.0327148q0.2756195 0.87493896 1.1260681 1.3052521q0.6273804 0.3174591 1.2356262 0.22245789q0.61528015 -0.108947754 1.2537079 -0.7140198zm-2.8408966 -3.7664642l3.7921906 1.918808q0.3462677 -0.8929901 0.21620178 -1.501648q-0.21939087 -0.95155334 -1.0977173 -1.3959808q-0.78074646 -0.39505005 -1.5923004 -0.14024353q-0.8115387 0.25479126 -1.3183746 1.1190643zm0.92578125 5.5467224q-0.4752655 0.03970337 -0.8464813 0.2546234q-0.3643341 0.2359314 -0.5334778 0.5706177q-0.1409607 0.27890015 -0.093170166 0.5307312q0.06175232 0.25889587 0.39634705 0.42819214q0.13941956 0.07054138 0.31393433 0.10630798q0.17449951 0.0357666 0.3491516 0.036590576l-0.41581726 0.82276917q-0.586792 -0.016738892 -0.9911041 -0.22131348q-0.32066345 -0.1622467 -0.52227783 -0.38684082q-0.19473267 -0.20359802 -0.27745056 -0.45559692q-0.06878662 -0.24494934 -0.046722412 -0.4964447q0.022064209 -0.25151062 0.14187622 -0.48857117q0.21142578 -0.41836548 0.64593506 -0.72384644q0.441391 -0.28448486 1.0427399 -0.40048218l0.83651733 0.42326355zm2.1281586 4.3339386l4.7360992 -9.371216l1.045639 0.52908325l-0.4440155 0.8785553q0.63720703 -0.3255005 1.2241516 -0.34371948q0.5939789 -0.032165527 1.2631989 0.30644226q0.86439514 0.43737793 1.308075 1.2222443q0.4436798 0.7848511 0.36245728 1.7769318q-0.074157715 0.97813416 -0.5604553 1.9403534q-0.5285797 1.0458984 -1.3278809 1.6921387q-0.77830505 0.6393585 -1.7288055 0.71876526q-0.9365692 0.08647156 -1.7173157 -0.3085785q-0.5716095 -0.28923035 -0.9118805 -0.75909424q-0.33322144 -0.48381042 -0.44276428 -0.9945221l-1.663269 3.2910767l-1.1432343 -0.5784607zm4.0340424 -5.4186554q-0.6554413 1.2969055 -0.4427948 2.1925201q0.22657776 0.9026489 0.9794464 1.2835999q0.7667999 0.38798523 1.6347351 0.021621704q0.8749695 -0.3802948 1.558609 -1.7329865q0.6554413 -1.2969055 0.43589783 -2.2135162q-0.19854736 -0.92349243 -0.9374542 -1.2973785q-0.72499084 -0.3668213 -1.6489868 0.04119873q-0.91696167 0.39408875 -1.5794525 1.7049408zm4.5499115 6.5049286l3.4252167 -6.7773895l1.0316925 0.52201843l-0.4862976 0.9622345q1.3166809 -0.7346802 2.7248077 -0.02218628q0.6134491 0.3103943 1.0165253 0.79452515q0.410141 0.47019958 0.47784424 0.9597473q0.067718506 0.489563 -0.06741333 1.0340729q-0.1063385 0.3489685 -0.50805664 1.1438446l-2.1072845 4.169632l-1.1432343 -0.5784607l2.0861359 -4.1277924q0.35238647 -0.6972656 0.38917542 -1.1164398q0.03677368 -0.4191742 -0.20606995 -0.804718q-0.22888184 -0.378479 -0.68896484 -0.61128235q-0.7249756 -0.36683655 -1.5083313 -0.16781616q-0.7623749 0.19212341 -1.4178162 1.4890289l-1.8746948 3.7094421l-1.1432343 -0.5784607zm12.115509 5.0796204q-0.91619873 0.21936035 -1.6145172 0.14620972q-0.6983185 -0.07316589 -1.3814697 -0.4188385q-1.1153564 -0.5643463 -1.4399872 -1.41156q-0.324646 -0.8471985 0.105270386 -1.6978607q0.25372314 -0.5020294 0.68118286 -0.79356384q0.43449402 -0.30549622 0.9238434 -0.37309265q0.5032959 -0.060546875 1.0267944 0.04673767q0.3768921 0.08564758 1.1023407 0.347641q1.4787598 0.5381012 2.25383 0.6325836q0.13375854 -0.23001099 0.16195679 -0.28579712q0.35943604 -0.7111969 0.16578674 -1.1594086q-0.23486328 -0.6091614 -1.0992584 -1.0465393q-0.8225708 -0.416214 -1.3609467 -0.32087708q-0.517395 0.08842468 -1.058075 0.7079315l-1.0517578 -0.72480774q0.51278687 -0.63360596 1.0868683 -0.90348816q0.5740814 -0.26989746 1.3630981 -0.16835022q0.7890167 0.10154724 1.6534119 0.5389252q0.8783417 0.4444275 1.3163605 0.9287262q0.44506836 0.47035217 0.54096985 0.904129q0.09590149 0.43377686 -0.032196045 0.9643402q-0.09222412 0.32107544 -0.4798584 1.0880585l-0.7752533 1.5339813q-0.81048584 1.6036987 -0.95925903 2.0712738q-0.14172363 0.45362854 -0.115997314 0.9569702l-1.1989899 -0.6066742q0.0019836426 -0.45428467 0.18585205 -0.9566498zm1.1991882 -2.6152954q-0.75424194 -0.06643677 -2.0866852 -0.5130005q-0.760376 -0.26216125 -1.1236267 -0.2708435q-0.35621643 -0.022644043 -0.65037537 0.14372253q-0.2731781 0.1594696 -0.4211731 0.45231628q-0.23257446 0.46020508 -0.03907776 0.9433594q0.1934967 0.4831543 0.8627014 0.8217621q0.65527344 0.33155823 1.3120728 0.31367493q0.6777954 -0.024795532 1.1685181 -0.40689087q0.37858582 -0.2987671 0.7662201 -1.0657501l0.21142578 -0.41835022z" fill-rule="nonzero"/></g></svg>