<?xml version="1.0" encoding="UTF-8" standalone="no"?><svg xmlns="http://www.w3.org/2000/svg" xmlns:xlink="http://www.w3.org/1999/xlink" style="isolation:isolate" viewBox="0 0 24 24" width="24pt" height="24pt"><defs><clipPath id="_clipPath_X8Nhk2kHDOVKr0IXYVfEfElN27qsL5Ca"><rect width="24" height="24"/></clipPath></defs><g clip-path="url(#_clipPath_X8Nhk2kHDOVKr0IXYVfEfElN27qsL5Ca)"><path d=" M 12 2 L 12 22 L 11 20 C 10 21 9 20 9 20 L 10.5 18 L 7 18 L 7 16 L 8.5 16 C 8.5 13 5 13 5 16 C 5 16 3 16 3 13 C 3 10 7 8 9 12 C 10 14 10 16 10 16 L 11 16 C 11 12 9 7 9 7 C 9 4 12 2 12 2 L 12 2 Z " fill="rgb(255,255,255)"/><path d=" M 12 2 L 12 22 L 13 20 C 14 21 15 20 15 20 L 13.5 18 L 17 18 L 17 16 L 15.5 16 C 15.5 13 19 13 19 16 C 19 16 21 16 21 13 C 21 10 17 8 15 12 C 14 14 14 16 14 16 L 13 16 C 13 12 15 10 15 7 C 15 4 12 2 12 2 L 12 2 Z " fill="rgb(0,0,0)" fill-opacity="0.25"/></g></svg>