<?xml version="1.0" encoding="UTF-8" standalone="no"?><svg xmlns="http://www.w3.org/2000/svg" xmlns:xlink="http://www.w3.org/1999/xlink" style="isolation:isolate" viewBox="0 0 512 512" width="512pt" height="512pt"><defs><clipPath id="_clipPath_4JrdxpbI1nriukBm4N6AepJ2TT2c7ty9"><rect width="512" height="512"/></clipPath></defs><g clip-path="url(#_clipPath_4JrdxpbI1nriukBm4N6AepJ2TT2c7ty9)"><path d=" M 204.5 140.5 C 196.555 146.776 189.222 153.776 182.5 161.5 C 168.114 174.885 154.447 188.885 141.5 203.5 C 119.035 225.465 96.701 247.632 74.5 270 C 73.906 270.464 73.239 270.631 72.5 270.5 C 48.5 245.833 24.167 221.5 -0.5 197.5 C -0.5 196.833 -0.5 196.167 -0.5 195.5 C 22.167 173.5 44.5 151.167 66.5 128.5 C 81.115 115.553 95.115 101.886 108.5 87.5 C 116.224 80.778 123.224 73.445 129.5 65.5 C 138.965 56.536 148.298 47.369 157.5 38 C 158.5 37.333 159.5 37.333 160.5 38 C 178.683 53.549 198.683 56.216 220.5 46 C 229.388 40.118 237.388 33.118 244.5 25 C 245.167 24.333 245.833 24.333 246.5 25 C 258.681 37.014 270.681 49.181 282.5 61.5 C 256.479 87.854 230.479 114.188 204.5 140.5 Z " fill-rule="evenodd" fill="rgb(255,255,255)"/><path d=" M 129.5 65.5 C 123.224 73.445 116.224 80.778 108.5 87.5 C 105.167 83.833 101.833 80.167 98.5 76.5 C 104.631 69.869 110.964 63.369 117.5 57 C 118.5 56.333 119.5 56.333 120.5 57 C 123.369 60.038 126.369 62.871 129.5 65.5 Z " fill-rule="evenodd" fill="rgb(255,255,255)"/><path d=" M 511.5 56.5 C 511.5 57.833 511.5 59.167 511.5 60.5 C 509.184 68.417 506.851 76.417 504.5 84.5 C 501.833 82.167 499.167 79.833 496.5 77.5 C 492.167 72.833 487.833 68.167 483.5 63.5 C 492.833 61.167 502.167 58.833 511.5 56.5 Z " fill-rule="evenodd" fill="rgb(255,255,255)"/><path d=" M 98.5 76.5 C 101.833 80.167 105.167 83.833 108.5 87.5 C 95.115 101.886 81.115 115.553 66.5 128.5 C 63.871 125.369 61.038 122.369 58 119.5 C 57.333 118.5 57.333 117.5 58 116.5 C 71.368 102.965 84.868 89.631 98.5 76.5 Z " fill-rule="evenodd" fill="rgb(255,255,255)" fill-opacity="0.8"/><g opacity="0.6"><path d=" M 427.5 78.5 C 433.775 86.113 440.442 93.446 447.5 100.5 C 399.833 147.5 352.5 194.833 305.5 242.5 C 297.776 235.778 290.776 228.445 284.5 220.5 C 332.167 173.167 379.833 125.833 427.5 78.5 Z " fill-rule="evenodd" fill="rgb(255,255,255)"/></g><g opacity="0.8"><path d=" M 447.5 100.5 C 454.167 106.833 460.833 113.167 467.5 119.5 C 467.5 119.833 467.5 120.167 467.5 120.5 C 420.868 167.632 374.035 214.632 327 261.5 C 326.536 262.094 326.369 262.761 326.5 263.5 C 319.167 256.833 312.167 249.833 305.5 242.5 C 352.5 194.833 399.833 147.5 447.5 100.5 Z " fill-rule="evenodd" fill="rgb(255,255,255)"/></g><path d=" M 467.5 120.5 C 474.833 127.5 482.167 134.5 489.5 141.5 C 441.86 188.473 394.527 235.806 347.5 283.5 C 339.889 277.557 332.889 270.891 326.5 263.5 C 326.369 262.761 326.536 262.094 327 261.5 C 374.035 214.632 420.868 167.632 467.5 120.5 Z " fill-rule="evenodd" fill="rgb(255,255,255)"/><path d=" M 204.5 140.5 C 230.833 167.5 257.5 194.167 284.5 220.5 C 290.776 228.445 297.776 235.778 305.5 242.5 C 312.167 249.833 319.167 256.833 326.5 263.5 C 332.889 270.891 339.889 277.557 347.5 283.5 C 390.465 326.965 433.632 370.299 477 413.5 C 481.667 420.833 481.667 428.167 477 435.5 C 473.631 439.037 470.131 442.371 466.5 445.5 C 372.167 350.5 277.5 255.833 182.5 161.5 C 189.222 153.776 196.555 146.776 204.5 140.5 Z " fill-rule="evenodd" fill="rgb(255,255,255)"/><path d=" M 182.5 161.5 C 277.5 255.833 372.167 350.5 466.5 445.5 C 455.702 456.798 444.702 467.965 433.5 479 C 428.044 481.099 422.711 480.766 417.5 478 C 372.993 434.326 328.66 390.493 284.5 346.5 C 278.557 338.889 271.891 331.889 264.5 325.5 C 257.833 318.167 250.833 311.167 243.5 304.5 C 236.778 296.776 229.445 289.776 221.5 283.5 C 195.167 256.5 168.5 229.833 141.5 203.5 C 154.447 188.885 168.114 174.885 182.5 161.5 Z " fill-rule="evenodd" fill="rgb(255,255,255)" fill-opacity="0.8"/><path d=" M -0.5 197.5 C 24.167 221.5 48.5 245.833 72.5 270.5 C 65.159 270.666 57.826 270.5 50.5 270 C 33.632 252.965 16.632 236.132 -0.5 219.5 C -0.5 212.167 -0.5 204.833 -0.5 197.5 Z " fill-rule="evenodd" fill="rgb(255,255,255)" fill-opacity="0.8"/><g opacity="0.6"><path d=" M 221.5 283.5 C 229.445 289.776 236.778 296.776 243.5 304.5 C 208.783 338.216 174.783 372.549 141.5 407.5 C 134.167 400.5 126.833 393.5 119.5 386.5 C 153.5 352.167 187.5 317.833 221.5 283.5 Z " fill-rule="evenodd" fill="rgb(255,255,255)"/></g><g opacity="0.8"><path d=" M 243.5 304.5 C 250.833 311.167 257.833 318.167 264.5 325.5 C 229.549 358.783 195.216 392.783 161.5 427.5 C 161.167 427.5 160.833 427.5 160.5 427.5 C 154.167 420.833 147.833 414.167 141.5 407.5 C 174.783 372.549 208.783 338.216 243.5 304.5 Z " fill-rule="evenodd" fill="rgb(255,255,255)"/></g><path d=" M 264.5 325.5 C 271.891 331.889 278.557 338.889 284.5 346.5 C 250.167 380.5 215.833 414.5 181.5 448.5 C 174.833 441.5 168.167 434.5 161.5 427.5 C 195.216 392.783 229.549 358.783 264.5 325.5 Z " fill-rule="evenodd" fill="rgb(255,255,255)"/><path d=" M 99.5 406.5 C 112.833 420.5 126.5 434.167 140.5 447.5 C 140.5 447.833 140.5 448.167 140.5 448.5 C 125.199 465.65 106.866 469.983 85.5 461.5 C 77.488 439.882 82.155 421.548 99.5 406.5 Z " fill-rule="evenodd" fill="rgb(255,255,255)" fill-opacity="0.8"/><path d=" M 140.5 448.5 C 147.5 455.167 154.5 461.833 161.5 468.5 C 146.965 485.802 128.965 490.635 107.5 483 C 97.673 478.339 90.34 471.173 85.5 461.5 C 106.866 469.983 125.199 465.65 140.5 448.5 Z " fill-rule="evenodd" fill="rgb(255,255,255)"/></g></svg>